SplineFontDB: 3.2
FontName: Reijima-Black
FullName: Reijima Black
FamilyName: Reijima Black
Weight: Black
Copyright: Copyright (c) 2019 by Coji Morishita. All rights reserved.
Version: 1.001
ItalicAngle: 0
UnderlinePosition: -100
UnderlineWidth: 50
Ascent: 860
Descent: 140
InvalidEm: 0
sfntRevision: 0x00010000
LayerCount: 2
Layer: 0 1 "Back" 1
Layer: 1 1 "Fore" 0
XUID: [1021 531 -1996577725 7650974]
StyleMap: 0x0040
FSType: 8
OS2Version: 4
OS2_WeightWidthSlopeOnly: 0
OS2_UseTypoMetrics: 1
CreationTime: 1575364793
ModificationTime: 1707370110
PfmFamily: 81
TTFWeight: 900
TTFWidth: 5
LineGap: 0
VLineGap: 1000
Panose: 0 0 10 0 0 0 0 0 0 0
OS2TypoAscent: 960
OS2TypoAOffset: 0
OS2TypoDescent: -230
OS2TypoDOffset: 0
OS2TypoLinegap: 200
OS2WinAscent: 1060
OS2WinAOffset: 0
OS2WinDescent: 330
OS2WinDOffset: 0
HheadAscent: 1060
HheadAOffset: 0
HheadDescent: -330
HheadDOffset: 0
OS2SubXSize: 650
OS2SubYSize: 600
OS2SubXOff: 0
OS2SubYOff: 75
OS2SupXSize: 650
OS2SupYSize: 600
OS2SupXOff: 0
OS2SupYOff: 350
OS2StrikeYSize: 50
OS2StrikeYPos: 312
OS2CapHeight: 730
OS2XHeight: 520
OS2Vendor: 'M+  '
OS2CodePages: 0000019f.00000000
OS2UnicodeRanges: a00002ff.4800204b.00000000.00000000
Lookup: 1 0 0 "'aalt' Access All Alternates in Latin lookup 0" { "'aalt' Access All Alternates in Latin lookup 0 subtable"  } ['aalt' ('DFLT' <'dflt' > 'latn' <'AZE ' 'CAT ' 'CRT ' 'KAZ ' 'MOL ' 'ROM ' 'TAT ' 'TRK ' 'dflt' > ) ]
Lookup: 3 0 0 "'aalt' Access All Alternates in Latin lookup 1" { "'aalt' Access All Alternates in Latin lookup 1 subtable"  } ['aalt' ('DFLT' <'dflt' > 'latn' <'AZE ' 'CAT ' 'CRT ' 'KAZ ' 'MOL ' 'ROM ' 'TAT ' 'TRK ' 'dflt' > ) ]
Lookup: 6 0 0 "'ccmp' Glyph Composition/Decomposition in Latin lookup 2" { "'ccmp' Glyph Composition/Decomposition in Latin lookup 2 contextual 0"  "'ccmp' Glyph Composition/Decomposition in Latin lookup 2 contextual 1"  } ['ccmp' ('DFLT' <'dflt' > 'latn' <'AZE ' 'CAT ' 'CRT ' 'KAZ ' 'MOL ' 'ROM ' 'TAT ' 'TRK ' 'dflt' > ) ]

StartChar: .notdef
Encoding: 1114112 -1 0
Width: 500
Flags: W
LayerCount: 2
Fore
SplineSet
410 -140 m 1,0,-1
 93 -140 l 1,1,-1
 93 860 l 1,2,-1
 410 860 l 1,3,-1
 410 -140 l 1,0,-1
168 793 m 1,4,-1
 168 760 l 1,5,-1
 233 760 l 1,6,-1
 233 723 l 1,7,-1
 167 723 l 1,8,-1
 167 690 l 1,9,-1
 333 690 l 1,10,-1
 333 723 l 1,11,-1
 267 723 l 1,12,-1
 267 760 l 1,13,-1
 333 760 l 1,14,-1
 333 793 l 1,15,-1
 168 793 l 1,4,-1
167 664 m 1,16,-1
 167 560 l 1,17,-1
 333 560 l 1,18,-1
 333 594 l 1,19,-1
 267 594 l 1,20,-1
 267 664 l 1,21,-1
 167 664 l 1,16,-1
233 594 m 1,22,-1
 200 594 l 1,23,-1
 200 630 l 1,24,-1
 233 630 l 1,25,-1
 233 594 l 1,22,-1
167 533 m 1,26,-1
 167 500 l 1,27,-1
 233 500 l 1,28,-1
 233 463 l 1,29,-1
 167 463 l 1,30,-1
 167 430 l 1,31,-1
 267 430 l 1,32,-1
 267 500 l 1,33,-1
 333 500 l 1,34,-1
 333 533 l 1,35,-1
 167 533 l 1,26,-1
300 473 m 1,36,-1
 300 407 l 1,37,-1
 167 407 l 1,38,-1
 167 373 l 1,39,-1
 333 373 l 1,40,-1
 333 473 l 1,41,-1
 300 473 l 1,36,-1
233 351 m 1,42,-1
 233 295 l 1,43,-1
 267 295 l 1,44,-1
 267 318 l 1,45,-1
 300 318 l 1,46,-1
 300 271 l 1,47,-1
 200 271 l 1,48,-1
 200 351 l 1,49,-1
 167 351 l 1,50,-1
 167 238 l 1,51,-1
 333 238 l 1,52,-1
 333 351 l 1,53,-1
 233 351 l 1,42,-1
167 178 m 1,54,-1
 167 65 l 1,55,-1
 333 65 l 1,56,-1
 333 178 l 1,57,-1
 167 178 l 1,54,-1
300 98 m 1,58,-1
 200 98 l 1,59,-1
 200 145 l 1,60,-1
 300 145 l 1,61,-1
 300 98 l 1,58,-1
167 42 m 1,62,-1
 167 9 l 1,63,-1
 237 9 l 1,64,-1
 167 -38 l 1,65,-1
 167 -71 l 1,66,-1
 333 -71 l 1,67,-1
 333 -38 l 1,68,-1
 231 -38 l 1,69,-1
 301 9 l 1,70,-1
 333 9 l 1,71,-1
 333 42 l 1,72,-1
 167 42 l 1,62,-1
EndSplineSet
EndChar

StartChar: A
Encoding: 65 65 2
Width: 704
GlyphClass: 2
Flags: W
AnchorPoint: "Anchor-6" 352 730 basechar 0
AnchorPoint: "Anchor-5" 697 0 basechar 0
AnchorPoint: "Anchor-4" 352 0 basechar 0
LayerCount: 2
Fore
SplineSet
477 0 m 1,0,-1
 447 135 l 1,1,-1
 257 135 l 1,2,-1
 227 0 l 1,3,-1
 7 0 l 1,4,-1
 217 730 l 1,5,-1
 487 730 l 1,6,-1
 697 0 l 1,7,-1
 477 0 l 1,0,-1
293 300 m 1,8,-1
 411 300 l 1,9,-1
 353 560 l 1,10,-1
 351 560 l 1,11,-1
 293 300 l 1,8,-1
EndSplineSet
Substitution2: "Single Substitution lookup 21 subtable" ordfeminine
Substitution2: "'aalt' Access All Alternates in Latin lookup 0 subtable" ordfeminine
EndChar

StartChar: uni1EAE
Encoding: 7854 7854 5
Width: 704
GlyphClass: 2
Flags: W
AnchorPoint: "Anchor-6" 352 730 basechar 0
AnchorPoint: "Anchor-5" 697 0 basechar 0
AnchorPoint: "Anchor-4" 352 0 basechar 0
LayerCount: 2
Fore
SplineSet
223 788.5 m 128,-1,1
 166 817 166 817 134 867 c 128,-1,2
 102 917 102 917 102 980 c 1,3,-1
 241 980 l 1,4,-1
 298 1180 l 1,5,-1
 528 1180 l 1,6,-1
 408 970 l 1,7,-1
 273 970 l 1,8,9
 280 929 280 929 299 909.5 c 128,-1,10
 318 890 318 890 352 890 c 0,11,12
 387 890 387 890 406.5 912 c 128,-1,13
 426 934 426 934 432 980 c 1,14,-1
 602 980 l 1,15,16
 602 917 602 917 570 867 c 128,-1,17
 538 817 538 817 481 788.5 c 128,-1,18
 424 760 424 760 352 760 c 256,19,0
 280 760 280 760 223 788.5 c 128,-1,1
477 0 m 1,20,-1
 447 135 l 1,21,-1
 257 135 l 1,22,-1
 227 0 l 1,23,-1
 7 0 l 1,24,-1
 217 730 l 1,25,-1
 487 730 l 1,26,-1
 697 0 l 1,27,-1
 477 0 l 1,20,-1
293 300 m 1,28,-1
 411 300 l 1,29,-1
 353 560 l 1,30,-1
 351 560 l 1,31,-1
 293 300 l 1,28,-1
EndSplineSet
EndChar

StartChar: uni1EB0
Encoding: 7856 7856 7
Width: 704
GlyphClass: 2
Flags: W
AnchorPoint: "Anchor-6" 352 730 basechar 0
AnchorPoint: "Anchor-5" 697 0 basechar 0
AnchorPoint: "Anchor-4" 352 0 basechar 0
LayerCount: 2
Fore
SplineSet
404.5 909.5 m 128,-1,1
 424 929 424 929 431 970 c 1,2,-1
 296 970 l 1,3,-1
 176 1180 l 1,4,-1
 406 1180 l 1,5,-1
 463 980 l 1,6,-1
 602 980 l 1,7,8
 602 917 602 917 570 867 c 128,-1,9
 538 817 538 817 481 788.5 c 128,-1,10
 424 760 424 760 352 760 c 256,11,12
 280 760 280 760 223 788.5 c 128,-1,13
 166 817 166 817 134 867 c 128,-1,14
 102 917 102 917 102 980 c 1,15,-1
 272 980 l 1,16,17
 277 934 277 934 296.5 912 c 128,-1,18
 316 890 316 890 352 890 c 0,19,0
 385 890 385 890 404.5 909.5 c 128,-1,1
477 0 m 1,20,-1
 447 135 l 1,21,-1
 257 135 l 1,22,-1
 227 0 l 1,23,-1
 7 0 l 1,24,-1
 217 730 l 1,25,-1
 487 730 l 1,26,-1
 697 0 l 1,27,-1
 477 0 l 1,20,-1
293 300 m 1,28,-1
 411 300 l 1,29,-1
 353 560 l 1,30,-1
 351 560 l 1,31,-1
 293 300 l 1,28,-1
EndSplineSet
EndChar

StartChar: uni1EB2
Encoding: 7858 7858 8
Width: 704
GlyphClass: 2
Flags: W
AnchorPoint: "Anchor-6" 352 1190 basechar 0
AnchorPoint: "Anchor-5" 697 0 basechar 0
AnchorPoint: "Anchor-4" 352 0 basechar 0
LayerCount: 2
Fore
SplineSet
404.5 909.5 m 128,-1,1
 424 929 424 929 431 970 c 1,2,-1
 362 970 l 1,3,4
 372 1007 372 1007 372 1030 c 0,5,6
 372 1048 372 1048 363 1054 c 128,-1,7
 354 1060 354 1060 327 1060 c 0,8,9
 293 1060 293 1060 251.5 1053.5 c 128,-1,10
 210 1047 210 1047 172 1035 c 1,11,-1
 157 1170 l 1,12,13
 199 1179 199 1179 252.5 1184.5 c 128,-1,14
 306 1190 306 1190 352 1190 c 0,15,16
 430 1190 430 1190 471.5 1181.5 c 128,-1,17
 513 1173 513 1173 530 1153 c 128,-1,18
 547 1133 547 1133 547 1095 c 0,19,20
 547 1069 547 1069 541.5 1037.5 c 128,-1,21
 536 1006 536 1006 526 980 c 1,22,-1
 602 980 l 1,23,24
 602 917 602 917 570 867 c 128,-1,25
 538 817 538 817 481 788.5 c 128,-1,26
 424 760 424 760 352 760 c 256,27,28
 280 760 280 760 223 788.5 c 128,-1,29
 166 817 166 817 134 867 c 128,-1,30
 102 917 102 917 102 980 c 1,31,-1
 272 980 l 1,32,33
 277 934 277 934 296.5 912 c 128,-1,34
 316 890 316 890 352 890 c 0,35,0
 385 890 385 890 404.5 909.5 c 128,-1,1
477 0 m 1,36,-1
 447 135 l 1,37,-1
 257 135 l 1,38,-1
 227 0 l 1,39,-1
 7 0 l 1,40,-1
 217 730 l 1,41,-1
 487 730 l 1,42,-1
 697 0 l 1,43,-1
 477 0 l 1,36,-1
293 300 m 1,44,-1
 411 300 l 1,45,-1
 353 560 l 1,46,-1
 351 560 l 1,47,-1
 293 300 l 1,44,-1
EndSplineSet
EndChar

StartChar: uni1EA4
Encoding: 7844 7844 11
Width: 704
GlyphClass: 2
Flags: W
AnchorPoint: "Anchor-6" 352 730 basechar 0
AnchorPoint: "Anchor-5" 697 0 basechar 0
AnchorPoint: "Anchor-4" 352 0 basechar 0
LayerCount: 2
Fore
SplineSet
351 910 m 1,0,-1
 292 770 l 1,1,-1
 82 770 l 1,2,-1
 202 980 l 1,3,-1
 481 980 l 1,4,-1
 532 1160 l 1,5,-1
 762 1160 l 1,6,-1
 642 950 l 1,7,-1
 519 950 l 1,8,-1
 622 770 l 1,9,-1
 412 770 l 1,10,-1
 353 910 l 1,11,-1
 351 910 l 1,0,-1
217 730 m 1,12,-1
 487 730 l 1,13,-1
 697 0 l 1,14,-1
 477 0 l 1,15,-1
 447 135 l 1,16,-1
 257 135 l 1,17,-1
 227 0 l 1,18,-1
 7 0 l 1,19,-1
 217 730 l 1,12,-1
293 300 m 1,20,-1
 411 300 l 1,21,-1
 353 560 l 1,22,-1
 351 560 l 1,23,-1
 293 300 l 1,20,-1
EndSplineSet
EndChar

StartChar: uni1EA6
Encoding: 7846 7846 13
Width: 704
GlyphClass: 2
Flags: W
AnchorPoint: "Anchor-6" 352 730 basechar 0
AnchorPoint: "Anchor-5" 697 0 basechar 0
AnchorPoint: "Anchor-4" 352 0 basechar 0
LayerCount: 2
Fore
SplineSet
185 950 m 1,0,-1
 62 950 l 1,1,-1
 -58 1160 l 1,2,-1
 172 1160 l 1,3,-1
 223 980 l 1,4,-1
 502 980 l 1,5,-1
 622 770 l 1,6,-1
 412 770 l 1,7,-1
 353 910 l 1,8,-1
 351 910 l 1,9,-1
 292 770 l 1,10,-1
 82 770 l 1,11,-1
 185 950 l 1,0,-1
477 0 m 1,12,-1
 447 135 l 1,13,-1
 257 135 l 1,14,-1
 227 0 l 1,15,-1
 7 0 l 1,16,-1
 217 730 l 1,17,-1
 487 730 l 1,18,-1
 697 0 l 1,19,-1
 477 0 l 1,12,-1
293 300 m 1,20,-1
 411 300 l 1,21,-1
 353 560 l 1,22,-1
 351 560 l 1,23,-1
 293 300 l 1,20,-1
EndSplineSet
EndChar

StartChar: uni1EA8
Encoding: 7848 7848 14
Width: 704
GlyphClass: 2
Flags: W
AnchorPoint: "Anchor-6" 466 1170 basechar 0
AnchorPoint: "Anchor-5" 697 0 basechar 0
AnchorPoint: "Anchor-4" 352 0 basechar 0
LayerCount: 2
Fore
SplineSet
292 770 m 1,0,-1
 82 770 l 1,1,-1
 202 980 l 1,2,-1
 483 980 l 1,3,4
 486 997 486 997 486 1010 c 0,5,6
 486 1028 486 1028 477 1034 c 128,-1,7
 468 1040 468 1040 441 1040 c 0,8,9
 407 1040 407 1040 365.5 1033.5 c 128,-1,10
 324 1027 324 1027 286 1015 c 1,11,-1
 271 1150 l 1,12,13
 313 1159 313 1159 366.5 1164.5 c 128,-1,14
 420 1170 420 1170 466 1170 c 0,15,16
 544 1170 544 1170 585.5 1161.5 c 128,-1,17
 627 1153 627 1153 644 1133 c 128,-1,18
 661 1113 661 1113 661 1075 c 0,19,20
 661 1047 661 1047 654 1012 c 128,-1,21
 647 977 647 977 636 950 c 1,22,-1
 519 950 l 1,23,-1
 622 770 l 1,24,-1
 412 770 l 1,25,-1
 353 910 l 1,26,-1
 351 910 l 1,27,-1
 292 770 l 1,0,-1
477 0 m 1,28,-1
 447 135 l 1,29,-1
 257 135 l 1,30,-1
 227 0 l 1,31,-1
 7 0 l 1,32,-1
 217 730 l 1,33,-1
 487 730 l 1,34,-1
 697 0 l 1,35,-1
 477 0 l 1,28,-1
293 300 m 1,36,-1
 411 300 l 1,37,-1
 353 560 l 1,38,-1
 351 560 l 1,39,-1
 293 300 l 1,36,-1
EndSplineSet
EndChar

StartChar: Aogonek
Encoding: 260 260 23
Width: 704
GlyphClass: 2
Flags: W
AnchorPoint: "Anchor-6" 352 730 basechar 0
AnchorPoint: "Anchor-5" 697 0 basechar 0
AnchorPoint: "Anchor-4" 352 0 basechar 0
LayerCount: 2
Fore
SplineSet
789 -200 m 1,0,1
 735 -220 735 -220 664 -220 c 0,2,3
 561 -220 561 -220 505 -184 c 128,-1,4
 449 -148 449 -148 449 -82 c 0,5,6
 449 -39 449 -39 477 1 c 1,7,-1
 447 135 l 1,8,-1
 257 135 l 1,9,-1
 227 0 l 1,10,-1
 7 0 l 1,11,-1
 217 730 l 1,12,-1
 487 730 l 1,13,-1
 697 0 l 1,14,15
 625 -28 625 -28 625 -57 c 0,16,17
 625 -71 625 -71 638 -78 c 128,-1,18
 651 -85 651 -85 676 -85 c 0,19,20
 698 -85 698 -85 724.5 -79.5 c 128,-1,21
 751 -74 751 -74 774 -65 c 1,22,-1
 789 -200 l 1,0,1
293 300 m 1,23,-1
 411 300 l 1,24,-1
 353 560 l 1,25,-1
 351 560 l 1,26,-1
 293 300 l 1,23,-1
EndSplineSet
EndChar

StartChar: Aring
Encoding: 197 197 24
Width: 704
GlyphClass: 2
Flags: W
AnchorPoint: "Anchor-6" 353 915 basechar 0
AnchorPoint: "Anchor-5" 697 0 basechar 0
AnchorPoint: "Anchor-4" 352 0 basechar 0
LayerCount: 2
Fore
SplineSet
447 135 m 1,0,-1
 257 135 l 1,1,-1
 227 0 l 1,2,-1
 7 0 l 1,3,-1
 217 728 l 1,4,5
 183 773 183 773 183 830 c 0,6,7
 183 876 183 876 206 915 c 128,-1,8
 229 954 229 954 268 977 c 128,-1,9
 307 1000 307 1000 353 1000 c 256,10,11
 399 1000 399 1000 438 977 c 128,-1,12
 477 954 477 954 500 915 c 128,-1,13
 523 876 523 876 523 830 c 0,14,15
 523 772 523 772 488 727 c 1,16,-1
 697 0 l 1,17,-1
 477 0 l 1,18,-1
 447 135 l 1,0,-1
314 869 m 128,-1,20
 298 853 298 853 298 830 c 256,21,22
 298 807 298 807 314 791 c 128,-1,23
 330 775 330 775 353 775 c 256,24,25
 376 775 376 775 392 791 c 128,-1,26
 408 807 408 807 408 830 c 256,27,28
 408 853 408 853 392 869 c 128,-1,29
 376 885 376 885 353 885 c 256,30,19
 330 885 330 885 314 869 c 128,-1,20
293 300 m 1,31,-1
 411 300 l 1,32,-1
 353 560 l 1,33,-1
 351 560 l 1,34,-1
 293 300 l 1,31,-1
EndSplineSet
EndChar

StartChar: Aringacute
Encoding: 506 506 25
Width: 704
GlyphClass: 2
Flags: W
AnchorPoint: "Anchor-6" 353 915 basechar 0
AnchorPoint: "Anchor-5" 697 0 basechar 0
AnchorPoint: "Anchor-4" 352 0 basechar 0
LayerCount: 2
Fore
SplineSet
447 135 m 1,0,-1
 257 135 l 1,1,-1
 227 0 l 1,2,-1
 7 0 l 1,3,-1
 217 728 l 1,4,5
 183 773 183 773 183 830 c 0,6,7
 183 867 183 867 198 899.5 c 128,-1,8
 213 932 213 932 239 957 c 1,9,-1
 299 1165 l 1,10,-1
 529 1165 l 1,11,-1
 425 984 l 1,12,13
 469 963 469 963 496 921.5 c 128,-1,14
 523 880 523 880 523 830 c 0,15,16
 523 772 523 772 488 727 c 1,17,-1
 697 0 l 1,18,-1
 477 0 l 1,19,-1
 447 135 l 1,0,-1
314 869 m 128,-1,21
 298 853 298 853 298 830 c 256,22,23
 298 807 298 807 314 791 c 128,-1,24
 330 775 330 775 353 775 c 256,25,26
 376 775 376 775 392 791 c 128,-1,27
 408 807 408 807 408 830 c 256,28,29
 408 853 408 853 392 869 c 128,-1,30
 376 885 376 885 353 885 c 256,31,20
 330 885 330 885 314 869 c 128,-1,21
293 300 m 1,32,-1
 411 300 l 1,33,-1
 353 560 l 1,34,-1
 351 560 l 1,35,-1
 293 300 l 1,32,-1
EndSplineSet
EndChar

StartChar: AE
Encoding: 198 198 27
AltUni2: 0004d4.ffffffff.0
Width: 912
GlyphClass: 2
Flags: W
AnchorPoint: "Anchor-6" 480 730 basechar 0
AnchorPoint: "Anchor-4" 480 0 basechar 0
LayerCount: 2
Fore
SplineSet
857 570 m 1,0,-1
 607 570 l 1,1,-1
 607 453 l 1,2,-1
 837 453 l 1,3,-1
 837 298 l 1,4,-1
 607 298 l 1,5,-1
 607 160 l 1,6,-1
 857 160 l 1,7,-1
 857 0 l 1,8,-1
 407 0 l 1,9,-1
 407 135 l 1,10,-1
 263 135 l 1,11,-1
 227 0 l 1,12,-1
 7 0 l 1,13,-1
 247 730 l 1,14,-1
 857 730 l 1,15,-1
 857 570 l 1,0,-1
306 300 m 1,16,-1
 407 300 l 1,17,-1
 407 570 l 1,18,-1
 377 570 l 1,19,-1
 306 300 l 1,16,-1
EndSplineSet
EndChar

StartChar: B
Encoding: 66 66 29
Width: 678
Flags: W
LayerCount: 2
Fore
SplineSet
601.5 329 m 128,-1,1
 645 285 645 285 645 210 c 0,2,3
 645 107 645 107 563 53.5 c 128,-1,4
 481 0 481 0 325 0 c 2,5,-1
 65 0 l 1,6,-1
 65 730 l 1,7,-1
 315 730 l 2,8,9
 467 730 467 730 546 684 c 128,-1,10
 625 638 625 638 625 550 c 0,11,12
 625 483 625 483 585.5 440 c 128,-1,13
 546 397 546 397 475 386 c 1,14,-1
 475 384 l 1,15,0
 558 373 558 373 601.5 329 c 128,-1,1
265 575 m 1,16,-1
 265 450 l 1,17,-1
 325 450 l 2,18,19
 381 450 381 450 403 464 c 128,-1,20
 425 478 425 478 425 512 c 256,21,22
 425 546 425 546 402.5 560.5 c 128,-1,23
 380 575 380 575 325 575 c 2,24,-1
 265 575 l 1,16,-1
412 172.5 m 128,-1,26
 440 190 440 190 440 228 c 256,27,28
 440 266 440 266 412.5 283 c 128,-1,29
 385 300 385 300 325 300 c 2,30,-1
 265 300 l 1,31,-1
 265 155 l 1,32,-1
 325 155 l 2,33,25
 384 155 384 155 412 172.5 c 128,-1,26
EndSplineSet
EndChar

StartChar: C
Encoding: 67 67 30
Width: 696
GlyphClass: 2
Flags: W
AnchorPoint: "Anchor-6" 380 730 basechar 0
AnchorPoint: "Anchor-4" 380 0 basechar 0
LayerCount: 2
Fore
SplineSet
128 87 m 128,-1,1
 32 184 32 184 32 365 c 256,2,3
 32 546 32 546 128 643 c 128,-1,4
 224 740 224 740 402 740 c 0,5,6
 546 740 546 740 657 674 c 1,7,-1
 577 519 l 1,8,9
 531 545 531 545 491.5 557.5 c 128,-1,10
 452 570 452 570 412 570 c 0,11,12
 327 570 327 570 282 517 c 128,-1,13
 237 464 237 464 237 365 c 256,14,15
 237 266 237 266 282 213 c 128,-1,16
 327 160 327 160 412 160 c 0,17,18
 452 160 452 160 491.5 172.5 c 128,-1,19
 531 185 531 185 577 211 c 1,20,-1
 657 56 l 1,21,22
 546 -10 546 -10 402 -10 c 0,23,0
 224 -10 224 -10 128 87 c 128,-1,1
EndSplineSet
EndChar

StartChar: Ccedilla
Encoding: 199 199 33
Width: 696
GlyphClass: 2
Flags: W
AnchorPoint: "Anchor-6" 380 730 basechar 0
AnchorPoint: "Anchor-4" 380 0 basechar 0
LayerCount: 2
Fore
SplineSet
657 56 m 1,0,1
 594 18 594 18 521 2 c 1,2,3
 550 -37 550 -37 550 -82 c 0,4,5
 550 -148 550 -148 494 -184 c 128,-1,6
 438 -220 438 -220 335 -220 c 0,7,8
 264 -220 264 -220 210 -200 c 1,9,-1
 225 -65 l 1,10,11
 248 -74 248 -74 274.5 -79.5 c 128,-1,12
 301 -85 301 -85 323 -85 c 0,13,14
 348 -85 348 -85 361 -78 c 128,-1,15
 374 -71 374 -71 374 -57 c 0,16,17
 374 -28 374 -28 307 -2 c 1,18,19
 173 22 173 22 102.5 116 c 128,-1,20
 32 210 32 210 32 365 c 0,21,22
 32 546 32 546 128 643 c 128,-1,23
 224 740 224 740 402 740 c 0,24,25
 546 740 546 740 657 674 c 1,26,-1
 577 519 l 1,27,28
 531 545 531 545 491.5 557.5 c 128,-1,29
 452 570 452 570 412 570 c 0,30,31
 327 570 327 570 282 517 c 128,-1,32
 237 464 237 464 237 365 c 256,33,34
 237 266 237 266 282 213 c 128,-1,35
 327 160 327 160 412 160 c 0,36,37
 452 160 452 160 491.5 172.5 c 128,-1,38
 531 185 531 185 577 211 c 1,39,-1
 657 56 l 1,0,1
EndSplineSet
EndChar

StartChar: D
Encoding: 68 68 36
Width: 697
GlyphClass: 2
Flags: W
AnchorPoint: "Anchor-6" 349 730 basechar 0
AnchorPoint: "Anchor-4" 349 0 basechar 0
LayerCount: 2
Fore
SplineSet
295 730 m 2,0,1
 425 730 425 730 506.5 692 c 128,-1,2
 588 654 588 654 626.5 574 c 128,-1,3
 665 494 665 494 665 365 c 256,4,5
 665 236 665 236 626.5 156 c 128,-1,6
 588 76 588 76 506.5 38 c 128,-1,7
 425 0 425 0 295 0 c 2,8,-1
 65 0 l 1,9,-1
 65 730 l 1,10,-1
 295 730 l 2,0,1
400.5 178.5 m 128,-1,12
 433 197 433 197 446.5 240.5 c 128,-1,13
 460 284 460 284 460 365 c 256,14,15
 460 446 460 446 446.5 489.5 c 128,-1,16
 433 533 433 533 400.5 551.5 c 128,-1,17
 368 570 368 570 308 570 c 2,18,-1
 265 570 l 1,19,-1
 265 160 l 1,20,-1
 308 160 l 2,21,11
 368 160 368 160 400.5 178.5 c 128,-1,12
EndSplineSet
EndChar

StartChar: Eth
Encoding: 208 208 38
Width: 759
GlyphClass: 2
Flags: W
AnchorPoint: "Anchor-6" 411 730 basechar 0
AnchorPoint: "Anchor-4" 411 0 basechar 0
LayerCount: 2
Fore
SplineSet
568.5 692 m 128,-1,1
 650 654 650 654 688.5 574 c 128,-1,2
 727 494 727 494 727 365 c 256,3,4
 727 236 727 236 688.5 156 c 128,-1,5
 650 76 650 76 568.5 38 c 128,-1,6
 487 0 487 0 357 0 c 2,7,-1
 127 0 l 1,8,-1
 127 295 l 1,9,-1
 22 295 l 1,10,-1
 22 435 l 1,11,-1
 127 435 l 1,12,-1
 127 730 l 1,13,-1
 357 730 l 2,14,0
 487 730 487 730 568.5 692 c 128,-1,1
462.5 178.5 m 128,-1,16
 495 197 495 197 508.5 240.5 c 128,-1,17
 522 284 522 284 522 365 c 256,18,19
 522 446 522 446 508.5 489.5 c 128,-1,20
 495 533 495 533 462.5 551.5 c 128,-1,21
 430 570 430 570 370 570 c 2,22,-1
 327 570 l 1,23,-1
 327 435 l 1,24,-1
 448 435 l 1,25,-1
 448 295 l 1,26,-1
 327 295 l 1,27,-1
 327 160 l 1,28,-1
 370 160 l 2,29,15
 430 160 430 160 462.5 178.5 c 128,-1,16
EndSplineSet
EndChar

StartChar: E
Encoding: 69 69 42
Width: 610
GlyphClass: 2
Flags: W
AnchorPoint: "Anchor-6" 310 730 basechar 0
AnchorPoint: "Anchor-5" 555 0 basechar 0
AnchorPoint: "Anchor-4" 310 0 basechar 0
LayerCount: 2
Fore
SplineSet
65 730 m 1,0,-1
 555 730 l 1,1,-1
 555 570 l 1,2,-1
 265 570 l 1,3,-1
 265 453 l 1,4,-1
 535 453 l 1,5,-1
 535 298 l 1,6,-1
 265 298 l 1,7,-1
 265 160 l 1,8,-1
 555 160 l 1,9,-1
 555 0 l 1,10,-1
 65 0 l 1,11,-1
 65 730 l 1,0,-1
EndSplineSet
EndChar

StartChar: uni1EBE
Encoding: 7870 7870 47
Width: 610
GlyphClass: 2
Flags: W
AnchorPoint: "Anchor-6" 310 730 basechar 0
AnchorPoint: "Anchor-5" 555 0 basechar 0
AnchorPoint: "Anchor-4" 310 0 basechar 0
LayerCount: 2
Fore
SplineSet
720 1160 m 1,0,-1
 600 950 l 1,1,-1
 477 950 l 1,2,-1
 580 770 l 1,3,-1
 370 770 l 1,4,-1
 311 910 l 1,5,-1
 309 910 l 1,6,-1
 250 770 l 1,7,-1
 40 770 l 1,8,-1
 160 980 l 1,9,-1
 439 980 l 1,10,-1
 490 1160 l 1,11,-1
 720 1160 l 1,0,-1
65 0 m 1,12,-1
 65 730 l 1,13,-1
 555 730 l 1,14,-1
 555 570 l 1,15,-1
 265 570 l 1,16,-1
 265 453 l 1,17,-1
 535 453 l 1,18,-1
 535 298 l 1,19,-1
 265 298 l 1,20,-1
 265 160 l 1,21,-1
 555 160 l 1,22,-1
 555 0 l 1,23,-1
 65 0 l 1,12,-1
EndSplineSet
EndChar

StartChar: uni1EC0
Encoding: 7872 7872 49
Width: 610
GlyphClass: 2
Flags: W
AnchorPoint: "Anchor-6" 310 730 basechar 0
AnchorPoint: "Anchor-5" 555 0 basechar 0
AnchorPoint: "Anchor-4" 310 0 basechar 0
LayerCount: 2
Fore
SplineSet
250 770 m 1,0,-1
 40 770 l 1,1,-1
 143 950 l 1,2,-1
 20 950 l 1,3,-1
 -100 1160 l 1,4,-1
 130 1160 l 1,5,-1
 181 980 l 1,6,-1
 460 980 l 1,7,-1
 580 770 l 1,8,-1
 370 770 l 1,9,-1
 311 910 l 1,10,-1
 309 910 l 1,11,-1
 250 770 l 1,0,-1
65 0 m 1,12,-1
 65 730 l 1,13,-1
 555 730 l 1,14,-1
 555 570 l 1,15,-1
 265 570 l 1,16,-1
 265 453 l 1,17,-1
 535 453 l 1,18,-1
 535 298 l 1,19,-1
 265 298 l 1,20,-1
 265 160 l 1,21,-1
 555 160 l 1,22,-1
 555 0 l 1,23,-1
 65 0 l 1,12,-1
EndSplineSet
EndChar

StartChar: uni1EC2
Encoding: 7874 7874 50
Width: 610
GlyphClass: 2
Flags: W
AnchorPoint: "Anchor-6" 424 1170 basechar 0
AnchorPoint: "Anchor-5" 555 0 basechar 0
AnchorPoint: "Anchor-4" 310 0 basechar 0
LayerCount: 2
Fore
SplineSet
612 1012 m 128,-1,1
 605 977 605 977 594 950 c 1,2,-1
 477 950 l 1,3,-1
 580 770 l 1,4,-1
 370 770 l 1,5,-1
 311 910 l 1,6,-1
 309 910 l 1,7,-1
 250 770 l 1,8,-1
 40 770 l 1,9,-1
 160 980 l 1,10,-1
 441 980 l 1,11,12
 444 997 444 997 444 1010 c 0,13,14
 444 1028 444 1028 435 1034 c 128,-1,15
 426 1040 426 1040 399 1040 c 0,16,17
 365 1040 365 1040 323.5 1033.5 c 128,-1,18
 282 1027 282 1027 244 1015 c 1,19,-1
 229 1150 l 1,20,21
 271 1159 271 1159 324.5 1164.5 c 128,-1,22
 378 1170 378 1170 424 1170 c 0,23,24
 502 1170 502 1170 543.5 1161.5 c 128,-1,25
 585 1153 585 1153 602 1133 c 128,-1,26
 619 1113 619 1113 619 1075 c 0,27,0
 619 1047 619 1047 612 1012 c 128,-1,1
65 0 m 1,28,-1
 65 730 l 1,29,-1
 555 730 l 1,30,-1
 555 570 l 1,31,-1
 265 570 l 1,32,-1
 265 453 l 1,33,-1
 535 453 l 1,34,-1
 535 298 l 1,35,-1
 265 298 l 1,36,-1
 265 160 l 1,37,-1
 555 160 l 1,38,-1
 555 0 l 1,39,-1
 65 0 l 1,28,-1
EndSplineSet
EndChar

StartChar: Eogonek
Encoding: 280 280 60
Width: 610
GlyphClass: 2
Flags: W
AnchorPoint: "Anchor-6" 310 730 basechar 0
AnchorPoint: "Anchor-5" 555 0 basechar 0
AnchorPoint: "Anchor-4" 310 0 basechar 0
LayerCount: 2
Fore
SplineSet
647 -200 m 1,0,1
 593 -220 593 -220 522 -220 c 0,2,3
 419 -220 419 -220 363 -184 c 128,-1,4
 307 -148 307 -148 307 -82 c 0,5,6
 307 -40 307 -40 335 0 c 1,7,-1
 65 0 l 1,8,-1
 65 730 l 1,9,-1
 555 730 l 1,10,-1
 555 570 l 1,11,-1
 265 570 l 1,12,-1
 265 453 l 1,13,-1
 535 453 l 1,14,-1
 535 298 l 1,15,-1
 265 298 l 1,16,-1
 265 160 l 1,17,-1
 555 160 l 1,18,-1
 555 0 l 1,19,20
 483 -28 483 -28 483 -57 c 0,21,22
 483 -71 483 -71 496 -78 c 128,-1,23
 509 -85 509 -85 534 -85 c 0,24,25
 556 -85 556 -85 582.5 -79.5 c 128,-1,26
 609 -74 609 -74 632 -65 c 1,27,-1
 647 -200 l 1,0,1
EndSplineSet
EndChar

StartChar: F
Encoding: 70 70 62
Width: 604
Flags: W
LayerCount: 2
Fore
SplineSet
65 730 m 1,0,-1
 555 730 l 1,1,-1
 555 565 l 1,2,-1
 265 565 l 1,3,-1
 265 430 l 1,4,-1
 535 430 l 1,5,-1
 535 270 l 1,6,-1
 265 270 l 1,7,-1
 265 0 l 1,8,-1
 65 0 l 1,9,-1
 65 730 l 1,0,-1
EndSplineSet
EndChar

StartChar: G
Encoding: 71 71 63
Width: 767
GlyphClass: 2
Flags: W
AnchorPoint: "Anchor-6" 400 730 basechar 0
AnchorPoint: "Anchor-4" 400 0 basechar 0
LayerCount: 2
Fore
SplineSet
712 452 m 1,0,-1
 712 50 l 1,1,2
 655 21 655 21 583.5 5.5 c 128,-1,3
 512 -10 512 -10 432 -10 c 0,4,5
 307 -10 307 -10 217 34.5 c 128,-1,6
 127 79 127 79 79.5 163.5 c 128,-1,7
 32 248 32 248 32 365 c 256,8,9
 32 482 32 482 79.5 566.5 c 128,-1,10
 127 651 127 651 217 695.5 c 128,-1,11
 307 740 307 740 432 740 c 0,12,13
 587 740 587 740 687 674 c 1,14,-1
 612 524 l 1,15,16
 525 575 525 575 432 575 c 0,17,18
 237 575 237 575 237 365 c 256,19,20
 237 155 237 155 432 155 c 0,21,22
 473 155 473 155 512 166 c 1,23,-1
 512 287 l 1,24,-1
 367 287 l 1,25,-1
 367 452 l 1,26,-1
 712 452 l 1,0,-1
EndSplineSet
EndChar

StartChar: H
Encoding: 72 72 69
Width: 730
GlyphClass: 2
Flags: W
AnchorPoint: "Anchor-6" 365 730 basechar 0
AnchorPoint: "Anchor-4" 365 0 basechar 0
LayerCount: 2
Fore
SplineSet
465 730 m 1,0,-1
 665 730 l 1,1,-1
 665 0 l 1,2,-1
 465 0 l 1,3,-1
 465 295 l 1,4,-1
 265 295 l 1,5,-1
 265 0 l 1,6,-1
 65 0 l 1,7,-1
 65 730 l 1,8,-1
 265 730 l 1,9,-1
 265 465 l 1,10,-1
 465 465 l 1,11,-1
 465 730 l 1,0,-1
EndSplineSet
EndChar

StartChar: Hbar
Encoding: 294 294 70
Width: 822
GlyphClass: 2
Flags: W
AnchorPoint: "Anchor-6" 411 730 basechar 0
AnchorPoint: "Anchor-4" 411 0 basechar 0
LayerCount: 2
Fore
SplineSet
801 666 m 1,0,-1
 801 526 l 1,1,-1
 711 526 l 1,2,-1
 711 0 l 1,3,-1
 511 0 l 1,4,-1
 511 295 l 1,5,-1
 311 295 l 1,6,-1
 311 0 l 1,7,-1
 111 0 l 1,8,-1
 111 526 l 1,9,-1
 21 526 l 1,10,-1
 21 666 l 1,11,-1
 111 666 l 1,12,-1
 111 730 l 1,13,-1
 311 730 l 1,14,-1
 311 666 l 1,15,-1
 511 666 l 1,16,-1
 511 730 l 1,17,-1
 711 730 l 1,18,-1
 711 666 l 1,19,-1
 801 666 l 1,0,-1
511 465 m 1,20,-1
 511 526 l 1,21,-1
 311 526 l 1,22,-1
 311 465 l 1,23,-1
 511 465 l 1,20,-1
EndSplineSet
EndChar

StartChar: I
Encoding: 73 73 72
Width: 354
GlyphClass: 2
Flags: W
AnchorPoint: "Anchor-6" 177 730 basechar 0
AnchorPoint: "Anchor-5" 282 0 basechar 0
AnchorPoint: "Anchor-4" 177 0 basechar 0
LayerCount: 2
Fore
SplineSet
72 730 m 1,0,-1
 282 730 l 1,1,-1
 282 0 l 1,2,-1
 72 0 l 1,3,-1
 72 730 l 1,0,-1
EndSplineSet
EndChar

StartChar: Iogonek
Encoding: 302 302 84
Width: 354
GlyphClass: 2
Flags: W
AnchorPoint: "Anchor-6" 177 730 basechar 0
AnchorPoint: "Anchor-5" 282 0 basechar 0
AnchorPoint: "Anchor-4" 177 0 basechar 0
LayerCount: 2
Fore
SplineSet
374 -200 m 1,0,1
 320 -220 320 -220 249 -220 c 0,2,3
 146 -220 146 -220 90 -184 c 128,-1,4
 34 -148 34 -148 34 -82 c 0,5,6
 34 -33 34 -33 72 14 c 1,7,-1
 72 730 l 1,8,-1
 282 730 l 1,9,-1
 282 0 l 1,10,11
 210 -28 210 -28 210 -57 c 0,12,13
 210 -71 210 -71 223 -78 c 128,-1,14
 236 -85 236 -85 261 -85 c 0,15,16
 283 -85 283 -85 309.5 -79.5 c 128,-1,17
 336 -74 336 -74 359 -65 c 1,18,-1
 374 -200 l 1,0,1
EndSplineSet
EndChar

StartChar: J
Encoding: 74 74 86
Width: 585
GlyphClass: 2
Flags: W
AnchorPoint: "Anchor-6" 293 730 basechar 0
AnchorPoint: "Anchor-4" 293 0 basechar 0
LayerCount: 2
Fore
SplineSet
119 2.5 m 128,-1,1
 56 15 56 15 3 39 c 1,2,-1
 48 209 l 1,3,4
 157 165 157 165 221 165 c 0,5,6
 272 165 272 165 296.5 193 c 128,-1,7
 321 221 321 221 321 280 c 2,8,-1
 321 730 l 1,9,-1
 526 730 l 1,10,-1
 526 280 l 2,11,12
 526 128 526 128 458 59 c 128,-1,13
 390 -10 390 -10 241 -10 c 0,14,0
 182 -10 182 -10 119 2.5 c 128,-1,1
EndSplineSet
EndChar

StartChar: K
Encoding: 75 75 88
Width: 708
GlyphClass: 2
Flags: W
AnchorPoint: "Anchor-6" 340 730 basechar 0
AnchorPoint: "Anchor-4" 340 0 basechar 0
LayerCount: 2
Fore
SplineSet
65 730 m 1,0,-1
 265 730 l 1,1,-1
 265 420 l 1,2,-1
 267 420 l 1,3,-1
 455 730 l 1,4,-1
 685 730 l 1,5,-1
 455 380 l 1,6,-1
 695 0 l 1,7,-1
 465 0 l 1,8,-1
 267 340 l 1,9,-1
 265 340 l 1,10,-1
 265 0 l 1,11,-1
 65 0 l 1,12,-1
 65 730 l 1,0,-1
EndSplineSet
EndChar

StartChar: L
Encoding: 76 76 90
Width: 591
GlyphClass: 2
Flags: W
AnchorPoint: "Anchor-7" 571 730 basechar 0
AnchorPoint: "Anchor-6" 296 730 basechar 0
AnchorPoint: "Anchor-4" 296 0 basechar 0
LayerCount: 2
Fore
SplineSet
65 730 m 1,0,-1
 270 730 l 1,1,-1
 270 170 l 1,2,-1
 565 170 l 1,3,-1
 565 0 l 1,4,-1
 65 0 l 1,5,-1
 65 730 l 1,0,-1
EndSplineSet
EndChar

StartChar: Lslash
Encoding: 321 321 97
Width: 690
GlyphClass: 2
Flags: W
AnchorPoint: "Anchor-7" 670 730 basechar 0
AnchorPoint: "Anchor-6" 395 730 basechar 0
AnchorPoint: "Anchor-4" 395 0 basechar 0
LayerCount: 2
Fore
SplineSet
369 170 m 1,0,-1
 664 170 l 1,1,-1
 664 0 l 1,2,-1
 164 0 l 1,3,-1
 164 247 l 1,4,-1
 62 207 l 1,5,-1
 7 337 l 1,6,-1
 164 399 l 1,7,-1
 164 730 l 1,8,-1
 369 730 l 1,9,-1
 369 481 l 1,10,-1
 476 523 l 1,11,-1
 531 393 l 1,12,-1
 369 329 l 1,13,-1
 369 170 l 1,0,-1
EndSplineSet
EndChar

StartChar: M
Encoding: 77 77 98
Width: 890
Flags: W
LayerCount: 2
Fore
SplineSet
65 730 m 1,0,-1
 313 730 l 1,1,-1
 444 340 l 1,2,-1
 446 340 l 1,3,-1
 577 730 l 1,4,-1
 825 730 l 1,5,-1
 825 0 l 1,6,-1
 625 0 l 1,7,-1
 625 420 l 1,8,-1
 623 420 l 1,9,-1
 535 155 l 1,10,-1
 355 155 l 1,11,-1
 267 420 l 1,12,-1
 265 420 l 1,13,-1
 265 0 l 1,14,-1
 65 0 l 1,15,-1
 65 730 l 1,0,-1
EndSplineSet
EndChar

StartChar: N
Encoding: 78 78 99
Width: 740
GlyphClass: 2
Flags: W
AnchorPoint: "Anchor-6" 370 730 basechar 0
AnchorPoint: "Anchor-4" 370 0 basechar 0
LayerCount: 2
Fore
SplineSet
65 730 m 1,0,-1
 265 730 l 1,1,-1
 473 330 l 1,2,-1
 475 330 l 1,3,-1
 475 730 l 1,4,-1
 675 730 l 1,5,-1
 675 0 l 1,6,-1
 475 0 l 1,7,-1
 267 400 l 1,8,-1
 265 400 l 1,9,-1
 265 0 l 1,10,-1
 65 0 l 1,11,-1
 65 730 l 1,0,-1
EndSplineSet
EndChar

StartChar: Eng
Encoding: 330 330 104
Width: 740
GlyphClass: 2
Flags: W
AnchorPoint: "Anchor-6" 370 730 basechar 0
AnchorPoint: "Anchor-4" 370 0 basechar 0
LayerCount: 2
Fore
SplineSet
675 730 m 1,0,-1
 675 0 l 2,1,2
 674 -85 674 -85 653 -134.5 c 128,-1,3
 632 -184 632 -184 586.5 -206.5 c 128,-1,4
 541 -229 541 -229 463 -229 c 0,5,6
 397 -229 397 -229 317 -214 c 1,7,-1
 337 -59 l 1,8,9
 381 -70 381 -70 420 -70 c 0,10,11
 451 -70 451 -70 462.5 -55.5 c 128,-1,12
 474 -41 474 -41 475 1 c 1,13,-1
 267 380 l 1,14,-1
 265 380 l 1,15,-1
 265 0 l 1,16,-1
 65 0 l 1,17,-1
 65 730 l 1,18,-1
 265 730 l 1,19,-1
 473 350 l 1,20,-1
 475 350 l 1,21,-1
 475 730 l 1,22,-1
 675 730 l 1,0,-1
EndSplineSet
EndChar

StartChar: O
Encoding: 79 79 107
Width: 814
GlyphClass: 2
Flags: W
AnchorPoint: "Anchor-7" 604 690 basechar 0
AnchorPoint: "Anchor-6" 407 730 basechar 0
AnchorPoint: "Anchor-5" 480 0 basechar 0
AnchorPoint: "Anchor-4" 407 0 basechar 0
LayerCount: 2
Fore
SplineSet
205.5 34.5 m 128,-1,1
 121 79 121 79 76.5 163.5 c 128,-1,2
 32 248 32 248 32 365 c 256,3,4
 32 482 32 482 76.5 566.5 c 128,-1,5
 121 651 121 651 205.5 695.5 c 128,-1,6
 290 740 290 740 407 740 c 256,7,8
 524 740 524 740 608.5 695.5 c 128,-1,9
 693 651 693 651 737.5 566.5 c 128,-1,10
 782 482 782 482 782 365 c 256,11,12
 782 248 782 248 737.5 163.5 c 128,-1,13
 693 79 693 79 608.5 34.5 c 128,-1,14
 524 -10 524 -10 407 -10 c 256,15,0
 290 -10 290 -10 205.5 34.5 c 128,-1,1
577 365 m 256,17,18
 577 570 577 570 407 570 c 256,19,20
 237 570 237 570 237 365 c 256,21,22
 237 160 237 160 407 160 c 256,23,16
 577 160 577 160 577 365 c 256,17,18
EndSplineSet
Substitution2: "Single Substitution lookup 21 subtable" ordmasculine
Substitution2: "'aalt' Access All Alternates in Latin lookup 0 subtable" ordmasculine
EndChar

StartChar: uni1ED0
Encoding: 7888 7888 111
Width: 814
GlyphClass: 2
Flags: W
AnchorPoint: "Anchor-7" 604 690 basechar 0
AnchorPoint: "Anchor-6" 407 730 basechar 0
AnchorPoint: "Anchor-5" 480 0 basechar 0
AnchorPoint: "Anchor-4" 407 0 basechar 0
LayerCount: 2
Fore
SplineSet
406 910 m 1,0,-1
 347 770 l 1,1,-1
 137 770 l 1,2,-1
 257 980 l 1,3,-1
 536 980 l 1,4,-1
 587 1160 l 1,5,-1
 817 1160 l 1,6,-1
 697 950 l 1,7,-1
 574 950 l 1,8,-1
 677 770 l 1,9,-1
 467 770 l 1,10,-1
 408 910 l 1,11,-1
 406 910 l 1,0,-1
608.5 695.5 m 128,-1,13
 693 651 693 651 737.5 566.5 c 128,-1,14
 782 482 782 482 782 365 c 256,15,16
 782 248 782 248 737.5 163.5 c 128,-1,17
 693 79 693 79 608.5 34.5 c 128,-1,18
 524 -10 524 -10 407 -10 c 256,19,20
 290 -10 290 -10 205.5 34.5 c 128,-1,21
 121 79 121 79 76.5 163.5 c 128,-1,22
 32 248 32 248 32 365 c 256,23,24
 32 482 32 482 76.5 566.5 c 128,-1,25
 121 651 121 651 205.5 695.5 c 128,-1,26
 290 740 290 740 407 740 c 256,27,12
 524 740 524 740 608.5 695.5 c 128,-1,13
577 365 m 256,29,30
 577 570 577 570 407 570 c 256,31,32
 237 570 237 570 237 365 c 256,33,34
 237 160 237 160 407 160 c 256,35,28
 577 160 577 160 577 365 c 256,29,30
EndSplineSet
EndChar

StartChar: uni1ED2
Encoding: 7890 7890 113
Width: 814
GlyphClass: 2
Flags: W
AnchorPoint: "Anchor-7" 604 690 basechar 0
AnchorPoint: "Anchor-6" 407 730 basechar 0
AnchorPoint: "Anchor-5" 480 0 basechar 0
AnchorPoint: "Anchor-4" 407 0 basechar 0
LayerCount: 2
Fore
SplineSet
240 950 m 1,0,-1
 117 950 l 1,1,-1
 -3 1160 l 1,2,-1
 227 1160 l 1,3,-1
 278 980 l 1,4,-1
 557 980 l 1,5,-1
 677 770 l 1,6,-1
 467 770 l 1,7,-1
 408 910 l 1,8,-1
 406 910 l 1,9,-1
 347 770 l 1,10,-1
 137 770 l 1,11,-1
 240 950 l 1,0,-1
608.5 695.5 m 128,-1,13
 693 651 693 651 737.5 566.5 c 128,-1,14
 782 482 782 482 782 365 c 256,15,16
 782 248 782 248 737.5 163.5 c 128,-1,17
 693 79 693 79 608.5 34.5 c 128,-1,18
 524 -10 524 -10 407 -10 c 256,19,20
 290 -10 290 -10 205.5 34.5 c 128,-1,21
 121 79 121 79 76.5 163.5 c 128,-1,22
 32 248 32 248 32 365 c 256,23,24
 32 482 32 482 76.5 566.5 c 128,-1,25
 121 651 121 651 205.5 695.5 c 128,-1,26
 290 740 290 740 407 740 c 256,27,12
 524 740 524 740 608.5 695.5 c 128,-1,13
577 365 m 256,29,30
 577 570 577 570 407 570 c 256,31,32
 237 570 237 570 237 365 c 256,33,34
 237 160 237 160 407 160 c 256,35,28
 577 160 577 160 577 365 c 256,29,30
EndSplineSet
EndChar

StartChar: uni1ED4
Encoding: 7892 7892 114
Width: 814
GlyphClass: 2
Flags: W
AnchorPoint: "Anchor-7" 604 690 basechar 0
AnchorPoint: "Anchor-6" 521 1170 basechar 0
AnchorPoint: "Anchor-5" 480 0 basechar 0
AnchorPoint: "Anchor-4" 407 0 basechar 0
LayerCount: 2
Fore
SplineSet
347 770 m 1,0,-1
 137 770 l 1,1,-1
 257 980 l 1,2,-1
 538 980 l 1,3,4
 541 997 541 997 541 1010 c 0,5,6
 541 1028 541 1028 532 1034 c 128,-1,7
 523 1040 523 1040 496 1040 c 0,8,9
 462 1040 462 1040 420.5 1033.5 c 128,-1,10
 379 1027 379 1027 341 1015 c 1,11,-1
 326 1150 l 1,12,13
 368 1159 368 1159 421.5 1164.5 c 128,-1,14
 475 1170 475 1170 521 1170 c 0,15,16
 599 1170 599 1170 640.5 1161.5 c 128,-1,17
 682 1153 682 1153 699 1133 c 128,-1,18
 716 1113 716 1113 716 1075 c 0,19,20
 716 1047 716 1047 709 1012 c 128,-1,21
 702 977 702 977 691 950 c 1,22,-1
 574 950 l 1,23,-1
 677 770 l 1,24,-1
 467 770 l 1,25,-1
 408 910 l 1,26,-1
 406 910 l 1,27,-1
 347 770 l 1,0,-1
608.5 695.5 m 128,-1,29
 693 651 693 651 737.5 566.5 c 128,-1,30
 782 482 782 482 782 365 c 256,31,32
 782 248 782 248 737.5 163.5 c 128,-1,33
 693 79 693 79 608.5 34.5 c 128,-1,34
 524 -10 524 -10 407 -10 c 256,35,36
 290 -10 290 -10 205.5 34.5 c 128,-1,37
 121 79 121 79 76.5 163.5 c 128,-1,38
 32 248 32 248 32 365 c 256,39,40
 32 482 32 482 76.5 566.5 c 128,-1,41
 121 651 121 651 205.5 695.5 c 128,-1,42
 290 740 290 740 407 740 c 256,43,28
 524 740 524 740 608.5 695.5 c 128,-1,29
577 365 m 256,45,46
 577 570 577 570 407 570 c 256,47,48
 237 570 237 570 237 365 c 256,49,50
 237 160 237 160 407 160 c 256,51,44
 577 160 577 160 577 365 c 256,45,46
EndSplineSet
EndChar

StartChar: Ohorn
Encoding: 416 416 123
Width: 844
GlyphClass: 2
Flags: W
AnchorPoint: "Anchor-7" 864 835 basechar 0
AnchorPoint: "Anchor-6" 407 730 basechar 0
AnchorPoint: "Anchor-5" 480 0 basechar 0
AnchorPoint: "Anchor-4" 407 0 basechar 0
LayerCount: 2
Fore
SplineSet
838 579.5 m 128,-1,1
 810 535 810 535 757 521 c 1,2,3
 782 453 782 453 782 365 c 0,4,5
 782 248 782 248 737.5 163.5 c 128,-1,6
 693 79 693 79 608.5 34.5 c 128,-1,7
 524 -10 524 -10 407 -10 c 256,8,9
 290 -10 290 -10 205.5 34.5 c 128,-1,10
 121 79 121 79 76.5 163.5 c 128,-1,11
 32 248 32 248 32 365 c 256,12,13
 32 482 32 482 76.5 566.5 c 128,-1,14
 121 651 121 651 205.5 695.5 c 128,-1,15
 290 740 290 740 407 740 c 0,16,17
 563 740 563 740 659 662 c 1,18,19
 673 667 673 667 681 681 c 128,-1,20
 689 695 689 695 689 715 c 0,21,22
 689 737 689 737 681.5 773.5 c 128,-1,23
 674 810 674 810 664 835 c 1,24,-1
 844 835 l 1,25,26
 866 772 866 772 866 697 c 0,27,0
 866 624 866 624 838 579.5 c 128,-1,1
577 365 m 256,29,30
 577 570 577 570 407 570 c 256,31,32
 237 570 237 570 237 365 c 256,33,34
 237 160 237 160 407 160 c 256,35,28
 577 160 577 160 577 365 c 256,29,30
EndSplineSet
EndChar

StartChar: uni01EA
Encoding: 490 490 132
Width: 814
GlyphClass: 2
Flags: W
AnchorPoint: "Anchor-7" 604 690 basechar 0
AnchorPoint: "Anchor-6" 407 730 basechar 0
AnchorPoint: "Anchor-5" 480 0 basechar 0
AnchorPoint: "Anchor-4" 407 0 basechar 0
LayerCount: 2
Fore
SplineSet
408 -57 m 0,1,2
 408 -71 408 -71 421 -78 c 128,-1,3
 434 -85 434 -85 459 -85 c 0,4,5
 481 -85 481 -85 507.5 -79.5 c 128,-1,6
 534 -74 534 -74 557 -65 c 1,7,-1
 572 -200 l 1,8,9
 518 -220 518 -220 447 -220 c 0,10,11
 344 -220 344 -220 288 -184 c 128,-1,12
 232 -148 232 -148 232 -82 c 0,13,14
 232 -35 232 -35 267 9 c 1,15,16
 154 44 154 44 93 136 c 128,-1,17
 32 228 32 228 32 365 c 0,18,19
 32 482 32 482 76.5 566.5 c 128,-1,20
 121 651 121 651 205.5 695.5 c 128,-1,21
 290 740 290 740 407 740 c 256,22,23
 524 740 524 740 608.5 695.5 c 128,-1,24
 693 651 693 651 737.5 566.5 c 128,-1,25
 782 482 782 482 782 365 c 0,26,27
 782 202 782 202 698 105 c 128,-1,28
 614 8 614 8 462 -7 c 1,29,0
 408 -32 408 -32 408 -57 c 0,1,2
237 365 m 256,31,32
 237 160 237 160 407 160 c 256,33,34
 577 160 577 160 577 365 c 256,35,36
 577 570 577 570 407 570 c 256,37,30
 237 570 237 570 237 365 c 256,31,32
EndSplineSet
EndChar

StartChar: Oslash
Encoding: 216 216 133
Width: 814
GlyphClass: 2
Flags: W
AnchorPoint: "Anchor-7" 604 690 basechar 0
AnchorPoint: "Anchor-6" 407 730 basechar 0
AnchorPoint: "Anchor-5" 480 0 basechar 0
AnchorPoint: "Anchor-4" 407 0 basechar 0
LayerCount: 2
Fore
SplineSet
782 365 m 0,1,2
 782 248 782 248 737.5 163.5 c 128,-1,3
 693 79 693 79 608.5 34.5 c 128,-1,4
 524 -10 524 -10 407 -10 c 0,5,6
 317 -10 317 -10 242 18 c 1,7,-1
 187 -55 l 1,8,-1
 67 35 l 1,9,-1
 118 103 l 1,10,11
 32 201 32 201 32 365 c 0,12,13
 32 482 32 482 76.5 566.5 c 128,-1,14
 121 651 121 651 205.5 695.5 c 128,-1,15
 290 740 290 740 407 740 c 0,16,17
 497 740 497 740 572 712 c 1,18,-1
 627 785 l 1,19,-1
 747 695 l 1,20,-1
 696 627 l 1,21,0
 782 529 782 529 782 365 c 0,1,2
247 277 m 1,23,-1
 462 564 l 1,24,25
 437 570 437 570 407 570 c 0,26,27
 237 570 237 570 237 365 c 0,28,22
 237 313 237 313 247 277 c 1,23,-1
577 365 m 0,30,31
 577 417 577 417 567 453 c 1,32,-1
 352 166 l 1,33,34
 377 160 377 160 407 160 c 0,35,29
 577 160 577 160 577 365 c 0,30,31
EndSplineSet
EndChar

StartChar: OE
Encoding: 338 338 137
Width: 1055
GlyphClass: 2
Flags: W
AnchorPoint: "Anchor-6" 755 730 basechar 0
AnchorPoint: "Anchor-5" 1000 0 basechar 0
AnchorPoint: "Anchor-4" 755 0 basechar 0
LayerCount: 2
Fore
SplineSet
710 570 m 1,0,-1
 710 453 l 1,1,-1
 980 453 l 1,2,-1
 980 298 l 1,3,-1
 710 298 l 1,4,-1
 710 160 l 1,5,-1
 1000 160 l 1,6,-1
 1000 0 l 1,7,-1
 511 0 l 1,8,9
 464 -10 464 -10 407 -10 c 0,10,11
 290 -10 290 -10 205.5 34.5 c 128,-1,12
 121 79 121 79 76.5 163.5 c 128,-1,13
 32 248 32 248 32 365 c 256,14,15
 32 482 32 482 76.5 566.5 c 128,-1,16
 121 651 121 651 205.5 695.5 c 128,-1,17
 290 740 290 740 407 740 c 0,18,19
 464 740 464 740 511 730 c 1,20,-1
 1000 730 l 1,21,-1
 1000 570 l 1,22,-1
 710 570 l 1,0,-1
407 160 m 0,24,25
 469 160 469 160 510 189 c 1,26,-1
 510 541 l 1,27,28
 469 570 469 570 407 570 c 0,29,30
 237 570 237 570 237 365 c 256,31,23
 237 160 237 160 407 160 c 0,24,25
EndSplineSet
EndChar

StartChar: P
Encoding: 80 80 138
Width: 661
Flags: W
LayerCount: 2
Fore
SplineSet
551 667 m 128,-1,1
 635 604 635 604 635 475 c 0,2,3
 635 351 635 351 558 285.5 c 128,-1,4
 481 220 481 220 335 220 c 2,5,-1
 265 220 l 1,6,-1
 265 0 l 1,7,-1
 65 0 l 1,8,-1
 65 730 l 1,9,-1
 295 730 l 2,10,0
 467 730 467 730 551 667 c 128,-1,1
399.5 403 m 128,-1,12
 430 426 430 426 430 475 c 256,13,14
 430 524 430 524 399.5 547 c 128,-1,15
 369 570 369 570 305 570 c 2,16,-1
 265 570 l 1,17,-1
 265 380 l 1,18,-1
 305 380 l 2,19,11
 369 380 369 380 399.5 403 c 128,-1,12
EndSplineSet
EndChar

StartChar: Thorn
Encoding: 222 222 139
Width: 661
Flags: W
LayerCount: 2
Fore
SplineSet
551 567 m 128,-1,1
 635 504 635 504 635 375 c 0,2,3
 635 251 635 251 558 185.5 c 128,-1,4
 481 120 481 120 335 120 c 2,5,-1
 265 120 l 1,6,-1
 265 0 l 1,7,-1
 65 0 l 1,8,-1
 65 730 l 1,9,-1
 265 730 l 1,10,-1
 265 630 l 1,11,-1
 295 630 l 2,12,0
 467 630 467 630 551 567 c 128,-1,1
399.5 303 m 128,-1,14
 430 326 430 326 430 375 c 256,15,16
 430 424 430 424 399.5 447 c 128,-1,17
 369 470 369 470 305 470 c 2,18,-1
 265 470 l 1,19,-1
 265 280 l 1,20,-1
 305 280 l 2,21,13
 369 280 369 280 399.5 303 c 128,-1,14
EndSplineSet
EndChar

StartChar: Q
Encoding: 81 81 140
Width: 817
Flags: W
LayerCount: 2
Fore
SplineSet
797 -40 m 1,1,-1
 637 -150 l 1,2,3
 602 -94 602 -94 571 -64.5 c 128,-1,4
 540 -35 540 -35 502 -22.5 c 128,-1,5
 464 -10 464 -10 407 -10 c 0,6,7
 290 -10 290 -10 206 34.5 c 128,-1,8
 122 79 122 79 77 163.5 c 128,-1,9
 32 248 32 248 32 365 c 256,10,11
 32 482 32 482 77 566.5 c 128,-1,12
 122 651 122 651 206 695.5 c 128,-1,13
 290 740 290 740 407 740 c 0,14,15
 525 740 525 740 609.5 695.5 c 128,-1,16
 694 651 694 651 738 566.5 c 128,-1,17
 782 482 782 482 782 365 c 0,18,19
 783 269 783 269 751 195 c 128,-1,20
 719 121 719 121 657 74 c 1,21,0
 743 30 743 30 797 -40 c 1,1,-1
535 211.5 m 128,-1,23
 578 263 578 263 577 365 c 0,24,25
 579 570 579 570 407 570 c 0,26,27
 239 570 239 570 237 365 c 0,28,29
 239 160 239 160 407 160 c 0,30,22
 492 160 492 160 535 211.5 c 128,-1,23
EndSplineSet
EndChar

StartChar: R
Encoding: 82 82 141
Width: 691
GlyphClass: 2
Flags: W
AnchorPoint: "Anchor-6" 330 730 basechar 0
AnchorPoint: "Anchor-4" 330 0 basechar 0
LayerCount: 2
Fore
SplineSet
267 255 m 1,0,-1
 265 255 l 1,1,-1
 265 0 l 1,2,-1
 65 0 l 1,3,-1
 65 730 l 1,4,-1
 295 730 l 2,5,6
 467 730 467 730 551 672 c 128,-1,7
 635 614 635 614 635 495 c 0,8,9
 635 408 635 408 592.5 351.5 c 128,-1,10
 550 295 550 295 468 272 c 1,11,-1
 665 0 l 1,12,-1
 451 0 l 1,13,-1
 267 255 l 1,0,-1
265 570 m 1,14,-1
 265 400 l 1,15,-1
 305 400 l 2,16,17
 369 400 369 400 399.5 421 c 128,-1,18
 430 442 430 442 430 485 c 256,19,20
 430 528 430 528 399.5 549 c 128,-1,21
 369 570 369 570 305 570 c 2,22,-1
 265 570 l 1,14,-1
EndSplineSet
EndChar

StartChar: S
Encoding: 83 83 147
Width: 638
GlyphClass: 2
Flags: W
AnchorPoint: "Anchor-6" 318 730 basechar 0
AnchorPoint: "Anchor-4" 318 0 basechar 0
LayerCount: 2
Fore
SplineSet
154 6.5 m 128,-1,1
 86 23 86 23 39 54 c 1,2,-1
 99 212 l 1,3,4
 147 185 147 185 201.5 170 c 128,-1,5
 256 155 256 155 304 155 c 0,6,7
 345 155 345 155 367 169 c 128,-1,8
 389 183 389 183 389 210 c 0,9,10
 389 232 389 232 372 245.5 c 128,-1,11
 355 259 355 259 309 275 c 0,12,13
 211 308 211 308 153.5 343.5 c 128,-1,14
 96 379 96 379 70 422.5 c 128,-1,15
 44 466 44 466 44 525 c 0,16,17
 44 629 44 629 118.5 684.5 c 128,-1,18
 193 740 193 740 334 740 c 0,19,20
 401 740 401 740 467 727 c 128,-1,21
 533 714 533 714 581 692 c 1,22,-1
 521 534 l 1,23,24
 431 575 431 575 344 575 c 0,25,26
 254 575 254 575 254 525 c 0,27,28
 254 504 254 504 273 489.5 c 128,-1,29
 292 475 292 475 339 458 c 0,30,31
 436 423 436 423 492 387.5 c 128,-1,32
 548 352 548 352 573.5 309.5 c 128,-1,33
 599 267 599 267 599 210 c 0,34,35
 599 104 599 104 522.5 47 c 128,-1,36
 446 -10 446 -10 304 -10 c 0,37,0
 222 -10 222 -10 154 6.5 c 128,-1,1
EndSplineSet
EndChar

StartChar: Scedilla
Encoding: 350 350 150
Width: 638
GlyphClass: 2
Flags: W
AnchorPoint: "Anchor-6" 318 730 basechar 0
AnchorPoint: "Anchor-4" 318 0 basechar 0
LayerCount: 2
Fore
SplineSet
562 87 m 128,-1,1
 525 37 525 37 454 12 c 1,2,3
 491 -32 491 -32 491 -82 c 0,4,5
 491 -148 491 -148 435 -184 c 128,-1,6
 379 -220 379 -220 276 -220 c 0,7,8
 205 -220 205 -220 151 -200 c 1,9,-1
 166 -65 l 1,10,11
 189 -74 189 -74 215.5 -79.5 c 128,-1,12
 242 -85 242 -85 264 -85 c 0,13,14
 289 -85 289 -85 302 -78 c 128,-1,15
 315 -71 315 -71 315 -57 c 0,16,17
 315 -32 315 -32 264 -9 c 1,18,19
 121 -1 121 -1 39 54 c 1,20,-1
 99 212 l 1,21,22
 147 185 147 185 201.5 170 c 128,-1,23
 256 155 256 155 304 155 c 0,24,25
 345 155 345 155 367 169 c 128,-1,26
 389 183 389 183 389 210 c 0,27,28
 389 232 389 232 372 245.5 c 128,-1,29
 355 259 355 259 309 275 c 0,30,31
 211 308 211 308 153.5 343.5 c 128,-1,32
 96 379 96 379 70 422.5 c 128,-1,33
 44 466 44 466 44 525 c 0,34,35
 44 629 44 629 118.5 684.5 c 128,-1,36
 193 740 193 740 334 740 c 0,37,38
 401 740 401 740 467 727 c 128,-1,39
 533 714 533 714 581 692 c 1,40,-1
 521 534 l 1,41,42
 431 575 431 575 344 575 c 0,43,44
 254 575 254 575 254 525 c 0,45,46
 254 504 254 504 273 489.5 c 128,-1,47
 292 475 292 475 339 458 c 0,48,49
 436 423 436 423 492 387.5 c 128,-1,50
 548 352 548 352 573.5 309.5 c 128,-1,51
 599 267 599 267 599 210 c 0,52,0
 599 137 599 137 562 87 c 128,-1,1
EndSplineSet
Substitution2: "'locl' Localized Forms in Latin lookup 4 subtable" uni0218
Substitution2: "'aalt' Access All Alternates in Latin lookup 0 subtable" uni0218
EndChar

StartChar: uni1E9E
Encoding: 7838 7838 153
Width: 718
Flags: W
LayerCount: 2
Fore
SplineSet
315 15 m 1,1,-1
 340 180 l 1,2,3
 389 160 389 160 425 160 c 0,4,5
 490 160 490 160 490 220 c 0,6,7
 490 244 490 244 478.5 256.5 c 128,-1,8
 467 269 467 269 439.5 274.5 c 128,-1,9
 412 280 412 280 360 280 c 1,10,-1
 360 400 l 1,11,-1
 435 500 l 1,12,13
 435 538 435 538 415.5 554 c 128,-1,14
 396 570 396 570 350 570 c 256,15,16
 304 570 304 570 284.5 554 c 128,-1,17
 265 538 265 538 265 500 c 2,18,-1
 265 0 l 1,19,-1
 65 0 l 1,20,-1
 65 500 l 2,21,22
 65 740 65 740 350 740 c 256,23,24
 635 740 635 740 635 500 c 1,25,-1
 548 397 l 1,26,-1
 548 395 l 1,27,28
 621 381 621 381 658 334 c 128,-1,29
 695 287 695 287 695 210 c 0,30,31
 695 103 695 103 633 46.5 c 128,-1,32
 571 -10 571 -10 455 -10 c 0,33,0
 381 -10 381 -10 315 15 c 1,1,-1
EndSplineSet
EndChar

StartChar: uni018F
Encoding: 399 399 154
Width: 762
Flags: W
LayerCount: 2
Fore
SplineSet
623.5 643 m 128,-1,1
 730 546 730 546 730 365 c 0,2,3
 730 249 730 249 687 164.5 c 128,-1,4
 644 80 644 80 563.5 35 c 128,-1,5
 483 -10 483 -10 373 -10 c 0,6,7
 266 -10 266 -10 188.5 32.5 c 128,-1,8
 111 75 111 75 70.5 156.5 c 128,-1,9
 30 238 30 238 30 351 c 0,10,11
 30 378 30 378 31.5 407.5 c 128,-1,12
 33 437 33 437 35 448 c 1,13,-1
 529 448 l 1,14,15
 525 514 525 514 479 542 c 128,-1,16
 433 570 433 570 333 570 c 0,17,18
 221 570 221 570 116 536 c 1,19,-1
 82 701 l 1,20,21
 128 719 128 719 191.5 729.5 c 128,-1,22
 255 740 255 740 320 740 c 0,23,0
 517 740 517 740 623.5 643 c 128,-1,1
482 191.5 m 128,-1,25
 518 223 518 223 527 290 c 1,26,-1
 233 290 l 1,27,28
 242 223 242 223 278 191.5 c 128,-1,29
 314 160 314 160 380 160 c 256,30,24
 446 160 446 160 482 191.5 c 128,-1,25
EndSplineSet
EndChar

StartChar: T
Encoding: 84 84 155
Width: 649
GlyphClass: 2
Flags: W
AnchorPoint: "Anchor-8" 222 0 basechar 0
AnchorPoint: "Anchor-6" 325 730 basechar 0
AnchorPoint: "Anchor-4" 325 0 basechar 0
LayerCount: 2
Fore
SplineSet
222 560 m 1,0,-1
 26 560 l 1,1,-1
 26 730 l 1,2,-1
 623 730 l 1,3,-1
 623 560 l 1,4,-1
 427 560 l 1,5,-1
 427 0 l 1,6,-1
 222 0 l 1,7,-1
 222 560 l 1,0,-1
EndSplineSet
EndChar

StartChar: Tbar
Encoding: 358 358 156
Width: 701
GlyphClass: 2
Flags: W
AnchorPoint: "Anchor-8" 248 0 basechar 0
AnchorPoint: "Anchor-6" 351 730 basechar 0
AnchorPoint: "Anchor-4" 351 0 basechar 0
LayerCount: 2
Fore
SplineSet
649 560 m 1,0,-1
 453 560 l 1,1,-1
 453 385 l 1,2,-1
 601 385 l 1,3,-1
 601 245 l 1,4,-1
 453 245 l 1,5,-1
 453 0 l 1,6,-1
 248 0 l 1,7,-1
 248 245 l 1,8,-1
 101 245 l 1,9,-1
 101 385 l 1,10,-1
 248 385 l 1,11,-1
 248 560 l 1,12,-1
 52 560 l 1,13,-1
 52 730 l 1,14,-1
 649 730 l 1,15,-1
 649 560 l 1,0,-1
EndSplineSet
EndChar

StartChar: uni0162
Encoding: 354 354 158
Width: 649
GlyphClass: 2
Flags: W
AnchorPoint: "Anchor-8" 222 0 basechar 0
AnchorPoint: "Anchor-6" 325 730 basechar 0
AnchorPoint: "Anchor-4" 325 0 basechar 0
LayerCount: 2
Fore
SplineSet
427 560 m 1,0,-1
 427 20 l 1,1,2
 470 -29 470 -29 470 -82 c 0,3,4
 470 -148 470 -148 414 -184 c 128,-1,5
 358 -220 358 -220 255 -220 c 0,6,7
 184 -220 184 -220 130 -200 c 1,8,-1
 145 -65 l 1,9,10
 168 -74 168 -74 194.5 -79.5 c 128,-1,11
 221 -85 221 -85 243 -85 c 0,12,13
 268 -85 268 -85 281 -78 c 128,-1,14
 294 -71 294 -71 294 -57 c 0,15,16
 294 -28 294 -28 222 0 c 1,17,-1
 222 560 l 1,18,-1
 26 560 l 1,19,-1
 26 730 l 1,20,-1
 623 730 l 1,21,-1
 623 560 l 1,22,-1
 427 560 l 1,0,-1
EndSplineSet
Substitution2: "'locl' Localized Forms in Latin lookup 4 subtable" uni021A
Substitution2: "'aalt' Access All Alternates in Latin lookup 0 subtable" uni021A
EndChar

StartChar: U
Encoding: 85 85 160
Width: 718
GlyphClass: 2
Flags: W
AnchorPoint: "Anchor-7" 629 690 basechar 0
AnchorPoint: "Anchor-6" 359 730 basechar 0
AnchorPoint: "Anchor-5" 492 10 basechar 0
AnchorPoint: "Anchor-4" 359 0 basechar 0
LayerCount: 2
Fore
SplineSet
136 62 m 128,-1,1
 59 134 59 134 59 270 c 2,2,-1
 59 730 l 1,3,-1
 259 730 l 1,4,-1
 259 295 l 2,5,6
 259 219 259 219 281 189.5 c 128,-1,7
 303 160 303 160 359 160 c 256,8,9
 415 160 415 160 437 189.5 c 128,-1,10
 459 219 459 219 459 295 c 2,11,-1
 459 730 l 1,12,-1
 659 730 l 1,13,-1
 659 270 l 2,14,15
 659 134 659 134 582 62 c 128,-1,16
 505 -10 505 -10 359 -10 c 256,17,0
 213 -10 213 -10 136 62 c 128,-1,1
EndSplineSet
EndChar

StartChar: Uhorn
Encoding: 431 431 169
Width: 878
GlyphClass: 2
Flags: W
AnchorPoint: "Anchor-7" 889 835 basechar 0
AnchorPoint: "Anchor-6" 359 730 basechar 0
AnchorPoint: "Anchor-5" 492 10 basechar 0
AnchorPoint: "Anchor-4" 359 0 basechar 0
LayerCount: 2
Fore
SplineSet
891 697 m 0,1,2
 891 608 891 608 850.5 561.5 c 128,-1,3
 810 515 810 515 734 515 c 0,4,5
 698 515 698 515 659 527 c 1,6,-1
 659 270 l 2,7,8
 659 134 659 134 582 62 c 128,-1,9
 505 -10 505 -10 359 -10 c 256,10,11
 213 -10 213 -10 136 62 c 128,-1,12
 59 134 59 134 59 270 c 2,13,-1
 59 730 l 1,14,-1
 259 730 l 1,15,-1
 259 295 l 2,16,17
 259 219 259 219 281 189.5 c 128,-1,18
 303 160 303 160 359 160 c 256,19,20
 415 160 415 160 437 189.5 c 128,-1,21
 459 219 459 219 459 295 c 2,22,-1
 459 730 l 1,23,-1
 659 730 l 1,24,-1
 659 661 l 2,25,26
 662 660 662 660 669 660 c 0,27,28
 690 660 690 660 702 674.5 c 128,-1,29
 714 689 714 689 714 715 c 0,30,31
 714 737 714 737 706.5 773.5 c 128,-1,32
 699 810 699 810 689 835 c 1,33,-1
 869 835 l 1,34,0
 891 772 891 772 891 697 c 0,1,2
EndSplineSet
EndChar

StartChar: Uogonek
Encoding: 370 370 178
Width: 718
GlyphClass: 2
Flags: W
AnchorPoint: "Anchor-7" 629 690 basechar 0
AnchorPoint: "Anchor-6" 359 730 basechar 0
AnchorPoint: "Anchor-5" 492 10 basechar 0
AnchorPoint: "Anchor-4" 359 0 basechar 0
LayerCount: 2
Fore
SplineSet
659 730 m 1,0,-1
 659 270 l 2,1,2
 659 167 659 167 614.5 100 c 128,-1,3
 570 33 570 33 484 7 c 1,4,5
 420 -20 420 -20 420 -47 c 0,6,7
 420 -61 420 -61 433 -68 c 128,-1,8
 446 -75 446 -75 471 -75 c 0,9,10
 493 -75 493 -75 519.5 -69.5 c 128,-1,11
 546 -64 546 -64 569 -55 c 1,12,-1
 584 -190 l 1,13,14
 530 -210 530 -210 459 -210 c 0,15,16
 356 -210 356 -210 300 -174 c 128,-1,17
 244 -138 244 -138 244 -72 c 0,18,19
 244 -34 244 -34 264 -1 c 1,20,21
 163 20 163 20 111 89 c 128,-1,22
 59 158 59 158 59 270 c 2,23,-1
 59 730 l 1,24,-1
 259 730 l 1,25,-1
 259 295 l 2,26,27
 259 219 259 219 281 189.5 c 128,-1,28
 303 160 303 160 359 160 c 256,29,30
 415 160 415 160 437 189.5 c 128,-1,31
 459 219 459 219 459 295 c 2,32,-1
 459 730 l 1,33,-1
 659 730 l 1,0,-1
EndSplineSet
EndChar

StartChar: Uring
Encoding: 366 366 179
Width: 718
GlyphClass: 2
Flags: W
AnchorPoint: "Anchor-7" 629 690 basechar 0
AnchorPoint: "Anchor-6" 359 930 basechar 0
AnchorPoint: "Anchor-5" 492 10 basechar 0
AnchorPoint: "Anchor-4" 359 0 basechar 0
LayerCount: 2
Fore
SplineSet
659 730 m 1,0,-1
 659 270 l 2,1,2
 659 134 659 134 582 62 c 128,-1,3
 505 -10 505 -10 359 -10 c 256,4,5
 213 -10 213 -10 136 62 c 128,-1,6
 59 134 59 134 59 270 c 2,7,-1
 59 730 l 1,8,-1
 234 730 l 1,9,10
 213 753 213 753 201 782.5 c 128,-1,11
 189 812 189 812 189 845 c 0,12,13
 189 891 189 891 212 930 c 128,-1,14
 235 969 235 969 274 992 c 128,-1,15
 313 1015 313 1015 359 1015 c 256,16,17
 405 1015 405 1015 444 992 c 128,-1,18
 483 969 483 969 506 930 c 128,-1,19
 529 891 529 891 529 845 c 0,20,21
 529 812 529 812 517 782.5 c 128,-1,22
 505 753 505 753 484 730 c 1,23,-1
 659 730 l 1,0,-1
320 884 m 128,-1,25
 304 868 304 868 304 845 c 256,26,27
 304 822 304 822 320 806 c 128,-1,28
 336 790 336 790 359 790 c 256,29,30
 382 790 382 790 398 806 c 128,-1,31
 414 822 414 822 414 845 c 256,32,33
 414 868 414 868 398 884 c 128,-1,34
 382 900 382 900 359 900 c 256,35,24
 336 900 336 900 320 884 c 128,-1,25
437 189.5 m 128,-1,37
 459 219 459 219 459 295 c 2,38,-1
 459 707 l 1,39,40
 414 675 414 675 359 675 c 256,41,42
 304 675 304 675 259 707 c 1,43,-1
 259 295 l 2,44,45
 259 219 259 219 281 189.5 c 128,-1,46
 303 160 303 160 359 160 c 256,47,36
 415 160 415 160 437 189.5 c 128,-1,37
EndSplineSet
EndChar

StartChar: V
Encoding: 86 86 181
Width: 704
Flags: W
LayerCount: 2
Fore
SplineSet
7 730 m 1,0,-1
 227 730 l 1,1,-1
 351 200 l 1,2,-1
 353 200 l 1,3,-1
 477 730 l 1,4,-1
 697 730 l 1,5,-1
 482 0 l 1,6,-1
 222 0 l 1,7,-1
 7 730 l 1,0,-1
EndSplineSet
EndChar

StartChar: W
Encoding: 87 87 182
Width: 962
GlyphClass: 2
Flags: W
AnchorPoint: "Anchor-6" 481 730 basechar 0
AnchorPoint: "Anchor-4" 481 0 basechar 0
LayerCount: 2
Fore
SplineSet
477 530 m 1,0,-1
 475 530 l 1,1,-1
 401 0 l 1,2,-1
 171 0 l 1,3,-1
 16 730 l 1,4,-1
 218 730 l 1,5,-1
 292 200 l 1,6,-1
 294 200 l 1,7,-1
 358 730 l 1,8,-1
 598 730 l 1,9,-1
 662 200 l 1,10,-1
 664 200 l 1,11,-1
 738 730 l 1,12,-1
 936 730 l 1,13,-1
 781 0 l 1,14,-1
 551 0 l 1,15,-1
 477 530 l 1,0,-1
EndSplineSet
EndChar

StartChar: X
Encoding: 88 88 187
Width: 698
Flags: W
LayerCount: 2
Fore
SplineSet
199 365 m 1,0,-1
 29 730 l 1,1,-1
 254 730 l 1,2,-1
 348 475 l 1,3,-1
 350 475 l 1,4,-1
 444 730 l 1,5,-1
 669 730 l 1,6,-1
 499 365 l 1,7,-1
 669 0 l 1,8,-1
 444 0 l 1,9,-1
 350 255 l 1,10,-1
 348 255 l 1,11,-1
 254 0 l 1,12,-1
 29 0 l 1,13,-1
 199 365 l 1,0,-1
EndSplineSet
EndChar

StartChar: Y
Encoding: 89 89 188
Width: 688
GlyphClass: 2
Flags: W
AnchorPoint: "Anchor-6" 344 730 basechar 0
AnchorPoint: "Anchor-4" 344 0 basechar 0
LayerCount: 2
Fore
SplineSet
239 270 m 1,0,-1
 4 730 l 1,1,-1
 224 730 l 1,2,-1
 343 440 l 1,3,-1
 345 440 l 1,4,-1
 464 730 l 1,5,-1
 684 730 l 1,6,-1
 449 270 l 1,7,-1
 449 0 l 1,8,-1
 239 0 l 1,9,-1
 239 270 l 1,0,-1
EndSplineSet
EndChar

StartChar: Z
Encoding: 90 90 197
Width: 644
GlyphClass: 2
Flags: W
AnchorPoint: "Anchor-6" 322 730 basechar 0
AnchorPoint: "Anchor-4" 322 0 basechar 0
LayerCount: 2
Fore
SplineSet
52 165 m 1,0,-1
 357 563 l 1,1,-1
 357 565 l 1,2,-1
 52 565 l 1,3,-1
 52 730 l 1,4,-1
 592 730 l 1,5,-1
 592 565 l 1,6,-1
 287 167 l 1,7,-1
 287 165 l 1,8,-1
 592 165 l 1,9,-1
 592 0 l 1,10,-1
 52 0 l 1,11,-1
 52 165 l 1,0,-1
EndSplineSet
EndChar

StartChar: a
Encoding: 97 97 201
Width: 582
GlyphClass: 2
Flags: W
AnchorPoint: "Anchor-6" 280 520 basechar 0
AnchorPoint: "Anchor-5" 529 0 basechar 0
AnchorPoint: "Anchor-4" 280 0 basechar 0
LayerCount: 2
Fore
SplineSet
473 481 m 128,-1,1
 529 432 529 432 529 320 c 2,2,-1
 529 0 l 1,3,-1
 343 0 l 1,4,-1
 341 60 l 1,5,-1
 339 60 l 1,6,7
 280 -10 280 -10 189 -10 c 0,8,9
 116 -10 116 -10 70 34.5 c 128,-1,10
 24 79 24 79 24 150 c 0,11,12
 24 236 24 236 98 283 c 128,-1,13
 172 330 172 330 309 330 c 2,14,-1
 333 330 l 1,15,16
 333 367 333 367 321.5 378.5 c 128,-1,17
 310 390 310 390 273 390 c 0,18,19
 228 390 228 390 178 378.5 c 128,-1,20
 128 367 128 367 80 346 c 1,21,-1
 40 481 l 1,22,23
 94 505 94 505 158.5 517.5 c 128,-1,24
 223 530 223 530 289 530 c 0,25,0
 417 530 417 530 473 481 c 128,-1,1
311.5 144 m 128,-1,27
 333 163 333 163 333 195 c 2,28,-1
 333 225 l 1,29,-1
 309 225 l 2,30,31
 252 225 252 225 226 212 c 128,-1,32
 200 199 200 199 200 170 c 0,33,34
 200 148 200 148 214 136.5 c 128,-1,35
 228 125 228 125 255 125 c 0,36,26
 290 125 290 125 311.5 144 c 128,-1,27
EndSplineSet
Substitution2: "Single Substitution lookup 21 subtable" ordfeminine
Substitution2: "'aalt' Access All Alternates in Latin lookup 0 subtable" ordfeminine
EndChar

StartChar: uni1EAF
Encoding: 7855 7855 204
Width: 582
GlyphClass: 2
Flags: W
AnchorPoint: "Anchor-6" 280 520 basechar 0
AnchorPoint: "Anchor-5" 529 0 basechar 0
AnchorPoint: "Anchor-4" 280 0 basechar 0
LayerCount: 2
Fore
SplineSet
151 578.5 m 128,-1,1
 94 607 94 607 62 657 c 128,-1,2
 30 707 30 707 30 770 c 1,3,-1
 169 770 l 1,4,-1
 226 970 l 1,5,-1
 456 970 l 1,6,-1
 336 760 l 1,7,-1
 201 760 l 1,8,9
 208 719 208 719 227 699.5 c 128,-1,10
 246 680 246 680 280 680 c 0,11,12
 315 680 315 680 334.5 702 c 128,-1,13
 354 724 354 724 360 770 c 1,14,-1
 530 770 l 1,15,16
 530 707 530 707 498 657 c 128,-1,17
 466 607 466 607 409 578.5 c 128,-1,18
 352 550 352 550 280 550 c 256,19,0
 208 550 208 550 151 578.5 c 128,-1,1
473 481 m 128,-1,21
 529 432 529 432 529 320 c 2,22,-1
 529 0 l 1,23,-1
 343 0 l 1,24,-1
 341 60 l 1,25,-1
 339 60 l 1,26,27
 280 -10 280 -10 189 -10 c 0,28,29
 116 -10 116 -10 70 34.5 c 128,-1,30
 24 79 24 79 24 150 c 0,31,32
 24 236 24 236 98 283 c 128,-1,33
 172 330 172 330 309 330 c 2,34,-1
 333 330 l 1,35,36
 333 367 333 367 321.5 378.5 c 128,-1,37
 310 390 310 390 273 390 c 0,38,39
 228 390 228 390 178 378.5 c 128,-1,40
 128 367 128 367 80 346 c 1,41,-1
 40 481 l 1,42,43
 94 505 94 505 158.5 517.5 c 128,-1,44
 223 530 223 530 289 530 c 0,45,20
 417 530 417 530 473 481 c 128,-1,21
311.5 144 m 128,-1,47
 333 163 333 163 333 195 c 2,48,-1
 333 225 l 1,49,-1
 309 225 l 2,50,51
 252 225 252 225 226 212 c 128,-1,52
 200 199 200 199 200 170 c 0,53,54
 200 148 200 148 214 136.5 c 128,-1,55
 228 125 228 125 255 125 c 0,56,46
 290 125 290 125 311.5 144 c 128,-1,47
EndSplineSet
EndChar

StartChar: uni1EB1
Encoding: 7857 7857 206
Width: 582
GlyphClass: 2
Flags: W
AnchorPoint: "Anchor-6" 280 520 basechar 0
AnchorPoint: "Anchor-5" 529 0 basechar 0
AnchorPoint: "Anchor-4" 280 0 basechar 0
LayerCount: 2
Fore
SplineSet
332.5 699.5 m 128,-1,1
 352 719 352 719 359 760 c 1,2,-1
 224 760 l 1,3,-1
 104 970 l 1,4,-1
 334 970 l 1,5,-1
 391 770 l 1,6,-1
 530 770 l 1,7,8
 530 707 530 707 498 657 c 128,-1,9
 466 607 466 607 409 578.5 c 128,-1,10
 352 550 352 550 280 550 c 256,11,12
 208 550 208 550 151 578.5 c 128,-1,13
 94 607 94 607 62 657 c 128,-1,14
 30 707 30 707 30 770 c 1,15,-1
 200 770 l 1,16,17
 205 724 205 724 224.5 702 c 128,-1,18
 244 680 244 680 280 680 c 0,19,0
 313 680 313 680 332.5 699.5 c 128,-1,1
473 481 m 128,-1,21
 529 432 529 432 529 320 c 2,22,-1
 529 0 l 1,23,-1
 343 0 l 1,24,-1
 341 60 l 1,25,-1
 339 60 l 1,26,27
 280 -10 280 -10 189 -10 c 0,28,29
 116 -10 116 -10 70 34.5 c 128,-1,30
 24 79 24 79 24 150 c 0,31,32
 24 236 24 236 98 283 c 128,-1,33
 172 330 172 330 309 330 c 2,34,-1
 333 330 l 1,35,36
 333 367 333 367 321.5 378.5 c 128,-1,37
 310 390 310 390 273 390 c 0,38,39
 228 390 228 390 178 378.5 c 128,-1,40
 128 367 128 367 80 346 c 1,41,-1
 40 481 l 1,42,43
 94 505 94 505 158.5 517.5 c 128,-1,44
 223 530 223 530 289 530 c 0,45,20
 417 530 417 530 473 481 c 128,-1,21
311.5 144 m 128,-1,47
 333 163 333 163 333 195 c 2,48,-1
 333 225 l 1,49,-1
 309 225 l 2,50,51
 252 225 252 225 226 212 c 128,-1,52
 200 199 200 199 200 170 c 0,53,54
 200 148 200 148 214 136.5 c 128,-1,55
 228 125 228 125 255 125 c 0,56,46
 290 125 290 125 311.5 144 c 128,-1,47
EndSplineSet
EndChar

StartChar: uni1EB3
Encoding: 7859 7859 207
Width: 582
GlyphClass: 2
Flags: W
AnchorPoint: "Anchor-6" 280 980 basechar 0
AnchorPoint: "Anchor-5" 529 0 basechar 0
AnchorPoint: "Anchor-4" 280 0 basechar 0
LayerCount: 2
Fore
SplineSet
332.5 699.5 m 128,-1,1
 352 719 352 719 359 760 c 1,2,-1
 290 760 l 1,3,4
 300 797 300 797 300 820 c 0,5,6
 300 838 300 838 291 844 c 128,-1,7
 282 850 282 850 255 850 c 0,8,9
 221 850 221 850 179.5 843.5 c 128,-1,10
 138 837 138 837 100 825 c 1,11,-1
 85 960 l 1,12,13
 127 969 127 969 180.5 974.5 c 128,-1,14
 234 980 234 980 280 980 c 0,15,16
 358 980 358 980 399.5 971.5 c 128,-1,17
 441 963 441 963 458 943 c 128,-1,18
 475 923 475 923 475 885 c 0,19,20
 475 859 475 859 469.5 827.5 c 128,-1,21
 464 796 464 796 454 770 c 1,22,-1
 530 770 l 1,23,24
 530 707 530 707 498 657 c 128,-1,25
 466 607 466 607 409 578.5 c 128,-1,26
 352 550 352 550 280 550 c 256,27,28
 208 550 208 550 151 578.5 c 128,-1,29
 94 607 94 607 62 657 c 128,-1,30
 30 707 30 707 30 770 c 1,31,-1
 200 770 l 1,32,33
 205 724 205 724 224.5 702 c 128,-1,34
 244 680 244 680 280 680 c 0,35,0
 313 680 313 680 332.5 699.5 c 128,-1,1
473 481 m 128,-1,37
 529 432 529 432 529 320 c 2,38,-1
 529 0 l 1,39,-1
 343 0 l 1,40,-1
 341 60 l 1,41,-1
 339 60 l 1,42,43
 280 -10 280 -10 189 -10 c 0,44,45
 116 -10 116 -10 70 34.5 c 128,-1,46
 24 79 24 79 24 150 c 0,47,48
 24 236 24 236 98 283 c 128,-1,49
 172 330 172 330 309 330 c 2,50,-1
 333 330 l 1,51,52
 333 367 333 367 321.5 378.5 c 128,-1,53
 310 390 310 390 273 390 c 0,54,55
 228 390 228 390 178 378.5 c 128,-1,56
 128 367 128 367 80 346 c 1,57,-1
 40 481 l 1,58,59
 94 505 94 505 158.5 517.5 c 128,-1,60
 223 530 223 530 289 530 c 0,61,36
 417 530 417 530 473 481 c 128,-1,37
311.5 144 m 128,-1,63
 333 163 333 163 333 195 c 2,64,-1
 333 225 l 1,65,-1
 309 225 l 2,66,67
 252 225 252 225 226 212 c 128,-1,68
 200 199 200 199 200 170 c 0,69,70
 200 148 200 148 214 136.5 c 128,-1,71
 228 125 228 125 255 125 c 0,72,62
 290 125 290 125 311.5 144 c 128,-1,63
EndSplineSet
EndChar

StartChar: uni1EA5
Encoding: 7845 7845 210
Width: 582
GlyphClass: 2
Flags: W
AnchorPoint: "Anchor-6" 280 520 basechar 0
AnchorPoint: "Anchor-5" 529 0 basechar 0
AnchorPoint: "Anchor-4" 280 0 basechar 0
LayerCount: 2
Fore
SplineSet
690 950 m 1,0,-1
 570 740 l 1,1,-1
 447 740 l 1,2,-1
 550 560 l 1,3,-1
 340 560 l 1,4,-1
 281 700 l 1,5,-1
 279 700 l 1,6,-1
 220 560 l 1,7,-1
 10 560 l 1,8,-1
 130 770 l 1,9,-1
 409 770 l 1,10,-1
 460 950 l 1,11,-1
 690 950 l 1,0,-1
473 481 m 128,-1,13
 529 432 529 432 529 320 c 2,14,-1
 529 0 l 1,15,-1
 343 0 l 1,16,-1
 341 60 l 1,17,-1
 339 60 l 1,18,19
 280 -10 280 -10 189 -10 c 0,20,21
 116 -10 116 -10 70 34.5 c 128,-1,22
 24 79 24 79 24 150 c 0,23,24
 24 236 24 236 98 283 c 128,-1,25
 172 330 172 330 309 330 c 2,26,-1
 333 330 l 1,27,28
 333 367 333 367 321.5 378.5 c 128,-1,29
 310 390 310 390 273 390 c 0,30,31
 228 390 228 390 178 378.5 c 128,-1,32
 128 367 128 367 80 346 c 1,33,-1
 40 481 l 1,34,35
 94 505 94 505 158.5 517.5 c 128,-1,36
 223 530 223 530 289 530 c 0,37,12
 417 530 417 530 473 481 c 128,-1,13
311.5 144 m 128,-1,39
 333 163 333 163 333 195 c 2,40,-1
 333 225 l 1,41,-1
 309 225 l 2,42,43
 252 225 252 225 226 212 c 128,-1,44
 200 199 200 199 200 170 c 0,45,46
 200 148 200 148 214 136.5 c 128,-1,47
 228 125 228 125 255 125 c 0,48,38
 290 125 290 125 311.5 144 c 128,-1,39
EndSplineSet
EndChar

StartChar: uni1EA7
Encoding: 7847 7847 212
Width: 582
GlyphClass: 2
Flags: W
AnchorPoint: "Anchor-6" 280 520 basechar 0
AnchorPoint: "Anchor-5" 529 0 basechar 0
AnchorPoint: "Anchor-4" 280 0 basechar 0
LayerCount: 2
Fore
SplineSet
220 560 m 1,0,-1
 10 560 l 1,1,-1
 113 740 l 1,2,-1
 -10 740 l 1,3,-1
 -130 950 l 1,4,-1
 100 950 l 1,5,-1
 151 770 l 1,6,-1
 430 770 l 1,7,-1
 550 560 l 1,8,-1
 340 560 l 1,9,-1
 281 700 l 1,10,-1
 279 700 l 1,11,-1
 220 560 l 1,0,-1
473 481 m 128,-1,13
 529 432 529 432 529 320 c 2,14,-1
 529 0 l 1,15,-1
 343 0 l 1,16,-1
 341 60 l 1,17,-1
 339 60 l 1,18,19
 280 -10 280 -10 189 -10 c 0,20,21
 116 -10 116 -10 70 34.5 c 128,-1,22
 24 79 24 79 24 150 c 0,23,24
 24 236 24 236 98 283 c 128,-1,25
 172 330 172 330 309 330 c 2,26,-1
 333 330 l 1,27,28
 333 367 333 367 321.5 378.5 c 128,-1,29
 310 390 310 390 273 390 c 0,30,31
 228 390 228 390 178 378.5 c 128,-1,32
 128 367 128 367 80 346 c 1,33,-1
 40 481 l 1,34,35
 94 505 94 505 158.5 517.5 c 128,-1,36
 223 530 223 530 289 530 c 0,37,12
 417 530 417 530 473 481 c 128,-1,13
311.5 144 m 128,-1,39
 333 163 333 163 333 195 c 2,40,-1
 333 225 l 1,41,-1
 309 225 l 2,42,43
 252 225 252 225 226 212 c 128,-1,44
 200 199 200 199 200 170 c 0,45,46
 200 148 200 148 214 136.5 c 128,-1,47
 228 125 228 125 255 125 c 0,48,38
 290 125 290 125 311.5 144 c 128,-1,39
EndSplineSet
EndChar

StartChar: uni1EA9
Encoding: 7849 7849 213
Width: 582
GlyphClass: 2
Flags: W
AnchorPoint: "Anchor-6" 394 960 basechar 0
AnchorPoint: "Anchor-5" 529 0 basechar 0
AnchorPoint: "Anchor-4" 280 0 basechar 0
LayerCount: 2
Fore
SplineSet
582 802 m 128,-1,1
 575 767 575 767 564 740 c 1,2,-1
 447 740 l 1,3,-1
 550 560 l 1,4,-1
 340 560 l 1,5,-1
 281 700 l 1,6,-1
 279 700 l 1,7,-1
 220 560 l 1,8,-1
 10 560 l 1,9,-1
 130 770 l 1,10,-1
 411 770 l 1,11,12
 414 787 414 787 414 800 c 0,13,14
 414 818 414 818 405 824 c 128,-1,15
 396 830 396 830 369 830 c 0,16,17
 335 830 335 830 293.5 823.5 c 128,-1,18
 252 817 252 817 214 805 c 1,19,-1
 199 940 l 1,20,21
 241 949 241 949 294.5 954.5 c 128,-1,22
 348 960 348 960 394 960 c 0,23,24
 472 960 472 960 513.5 951.5 c 128,-1,25
 555 943 555 943 572 923 c 128,-1,26
 589 903 589 903 589 865 c 0,27,0
 589 837 589 837 582 802 c 128,-1,1
473 481 m 128,-1,29
 529 432 529 432 529 320 c 2,30,-1
 529 0 l 1,31,-1
 343 0 l 1,32,-1
 341 60 l 1,33,-1
 339 60 l 1,34,35
 280 -10 280 -10 189 -10 c 0,36,37
 116 -10 116 -10 70 34.5 c 128,-1,38
 24 79 24 79 24 150 c 0,39,40
 24 236 24 236 98 283 c 128,-1,41
 172 330 172 330 309 330 c 2,42,-1
 333 330 l 1,43,44
 333 367 333 367 321.5 378.5 c 128,-1,45
 310 390 310 390 273 390 c 0,46,47
 228 390 228 390 178 378.5 c 128,-1,48
 128 367 128 367 80 346 c 1,49,-1
 40 481 l 1,50,51
 94 505 94 505 158.5 517.5 c 128,-1,52
 223 530 223 530 289 530 c 0,53,28
 417 530 417 530 473 481 c 128,-1,29
311.5 144 m 128,-1,55
 333 163 333 163 333 195 c 2,56,-1
 333 225 l 1,57,-1
 309 225 l 2,58,59
 252 225 252 225 226 212 c 128,-1,60
 200 199 200 199 200 170 c 0,61,62
 200 148 200 148 214 136.5 c 128,-1,63
 228 125 228 125 255 125 c 0,64,54
 290 125 290 125 311.5 144 c 128,-1,55
EndSplineSet
EndChar

StartChar: aogonek
Encoding: 261 261 222
Width: 582
GlyphClass: 2
Flags: W
AnchorPoint: "Anchor-6" 280 520 basechar 0
AnchorPoint: "Anchor-5" 529 0 basechar 0
AnchorPoint: "Anchor-4" 280 0 basechar 0
LayerCount: 2
Fore
SplineSet
621 -200 m 1,0,1
 567 -220 567 -220 496 -220 c 0,2,3
 393 -220 393 -220 337 -184 c 128,-1,4
 281 -148 281 -148 281 -82 c 0,5,6
 281 -50 281 -50 295.5 -21.5 c 128,-1,7
 310 7 310 7 342 38 c 1,8,-1
 341 60 l 1,9,-1
 339 60 l 1,10,11
 280 -10 280 -10 189 -10 c 0,12,13
 116 -10 116 -10 70 34.5 c 128,-1,14
 24 79 24 79 24 150 c 0,15,16
 24 236 24 236 98 283 c 128,-1,17
 172 330 172 330 309 330 c 2,18,-1
 333 330 l 1,19,20
 333 367 333 367 321.5 378.5 c 128,-1,21
 310 390 310 390 273 390 c 0,22,23
 228 390 228 390 178 378.5 c 128,-1,24
 128 367 128 367 80 346 c 1,25,-1
 40 481 l 1,26,27
 94 505 94 505 158.5 517.5 c 128,-1,28
 223 530 223 530 289 530 c 0,29,30
 417 530 417 530 473 481 c 128,-1,31
 529 432 529 432 529 320 c 2,32,-1
 529 0 l 1,33,34
 457 -28 457 -28 457 -57 c 0,35,36
 457 -71 457 -71 470 -78 c 128,-1,37
 483 -85 483 -85 508 -85 c 0,38,39
 530 -85 530 -85 556.5 -79.5 c 128,-1,40
 583 -74 583 -74 606 -65 c 1,41,-1
 621 -200 l 1,0,1
311.5 144 m 128,-1,43
 333 163 333 163 333 195 c 2,44,-1
 333 225 l 1,45,-1
 309 225 l 2,46,47
 252 225 252 225 226 212 c 128,-1,48
 200 199 200 199 200 170 c 0,49,50
 200 148 200 148 214 136.5 c 128,-1,51
 228 125 228 125 255 125 c 0,52,42
 290 125 290 125 311.5 144 c 128,-1,43
EndSplineSet
EndChar

StartChar: aring
Encoding: 229 229 223
Width: 582
GlyphClass: 2
Flags: W
AnchorPoint: "Anchor-6" 280 750 basechar 0
AnchorPoint: "Anchor-5" 529 0 basechar 0
AnchorPoint: "Anchor-4" 280 0 basechar 0
LayerCount: 2
Fore
SplineSet
492.5 460.5 m 128,-1,1
 529 412 529 412 529 320 c 2,2,-1
 529 0 l 1,3,-1
 343 0 l 1,4,-1
 341 60 l 1,5,-1
 339 60 l 1,6,7
 280 -10 280 -10 189 -10 c 0,8,9
 116 -10 116 -10 70 34.5 c 128,-1,10
 24 79 24 79 24 150 c 0,11,12
 24 236 24 236 98 283 c 128,-1,13
 172 330 172 330 309 330 c 2,14,-1
 333 330 l 1,15,16
 333 367 333 367 321.5 378.5 c 128,-1,17
 310 390 310 390 273 390 c 0,18,19
 228 390 228 390 178 378.5 c 128,-1,20
 128 367 128 367 80 346 c 1,21,-1
 40 481 l 1,22,23
 103 509 103 509 187 522 c 1,24,25
 152 546 152 546 131 583.5 c 128,-1,26
 110 621 110 621 110 665 c 0,27,28
 110 711 110 711 133 750 c 128,-1,29
 156 789 156 789 195 812 c 128,-1,30
 234 835 234 835 280 835 c 256,31,32
 326 835 326 835 365 812 c 128,-1,33
 404 789 404 789 427 750 c 128,-1,34
 450 711 450 711 450 665 c 0,35,36
 450 621 450 621 429.5 584 c 128,-1,37
 409 547 409 547 374 524 c 1,38,0
 456 509 456 509 492.5 460.5 c 128,-1,1
241 704 m 128,-1,40
 225 688 225 688 225 665 c 256,41,42
 225 642 225 642 241 626 c 128,-1,43
 257 610 257 610 280 610 c 256,44,45
 303 610 303 610 319 626 c 128,-1,46
 335 642 335 642 335 665 c 256,47,48
 335 688 335 688 319 704 c 128,-1,49
 303 720 303 720 280 720 c 256,50,39
 257 720 257 720 241 704 c 128,-1,40
311.5 144 m 128,-1,52
 333 163 333 163 333 195 c 2,53,-1
 333 225 l 1,54,-1
 309 225 l 2,55,56
 252 225 252 225 226 212 c 128,-1,57
 200 199 200 199 200 170 c 0,58,59
 200 148 200 148 214 136.5 c 128,-1,60
 228 125 228 125 255 125 c 0,61,51
 290 125 290 125 311.5 144 c 128,-1,52
EndSplineSet
EndChar

StartChar: aringacute
Encoding: 507 507 224
Width: 582
GlyphClass: 2
Flags: W
AnchorPoint: "Anchor-6" 280 750 basechar 0
AnchorPoint: "Anchor-5" 529 0 basechar 0
AnchorPoint: "Anchor-4" 280 0 basechar 0
LayerCount: 2
Fore
SplineSet
492.5 460.5 m 128,-1,1
 529 412 529 412 529 320 c 2,2,-1
 529 0 l 1,3,-1
 343 0 l 1,4,-1
 341 60 l 1,5,-1
 339 60 l 1,6,7
 280 -10 280 -10 189 -10 c 0,8,9
 116 -10 116 -10 70 34.5 c 128,-1,10
 24 79 24 79 24 150 c 0,11,12
 24 236 24 236 98 283 c 128,-1,13
 172 330 172 330 309 330 c 2,14,-1
 333 330 l 1,15,16
 333 367 333 367 321.5 378.5 c 128,-1,17
 310 390 310 390 273 390 c 0,18,19
 228 390 228 390 178 378.5 c 128,-1,20
 128 367 128 367 80 346 c 1,21,-1
 40 481 l 1,22,23
 103 509 103 509 187 522 c 1,24,25
 152 546 152 546 131 583.5 c 128,-1,26
 110 621 110 621 110 665 c 0,27,28
 110 702 110 702 125 734.5 c 128,-1,29
 140 767 140 767 166 792 c 1,30,-1
 226 1000 l 1,31,-1
 456 1000 l 1,32,-1
 352 819 l 1,33,34
 396 798 396 798 423 756.5 c 128,-1,35
 450 715 450 715 450 665 c 0,36,37
 450 621 450 621 429.5 584 c 128,-1,38
 409 547 409 547 374 524 c 1,39,0
 456 509 456 509 492.5 460.5 c 128,-1,1
241 704 m 128,-1,41
 225 688 225 688 225 665 c 256,42,43
 225 642 225 642 241 626 c 128,-1,44
 257 610 257 610 280 610 c 256,45,46
 303 610 303 610 319 626 c 128,-1,47
 335 642 335 642 335 665 c 256,48,49
 335 688 335 688 319 704 c 128,-1,50
 303 720 303 720 280 720 c 256,51,40
 257 720 257 720 241 704 c 128,-1,41
311.5 144 m 128,-1,53
 333 163 333 163 333 195 c 2,54,-1
 333 225 l 1,55,-1
 309 225 l 2,56,57
 252 225 252 225 226 212 c 128,-1,58
 200 199 200 199 200 170 c 0,59,60
 200 148 200 148 214 136.5 c 128,-1,61
 228 125 228 125 255 125 c 0,62,52
 290 125 290 125 311.5 144 c 128,-1,53
EndSplineSet
EndChar

StartChar: ae
Encoding: 230 230 226
AltUni2: 0004d5.ffffffff.0
Width: 891
GlyphClass: 2
Flags: W
AnchorPoint: "Anchor-6" 448 520 basechar 0
AnchorPoint: "Anchor-4" 448 0 basechar 0
LayerCount: 2
Fore
SplineSet
859 200 m 1,1,-1
 526 200 l 1,2,3
 531 160 531 160 561.5 142.5 c 128,-1,4
 592 125 592 125 655 125 c 0,5,6
 730 125 730 125 798 148 c 1,7,-1
 823 18 l 1,8,9
 789 5 789 5 740.5 -2.5 c 128,-1,10
 692 -10 692 -10 643 -10 c 0,11,12
 507 -10 507 -10 428 48 c 1,13,14
 356 -10 356 -10 239 -10 c 0,15,16
 24 -10 24 -10 24 150 c 0,17,18
 24 236 24 236 98 283 c 128,-1,19
 172 330 172 330 309 330 c 2,20,-1
 333 330 l 1,21,22
 333 367 333 367 321.5 378.5 c 128,-1,23
 310 390 310 390 273 390 c 0,24,25
 228 390 228 390 178 378.5 c 128,-1,26
 128 367 128 367 80 346 c 1,27,-1
 40 481 l 1,28,29
 94 505 94 505 158.5 517.5 c 128,-1,30
 223 530 223 530 289 530 c 0,31,32
 398 530 398 530 453 494 c 1,33,34
 515 530 515 530 603 530 c 0,35,36
 726 530 726 530 794.5 461.5 c 128,-1,37
 863 393 863 393 863 270 c 0,38,0
 863 222 863 222 859 200 c 1,1,-1
549.5 383 m 128,-1,40
 531 361 531 361 527 315 c 1,41,-1
 679 315 l 1,42,43
 675 361 675 361 656.5 383 c 128,-1,44
 638 405 638 405 603 405 c 256,45,39
 568 405 568 405 549.5 383 c 128,-1,40
311.5 144 m 128,-1,47
 333 163 333 163 333 195 c 2,48,-1
 333 225 l 1,49,-1
 309 225 l 2,50,51
 252 225 252 225 226 212 c 128,-1,52
 200 199 200 199 200 170 c 0,53,54
 200 148 200 148 214 136.5 c 128,-1,55
 228 125 228 125 255 125 c 0,56,46
 290 125 290 125 311.5 144 c 128,-1,47
EndSplineSet
EndChar

StartChar: b
Encoding: 98 98 228
Width: 638
Flags: W
LayerCount: 2
Fore
SplineSet
555 460.5 m 128,-1,1
 605 391 605 391 605 260 c 256,2,3
 605 129 605 129 555 59.5 c 128,-1,4
 505 -10 505 -10 410 -10 c 0,5,6
 364 -10 364 -10 325 7 c 128,-1,7
 286 24 286 24 249 60 c 1,8,-1
 247 60 l 1,9,-1
 245 0 l 1,10,-1
 59 0 l 1,11,-1
 59 750 l 1,12,-1
 255 750 l 1,13,-1
 255 460 l 1,14,-1
 257 460 l 1,15,16
 290 496 290 496 327 513 c 128,-1,17
 364 530 364 530 410 530 c 0,18,0
 505 530 505 530 555 460.5 c 128,-1,1
393 170.5 m 128,-1,20
 413 201 413 201 413 260 c 256,21,22
 413 319 413 319 393 349.5 c 128,-1,23
 373 380 373 380 334 380 c 0,24,25
 296 380 296 380 275.5 351 c 128,-1,26
 255 322 255 322 255 270 c 2,27,-1
 255 250 l 2,28,29
 255 198 255 198 275.5 169 c 128,-1,30
 296 140 296 140 334 140 c 0,31,19
 373 140 373 140 393 170.5 c 128,-1,20
EndSplineSet
EndChar

StartChar: c
Encoding: 99 99 229
Width: 552
GlyphClass: 2
Flags: W
AnchorPoint: "Anchor-6" 295 520 basechar 0
AnchorPoint: "Anchor-4" 295 0 basechar 0
LayerCount: 2
Fore
SplineSet
108 60 m 128,-1,1
 30 130 30 130 30 260 c 256,2,3
 30 390 30 390 108 460 c 128,-1,4
 186 530 186 530 330 530 c 0,5,6
 430 530 430 530 510 490 c 1,7,-1
 463 358 l 1,8,9
 400 390 400 390 344 390 c 0,10,11
 230 390 230 390 230 260 c 256,12,13
 230 130 230 130 344 130 c 0,14,15
 400 130 400 130 463 162 c 1,16,-1
 510 30 l 1,17,18
 430 -10 430 -10 330 -10 c 0,19,0
 186 -10 186 -10 108 60 c 128,-1,1
EndSplineSet
EndChar

StartChar: ccedilla
Encoding: 231 231 232
Width: 552
GlyphClass: 2
Flags: W
AnchorPoint: "Anchor-6" 295 520 basechar 0
AnchorPoint: "Anchor-4" 295 0 basechar 0
LayerCount: 2
Fore
SplineSet
510 30 m 1,0,1
 479 14 479 14 448 6 c 1,2,3
 480 -36 480 -36 480 -82 c 0,4,5
 480 -148 480 -148 424 -184 c 128,-1,6
 368 -220 368 -220 265 -220 c 0,7,8
 194 -220 194 -220 140 -200 c 1,9,-1
 155 -65 l 1,10,11
 178 -74 178 -74 204.5 -79.5 c 128,-1,12
 231 -85 231 -85 253 -85 c 0,13,14
 278 -85 278 -85 291 -78 c 128,-1,15
 304 -71 304 -71 304 -57 c 0,16,17
 304 -28 304 -28 233 0 c 1,18,19
 135 21 135 21 82.5 87.5 c 128,-1,20
 30 154 30 154 30 260 c 0,21,22
 30 390 30 390 108 460 c 128,-1,23
 186 530 186 530 330 530 c 0,24,25
 430 530 430 530 510 490 c 1,26,-1
 463 358 l 1,27,28
 400 390 400 390 344 390 c 0,29,30
 230 390 230 390 230 260 c 256,31,32
 230 130 230 130 344 130 c 0,33,34
 400 130 400 130 463 162 c 1,35,-1
 510 30 l 1,0,1
EndSplineSet
EndChar

StartChar: d
Encoding: 100 100 235
Width: 638
Flags: W
LayerCount: 2
Fore
SplineSet
579 750 m 1,0,-1
 579 0 l 1,1,-1
 393 0 l 1,2,-1
 391 60 l 1,3,-1
 389 60 l 1,4,5
 352 24 352 24 313 7 c 128,-1,6
 274 -10 274 -10 228 -10 c 0,7,8
 133 -10 133 -10 83 59.5 c 128,-1,9
 33 129 33 129 33 260 c 256,10,11
 33 391 33 391 83 460.5 c 128,-1,12
 133 530 133 530 228 530 c 0,13,14
 274 530 274 530 311 513 c 128,-1,15
 348 496 348 496 381 460 c 1,16,-1
 383 460 l 1,17,-1
 383 750 l 1,18,-1
 579 750 l 1,0,-1
362.5 169 m 128,-1,20
 383 198 383 198 383 250 c 2,21,-1
 383 270 l 2,22,23
 383 322 383 322 362.5 351 c 128,-1,24
 342 380 342 380 304 380 c 0,25,26
 265 380 265 380 245 349.5 c 128,-1,27
 225 319 225 319 225 260 c 256,28,29
 225 201 225 201 245 170.5 c 128,-1,30
 265 140 265 140 304 140 c 0,31,19
 342 140 342 140 362.5 169 c 128,-1,20
EndSplineSet
EndChar

StartChar: eth
Encoding: 240 240 236
Width: 621
Flags: W
LayerCount: 2
Fore
SplineSet
580 280 m 0,1,2
 580 133 580 133 512 61.5 c 128,-1,3
 444 -10 444 -10 305 -10 c 0,4,5
 177 -10 177 -10 103.5 59.5 c 128,-1,6
 30 129 30 129 30 250 c 0,7,8
 30 360 30 360 94 420 c 128,-1,9
 158 480 158 480 275 480 c 0,10,11
 325 480 325 480 365 470 c 1,12,-1
 367 471 l 1,13,14
 364 517 364 517 336 552 c 1,15,-1
 125 468 l 1,16,-1
 70 598 l 1,17,-1
 185 644 l 1,18,19
 139 657 139 657 80 660 c 1,20,-1
 120 790 l 1,21,22
 275 782 275 782 378 720 c 1,23,-1
 510 773 l 1,24,-1
 565 643 l 1,25,-1
 492 614 l 1,26,0
 580 488 580 488 580 280 c 0,1,2
366.5 155 m 128,-1,28
 386 185 386 185 386 250 c 256,29,30
 386 315 386 315 366.5 345 c 128,-1,31
 347 375 347 375 305 375 c 256,32,33
 263 375 263 375 243.5 345 c 128,-1,34
 224 315 224 315 224 250 c 256,35,36
 224 185 224 185 243.5 155 c 128,-1,37
 263 125 263 125 305 125 c 256,38,27
 347 125 347 125 366.5 155 c 128,-1,28
EndSplineSet
EndChar

StartChar: dcroat
Encoding: 273 273 238
Width: 700
Flags: W
LayerCount: 2
Fore
SplineSet
679 555 m 1,0,-1
 579 555 l 1,1,-1
 579 0 l 1,2,-1
 393 0 l 1,3,-1
 391 60 l 1,4,-1
 389 60 l 1,5,6
 352 24 352 24 313 7 c 128,-1,7
 274 -10 274 -10 228 -10 c 0,8,9
 133 -10 133 -10 83 59.5 c 128,-1,10
 33 129 33 129 33 260 c 256,11,12
 33 391 33 391 83 460.5 c 128,-1,13
 133 530 133 530 228 530 c 0,14,15
 274 530 274 530 311 513 c 128,-1,16
 348 496 348 496 381 460 c 1,17,-1
 383 460 l 1,18,-1
 383 555 l 1,19,-1
 259 555 l 1,20,-1
 259 695 l 1,21,-1
 383 695 l 1,22,-1
 383 750 l 1,23,-1
 579 750 l 1,24,-1
 579 695 l 1,25,-1
 679 695 l 1,26,-1
 679 555 l 1,0,-1
362.5 169 m 128,-1,28
 383 198 383 198 383 250 c 2,29,-1
 383 270 l 2,30,31
 383 322 383 322 362.5 351 c 128,-1,32
 342 380 342 380 304 380 c 0,33,34
 265 380 265 380 245 349.5 c 128,-1,35
 225 319 225 319 225 260 c 256,36,37
 225 201 225 201 245 170.5 c 128,-1,38
 265 140 265 140 304 140 c 0,39,27
 342 140 342 140 362.5 169 c 128,-1,28
EndSplineSet
EndChar

StartChar: e
Encoding: 101 101 240
Width: 588
GlyphClass: 2
Flags: W
AnchorPoint: "Anchor-6" 300 520 basechar 0
AnchorPoint: "Anchor-5" 520 18 basechar 0
AnchorPoint: "Anchor-4" 300 0 basechar 0
LayerCount: 2
Fore
SplineSet
556 200 m 1,1,-1
 223 200 l 1,2,3
 228 160 228 160 258.5 142.5 c 128,-1,4
 289 125 289 125 352 125 c 0,5,6
 427 125 427 125 495 148 c 1,7,-1
 520 18 l 1,8,9
 486 5 486 5 437.5 -2.5 c 128,-1,10
 389 -10 389 -10 340 -10 c 0,11,12
 190 -10 190 -10 110 59.5 c 128,-1,13
 30 129 30 129 30 260 c 0,14,15
 30 386 30 386 102 458 c 128,-1,16
 174 530 174 530 300 530 c 0,17,18
 423 530 423 530 491.5 461.5 c 128,-1,19
 560 393 560 393 560 270 c 0,20,0
 560 222 560 222 556 200 c 1,1,-1
246.5 383 m 128,-1,22
 228 361 228 361 224 315 c 1,23,-1
 376 315 l 1,24,25
 372 361 372 361 353.5 383 c 128,-1,26
 335 405 335 405 300 405 c 256,27,21
 265 405 265 405 246.5 383 c 128,-1,22
EndSplineSet
EndChar

StartChar: uni1EBF
Encoding: 7871 7871 245
Width: 588
GlyphClass: 2
Flags: W
AnchorPoint: "Anchor-6" 300 520 basechar 0
AnchorPoint: "Anchor-5" 520 18 basechar 0
AnchorPoint: "Anchor-4" 300 0 basechar 0
LayerCount: 2
Fore
SplineSet
710 950 m 1,0,-1
 590 740 l 1,1,-1
 467 740 l 1,2,-1
 570 560 l 1,3,-1
 360 560 l 1,4,-1
 301 700 l 1,5,-1
 299 700 l 1,6,-1
 240 560 l 1,7,-1
 30 560 l 1,8,-1
 150 770 l 1,9,-1
 429 770 l 1,10,-1
 480 950 l 1,11,-1
 710 950 l 1,0,-1
491.5 461.5 m 128,-1,13
 560 393 560 393 560 270 c 0,14,15
 560 222 560 222 556 200 c 1,16,-1
 223 200 l 1,17,18
 228 160 228 160 258.5 142.5 c 128,-1,19
 289 125 289 125 352 125 c 0,20,21
 427 125 427 125 495 148 c 1,22,-1
 520 18 l 1,23,24
 486 5 486 5 437.5 -2.5 c 128,-1,25
 389 -10 389 -10 340 -10 c 0,26,27
 190 -10 190 -10 110 59.5 c 128,-1,28
 30 129 30 129 30 260 c 0,29,30
 30 386 30 386 102 458 c 128,-1,31
 174 530 174 530 300 530 c 0,32,12
 423 530 423 530 491.5 461.5 c 128,-1,13
246.5 383 m 128,-1,34
 228 361 228 361 224 315 c 1,35,-1
 376 315 l 1,36,37
 372 361 372 361 353.5 383 c 128,-1,38
 335 405 335 405 300 405 c 256,39,33
 265 405 265 405 246.5 383 c 128,-1,34
EndSplineSet
EndChar

StartChar: uni1EC1
Encoding: 7873 7873 247
Width: 588
GlyphClass: 2
Flags: W
AnchorPoint: "Anchor-6" 300 520 basechar 0
AnchorPoint: "Anchor-5" 520 18 basechar 0
AnchorPoint: "Anchor-4" 300 0 basechar 0
LayerCount: 2
Fore
SplineSet
30 560 m 1,0,-1
 133 740 l 1,1,-1
 10 740 l 1,2,-1
 -110 950 l 1,3,-1
 120 950 l 1,4,-1
 171 770 l 1,5,-1
 450 770 l 1,6,-1
 570 560 l 1,7,-1
 360 560 l 1,8,-1
 301 700 l 1,9,-1
 299 700 l 1,10,-1
 240 560 l 1,11,-1
 30 560 l 1,0,-1
491.5 461.5 m 128,-1,13
 560 393 560 393 560 270 c 0,14,15
 560 222 560 222 556 200 c 1,16,-1
 223 200 l 1,17,18
 228 160 228 160 258.5 142.5 c 128,-1,19
 289 125 289 125 352 125 c 0,20,21
 427 125 427 125 495 148 c 1,22,-1
 520 18 l 1,23,24
 486 5 486 5 437.5 -2.5 c 128,-1,25
 389 -10 389 -10 340 -10 c 0,26,27
 190 -10 190 -10 110 59.5 c 128,-1,28
 30 129 30 129 30 260 c 0,29,30
 30 386 30 386 102 458 c 128,-1,31
 174 530 174 530 300 530 c 0,32,12
 423 530 423 530 491.5 461.5 c 128,-1,13
246.5 383 m 128,-1,34
 228 361 228 361 224 315 c 1,35,-1
 376 315 l 1,36,37
 372 361 372 361 353.5 383 c 128,-1,38
 335 405 335 405 300 405 c 256,39,33
 265 405 265 405 246.5 383 c 128,-1,34
EndSplineSet
EndChar

StartChar: uni1EC3
Encoding: 7875 7875 248
Width: 588
GlyphClass: 2
Flags: W
AnchorPoint: "Anchor-6" 414 960 basechar 0
AnchorPoint: "Anchor-5" 520 18 basechar 0
AnchorPoint: "Anchor-4" 300 0 basechar 0
LayerCount: 2
Fore
SplineSet
602 802 m 128,-1,1
 595 767 595 767 584 740 c 1,2,-1
 467 740 l 1,3,-1
 570 560 l 1,4,-1
 360 560 l 1,5,-1
 301 700 l 1,6,-1
 299 700 l 1,7,-1
 240 560 l 1,8,-1
 30 560 l 1,9,-1
 150 770 l 1,10,-1
 431 770 l 1,11,12
 434 787 434 787 434 800 c 0,13,14
 434 818 434 818 425 824 c 128,-1,15
 416 830 416 830 389 830 c 0,16,17
 355 830 355 830 313.5 823.5 c 128,-1,18
 272 817 272 817 234 805 c 1,19,-1
 219 940 l 1,20,21
 261 949 261 949 314.5 954.5 c 128,-1,22
 368 960 368 960 414 960 c 0,23,24
 492 960 492 960 533.5 951.5 c 128,-1,25
 575 943 575 943 592 923 c 128,-1,26
 609 903 609 903 609 865 c 0,27,0
 609 837 609 837 602 802 c 128,-1,1
491.5 461.5 m 128,-1,29
 560 393 560 393 560 270 c 0,30,31
 560 222 560 222 556 200 c 1,32,-1
 223 200 l 1,33,34
 228 160 228 160 258.5 142.5 c 128,-1,35
 289 125 289 125 352 125 c 0,36,37
 427 125 427 125 495 148 c 1,38,-1
 520 18 l 1,39,40
 486 5 486 5 437.5 -2.5 c 128,-1,41
 389 -10 389 -10 340 -10 c 0,42,43
 190 -10 190 -10 110 59.5 c 128,-1,44
 30 129 30 129 30 260 c 0,45,46
 30 386 30 386 102 458 c 128,-1,47
 174 530 174 530 300 530 c 0,48,28
 423 530 423 530 491.5 461.5 c 128,-1,29
246.5 383 m 128,-1,50
 228 361 228 361 224 315 c 1,51,-1
 376 315 l 1,52,53
 372 361 372 361 353.5 383 c 128,-1,54
 335 405 335 405 300 405 c 256,55,49
 265 405 265 405 246.5 383 c 128,-1,50
EndSplineSet
EndChar

StartChar: eogonek
Encoding: 281 281 258
Width: 588
GlyphClass: 2
Flags: W
AnchorPoint: "Anchor-6" 300 520 basechar 0
AnchorPoint: "Anchor-5" 520 18 basechar 0
AnchorPoint: "Anchor-4" 300 0 basechar 0
LayerCount: 2
Fore
SplineSet
612 -182 m 1,0,1
 558 -202 558 -202 487 -202 c 0,2,3
 384 -202 384 -202 328 -166 c 128,-1,4
 272 -130 272 -130 272 -64 c 0,5,6
 272 -34 272 -34 285 -7 c 1,7,8
 161 5 161 5 95.5 73.5 c 128,-1,9
 30 142 30 142 30 260 c 0,10,11
 30 386 30 386 102 458 c 128,-1,12
 174 530 174 530 300 530 c 0,13,14
 423 530 423 530 491.5 461.5 c 128,-1,15
 560 393 560 393 560 270 c 0,16,17
 560 222 560 222 556 200 c 1,18,-1
 223 200 l 1,19,20
 228 160 228 160 258.5 142.5 c 128,-1,21
 289 125 289 125 352 125 c 0,22,23
 427 125 427 125 495 148 c 1,24,-1
 520 18 l 1,25,26
 448 -10 448 -10 448 -39 c 0,27,28
 448 -53 448 -53 461 -60 c 128,-1,29
 474 -67 474 -67 499 -67 c 0,30,31
 521 -67 521 -67 547.5 -61.5 c 128,-1,32
 574 -56 574 -56 597 -47 c 1,33,-1
 612 -182 l 1,0,1
246.5 383 m 128,-1,35
 228 361 228 361 224 315 c 1,36,-1
 376 315 l 1,37,38
 372 361 372 361 353.5 383 c 128,-1,39
 335 405 335 405 300 405 c 256,40,34
 265 405 265 405 246.5 383 c 128,-1,35
EndSplineSet
EndChar

StartChar: uni0259
Encoding: 601 601 260
Width: 588
GlyphClass: 2
Flags: W
AnchorPoint: "Anchor-6" 288 520 basechar 0
AnchorPoint: "Anchor-5" 68 502 basechar 0
AnchorPoint: "Anchor-4" 288 0 basechar 0
LayerCount: 2
Fore
SplineSet
478 460.5 m 128,-1,1
 558 391 558 391 558 260 c 0,2,3
 558 134 558 134 486 62 c 128,-1,4
 414 -10 414 -10 288 -10 c 0,5,6
 165 -10 165 -10 96.5 58.5 c 128,-1,7
 28 127 28 127 28 250 c 0,8,9
 28 298 28 298 32 320 c 1,10,-1
 365 320 l 1,11,12
 360 360 360 360 329.5 377.5 c 128,-1,13
 299 395 299 395 236 395 c 0,14,15
 161 395 161 395 93 372 c 1,16,-1
 68 502 l 1,17,18
 102 515 102 515 150.5 522.5 c 128,-1,19
 199 530 199 530 248 530 c 0,20,0
 398 530 398 530 478 460.5 c 128,-1,1
341.5 137 m 128,-1,22
 360 159 360 159 364 205 c 1,23,-1
 212 205 l 1,24,25
 216 159 216 159 234.5 137 c 128,-1,26
 253 115 253 115 288 115 c 256,27,21
 323 115 323 115 341.5 137 c 128,-1,22
EndSplineSet
EndChar

StartChar: f
Encoding: 102 102 261
Width: 509
Flags: W
LayerCount: 2
Fore
SplineSet
18 380 m 1,0,-1
 18 520 l 1,1,-1
 138 520 l 1,2,-1
 138 540 l 2,3,4
 138 647 138 647 194 703.5 c 128,-1,5
 250 760 250 760 356 760 c 0,6,7
 416 760 416 760 491 745 c 1,8,-1
 466 605 l 1,9,10
 426 620 426 620 391 620 c 0,11,12
 359 620 359 620 347.5 603.5 c 128,-1,13
 336 587 336 587 336 540 c 2,14,-1
 336 520 l 1,15,-1
 481 520 l 1,16,-1
 481 380 l 1,17,-1
 336 380 l 1,18,-1
 336 0 l 1,19,-1
 138 0 l 1,20,-1
 138 380 l 1,21,-1
 18 380 l 1,0,-1
EndSplineSet
EndChar

StartChar: g
Encoding: 103 103 262
Width: 638
GlyphClass: 2
Flags: W
AnchorPoint: "Anchor-6" 320 520 basechar 0
AnchorPoint: "Anchor-4" 320 -140 basechar 0
LayerCount: 2
Fore
SplineSet
579 520 m 1,0,-1
 579 60 l 2,1,2
 579 -78 579 -78 500 -154 c 128,-1,3
 421 -230 421 -230 277 -230 c 0,4,5
 171 -230 171 -230 49 -190 c 1,6,-1
 84 -60 l 1,7,8
 191 -90 191 -90 248 -90 c 0,9,10
 383 -90 383 -90 383 60 c 1,11,-1
 381 60 l 1,12,13
 348 24 348 24 311 7 c 128,-1,14
 274 -10 274 -10 228 -10 c 0,15,16
 133 -10 133 -10 83 59.5 c 128,-1,17
 33 129 33 129 33 260 c 256,18,19
 33 391 33 391 83 460.5 c 128,-1,20
 133 530 133 530 228 530 c 0,21,22
 274 530 274 530 313 513 c 128,-1,23
 352 496 352 496 389 460 c 1,24,-1
 391 460 l 1,25,-1
 393 520 l 1,26,-1
 579 520 l 1,0,-1
362.5 169 m 128,-1,28
 383 198 383 198 383 250 c 2,29,-1
 383 270 l 2,30,31
 383 322 383 322 362.5 351 c 128,-1,32
 342 380 342 380 304 380 c 0,33,34
 265 380 265 380 245 349.5 c 128,-1,35
 225 319 225 319 225 260 c 256,36,37
 225 201 225 201 245 170.5 c 128,-1,38
 265 140 265 140 304 140 c 0,39,27
 342 140 342 140 362.5 169 c 128,-1,28
EndSplineSet
EndChar

StartChar: h
Encoding: 104 104 268
Width: 632
GlyphClass: 2
Flags: W
AnchorPoint: "Anchor-6" 310 750 basechar 0
AnchorPoint: "Anchor-4" 310 0 basechar 0
LayerCount: 2
Fore
SplineSet
538.5 480 m 128,-1,1
 579 430 579 430 579 320 c 2,2,-1
 579 0 l 1,3,-1
 383 0 l 1,4,-1
 383 280 l 2,5,6
 383 329 383 329 370.5 349.5 c 128,-1,7
 358 370 358 370 329 370 c 0,8,9
 297 370 297 370 276 350.5 c 128,-1,10
 255 331 255 331 255 300 c 2,11,-1
 255 0 l 1,12,-1
 59 0 l 1,13,-1
 59 750 l 1,14,-1
 255 750 l 1,15,-1
 255 460 l 1,16,-1
 257 460 l 1,17,18
 291 498 291 498 326 514 c 128,-1,19
 361 530 361 530 409 530 c 0,20,0
 498 530 498 530 538.5 480 c 128,-1,1
EndSplineSet
EndChar

StartChar: hbar
Encoding: 295 295 269
Width: 694
GlyphClass: 2
Flags: W
AnchorPoint: "Anchor-6" 372 750 basechar 0
AnchorPoint: "Anchor-4" 372 0 basechar 0
LayerCount: 2
Fore
SplineSet
600.5 480 m 128,-1,1
 641 430 641 430 641 320 c 2,2,-1
 641 0 l 1,3,-1
 445 0 l 1,4,-1
 445 280 l 2,5,6
 445 329 445 329 432.5 349.5 c 128,-1,7
 420 370 420 370 391 370 c 0,8,9
 359 370 359 370 338 350.5 c 128,-1,10
 317 331 317 331 317 300 c 2,11,-1
 317 0 l 1,12,-1
 121 0 l 1,13,-1
 121 555 l 1,14,-1
 21 555 l 1,15,-1
 21 695 l 1,16,-1
 121 695 l 1,17,-1
 121 750 l 1,18,-1
 317 750 l 1,19,-1
 317 695 l 1,20,-1
 441 695 l 1,21,-1
 441 555 l 1,22,-1
 317 555 l 1,23,-1
 317 460 l 1,24,-1
 319 460 l 1,25,26
 353 498 353 498 388 514 c 128,-1,27
 423 530 423 530 471 530 c 0,28,0
 560 530 560 530 600.5 480 c 128,-1,1
EndSplineSet
EndChar

StartChar: i
Encoding: 105 105 271
Width: 330
GlyphClass: 2
Flags: W
AnchorPoint: "Anchor-6" 165 520 basechar 0
AnchorPoint: "Anchor-5" 265 0 basechar 0
AnchorPoint: "Anchor-4" 165 0 basechar 0
LayerCount: 2
Fore
SplineSet
65 750 m 1,0,-1
 265 750 l 1,1,-1
 265 590 l 1,2,-1
 65 590 l 1,3,-1
 65 750 l 1,0,-1
65 520 m 1,4,-1
 265 520 l 1,5,-1
 265 0 l 1,6,-1
 65 0 l 1,7,-1
 65 520 l 1,4,-1
EndSplineSet
Substitution2: "Single Substitution lookup 19 subtable" dotlessi
Substitution2: "'locl' Localized Forms in Latin lookup 3 subtable" i.loclTRK
Substitution2: "'aalt' Access All Alternates in Latin lookup 0 subtable" i.loclTRK
EndChar

StartChar: dotlessi
Encoding: 305 305 272
Width: 330
GlyphClass: 2
Flags: W
AnchorPoint: "Anchor-6" 165 520 basechar 0
AnchorPoint: "Anchor-5" 265 0 basechar 0
AnchorPoint: "Anchor-4" 165 0 basechar 0
LayerCount: 2
Fore
SplineSet
65 520 m 1,0,-1
 265 520 l 1,1,-1
 265 0 l 1,2,-1
 65 0 l 1,3,-1
 65 520 l 1,0,-1
EndSplineSet
EndChar

StartChar: iogonek
Encoding: 303 303 284
Width: 330
GlyphClass: 2
Flags: W
AnchorPoint: "Anchor-6" 165 760 basechar 0
AnchorPoint: "Anchor-5" 265 0 basechar 0
AnchorPoint: "Anchor-4" 165 0 basechar 0
LayerCount: 2
Fore
SplineSet
260 760 m 1,0,-1
 260 570 l 1,1,-1
 70 570 l 1,2,-1
 70 760 l 1,3,-1
 260 760 l 1,0,-1
357 -200 m 1,4,5
 303 -220 303 -220 232 -220 c 0,6,7
 129 -220 129 -220 73 -184 c 128,-1,8
 17 -148 17 -148 17 -82 c 0,9,10
 17 -54 17 -54 28.5 -28 c 128,-1,11
 40 -2 40 -2 65 25 c 1,12,-1
 65 520 l 1,13,-1
 265 520 l 1,14,-1
 265 0 l 1,15,16
 193 -28 193 -28 193 -57 c 0,17,18
 193 -71 193 -71 206 -78 c 128,-1,19
 219 -85 219 -85 244 -85 c 0,20,21
 266 -85 266 -85 292.5 -79.5 c 128,-1,22
 319 -74 319 -74 342 -65 c 1,23,-1
 357 -200 l 1,4,5
EndSplineSet
EndChar

StartChar: j
Encoding: 106 106 286
Width: 375
GlyphClass: 2
Flags: W
AnchorPoint: "Anchor-6" 188 520 basechar 0
AnchorPoint: "Anchor-4" 188 -140 basechar 0
LayerCount: 2
Fore
SplineSet
110 750 m 1,0,-1
 310 750 l 1,1,-1
 310 590 l 1,2,-1
 110 590 l 1,3,-1
 110 750 l 1,0,-1
54.5 -77 m 128,-1,5
 88 -69 88 -69 99 -44.5 c 128,-1,6
 110 -20 110 -20 110 40 c 2,7,-1
 110 520 l 1,8,-1
 310 520 l 1,9,-1
 310 40 l 2,10,11
 310 -66 310 -66 277.5 -123.5 c 128,-1,12
 245 -181 245 -181 168 -205.5 c 128,-1,13
 91 -230 91 -230 -50 -230 c 1,14,-1
 -60 -85 l 1,15,4
 21 -85 21 -85 54.5 -77 c 128,-1,5
EndSplineSet
Substitution2: "Single Substitution lookup 19 subtable" uni0237
EndChar

StartChar: uni0237
Encoding: 567 567 287
Width: 375
GlyphClass: 2
Flags: W
AnchorPoint: "Anchor-6" 188 520 basechar 0
AnchorPoint: "Anchor-4" 188 -140 basechar 0
LayerCount: 2
Fore
SplineSet
54.5 -77 m 128,-1,1
 88 -69 88 -69 99 -44.5 c 128,-1,2
 110 -20 110 -20 110 40 c 2,3,-1
 110 520 l 1,4,-1
 310 520 l 1,5,-1
 310 40 l 2,6,7
 310 -66 310 -66 277.5 -123.5 c 128,-1,8
 245 -181 245 -181 168 -205.5 c 128,-1,9
 91 -230 91 -230 -50 -230 c 1,10,-1
 -60 -85 l 1,11,0
 21 -85 21 -85 54.5 -77 c 128,-1,1
EndSplineSet
EndChar

StartChar: k
Encoding: 107 107 289
Width: 631
GlyphClass: 2
Flags: W
AnchorPoint: "Anchor-6" 300 750 basechar 0
AnchorPoint: "Anchor-4" 300 0 basechar 0
LayerCount: 2
Fore
SplineSet
59 750 m 1,0,-1
 255 750 l 1,1,-1
 255 325 l 1,2,-1
 257 325 l 1,3,-1
 389 520 l 1,4,-1
 614 520 l 1,5,-1
 419 270 l 1,6,-1
 619 0 l 1,7,-1
 394 0 l 1,8,-1
 257 215 l 1,9,-1
 255 215 l 1,10,-1
 255 0 l 1,11,-1
 59 0 l 1,12,-1
 59 750 l 1,0,-1
EndSplineSet
EndChar

StartChar: kgreenlandic
Encoding: 312 312 291
Width: 631
GlyphClass: 2
Flags: W
AnchorPoint: "Anchor-6" 300 520 basechar 0
AnchorPoint: "Anchor-4" 300 0 basechar 0
LayerCount: 2
Fore
SplineSet
59 520 m 1,0,-1
 255 520 l 1,1,-1
 255 325 l 1,2,-1
 257 325 l 1,3,-1
 389 520 l 1,4,-1
 614 520 l 1,5,-1
 419 270 l 1,6,-1
 619 0 l 1,7,-1
 394 0 l 1,8,-1
 257 215 l 1,9,-1
 255 215 l 1,10,-1
 255 0 l 1,11,-1
 59 0 l 1,12,-1
 59 520 l 1,0,-1
EndSplineSet
EndChar

StartChar: l
Encoding: 108 108 292
Width: 442
GlyphClass: 2
Flags: W
LayerCount: 2
Fore
SplineSet
266 750 m 1,0,-1
 266 210 l 2,1,2
 266 164 266 164 276 146 c 0,3,4
 288 130 288 130 316 130 c 0,5,6
 359.5 130 359.5 130 406 145 c 1,7,-1
 426 10 l 1,8,9
 351 -10 351 -10 266 -10 c 0,10,11
 163 -10 163 -10 114 36 c 0,12,13
 66 81 66 81 66 180 c 2,14,-1
 66 750 l 1,15,-1
 266 750 l 1,0,-1
EndSplineSet
EndChar

StartChar: lacute
Encoding: 314 314 293
Width: 442
GlyphClass: 2
Flags: W
LayerCount: 2
Fore
SplineSet
266 750 m 1,0,-1
 266 210 l 2,1,2
 266 164 266 164 276 146 c 0,3,4
 288 130 288 130 316 130 c 0,5,6
 359.5 130 359.5 130 406 145 c 1,7,-1
 426 10 l 1,8,9
 351 -10 351 -10 266 -10 c 0,10,11
 163 -10 163 -10 114 36 c 0,12,13
 66 81 66 81 66 180 c 2,14,-1
 66 750 l 1,15,-1
 266 750 l 1,0,-1
221 790 m 1,16,-1
 51 790 l 1,17,-1
 111 1000 l 1,18,-1
 341 1000 l 1,19,-1
 221 790 l 1,16,-1
EndSplineSet
EndChar

StartChar: uni013C
Encoding: 316 316 295
Width: 442
GlyphClass: 2
Flags: W
LayerCount: 2
Fore
SplineSet
266 750 m 1,0,-1
 266 210 l 2,1,2
 266 164 266 164 276 146 c 0,3,4
 288 130 288 130 316 130 c 0,5,6
 359.5 130 359.5 130 406 145 c 1,7,-1
 426 10 l 1,8,9
 351 -10 351 -10 266 -10 c 0,10,11
 163 -10 163 -10 114 36 c 0,12,13
 66 81 66 81 66 180 c 2,14,-1
 66 750 l 1,15,-1
 266 750 l 1,0,-1
260 -250 m 1,16,-1
 90 -250 l 1,17,-1
 150 -40 l 1,18,-1
 380 -40 l 1,19,-1
 260 -250 l 1,16,-1
EndSplineSet
EndChar

StartChar: lslash
Encoding: 322 322 298
Width: 538
GlyphClass: 2
Flags: W
LayerCount: 2
Fore
SplineSet
531 393 m 1,0,-1
 62 207 l 1,1,-1
 7 337 l 1,2,-1
 476 523 l 1,3,-1
 531 393 l 1,0,-1
369 750 m 1,4,-1
 369 210 l 2,5,6
 369 161 369 161 380 146 c 0,7,8
 389 130 389 130 419 130 c 0,9,10
 462.5 130 462.5 130 509 145 c 1,11,-1
 529 10 l 1,12,13
 454 -10 454 -10 369 -10 c 0,14,15
 265 -10 265 -10 218 36 c 0,16,17
 169 81 169 81 169 180 c 2,18,-1
 169 750 l 1,19,-1
 369 750 l 1,4,-1
EndSplineSet
EndChar

StartChar: m
Encoding: 109 109 299
Width: 880
Flags: W
LayerCount: 2
Fore
SplineSet
791 480 m 128,-1,1
 827 430 827 430 827 320 c 2,2,-1
 827 0 l 1,3,-1
 635 0 l 1,4,-1
 635 280 l 2,5,6
 635 329 635 329 626 349.5 c 128,-1,7
 617 370 617 370 595 370 c 0,8,9
 571 370 571 370 555 350 c 128,-1,10
 539 330 539 330 539 300 c 2,11,-1
 539 0 l 1,12,-1
 347 0 l 1,13,-1
 347 280 l 2,14,15
 347 329 347 329 338 349.5 c 128,-1,16
 329 370 329 370 307 370 c 0,17,18
 283 370 283 370 267 350 c 128,-1,19
 251 330 251 330 251 300 c 2,20,-1
 251 0 l 1,21,-1
 59 0 l 1,22,-1
 59 520 l 1,23,-1
 241 520 l 1,24,-1
 243 460 l 1,25,-1
 245 460 l 1,26,27
 276 497 276 497 310 513.5 c 128,-1,28
 344 530 344 530 388 530 c 0,29,30
 481 530 481 530 515 460 c 1,31,-1
 517 460 l 1,32,33
 552 497 552 497 589.5 513.5 c 128,-1,34
 627 530 627 530 676 530 c 0,35,0
 755 530 755 530 791 480 c 128,-1,1
EndSplineSet
EndChar

StartChar: n
Encoding: 110 110 300
Width: 632
GlyphClass: 2
Flags: W
AnchorPoint: "Anchor-6" 316 520 basechar 0
AnchorPoint: "Anchor-4" 316 0 basechar 0
LayerCount: 2
Fore
SplineSet
538.5 480 m 128,-1,1
 579 430 579 430 579 320 c 2,2,-1
 579 0 l 1,3,-1
 383 0 l 1,4,-1
 383 280 l 2,5,6
 383 329 383 329 370.5 349.5 c 128,-1,7
 358 370 358 370 329 370 c 0,8,9
 297 370 297 370 276 350.5 c 128,-1,10
 255 331 255 331 255 300 c 2,11,-1
 255 0 l 1,12,-1
 59 0 l 1,13,-1
 59 520 l 1,14,-1
 245 520 l 1,15,-1
 247 460 l 1,16,-1
 249 460 l 1,17,18
 284 497 284 497 322 513.5 c 128,-1,19
 360 530 360 530 409 530 c 0,20,0
 498 530 498 530 538.5 480 c 128,-1,1
EndSplineSet
EndChar

StartChar: eng
Encoding: 331 331 304
Width: 632
GlyphClass: 2
Flags: W
AnchorPoint: "Anchor-6" 316 520 basechar 0
AnchorPoint: "Anchor-4" 316 0 basechar 0
LayerCount: 2
Fore
SplineSet
538.5 480 m 128,-1,1
 579 430 579 430 579 320 c 2,2,-1
 579 0 l 2,3,4
 578 -85 578 -85 557 -134.5 c 128,-1,5
 536 -184 536 -184 490.5 -206.5 c 128,-1,6
 445 -229 445 -229 367 -229 c 0,7,8
 301 -229 301 -229 221 -214 c 1,9,-1
 241 -59 l 1,10,11
 285 -70 285 -70 324 -70 c 0,12,13
 358 -70 358 -70 370.5 -53.5 c 128,-1,14
 383 -37 383 -37 383 10 c 2,15,-1
 383 280 l 2,16,17
 383 329 383 329 370.5 349.5 c 128,-1,18
 358 370 358 370 329 370 c 0,19,20
 297 370 297 370 276 350.5 c 128,-1,21
 255 331 255 331 255 300 c 2,22,-1
 255 0 l 1,23,-1
 59 0 l 1,24,-1
 59 520 l 1,25,-1
 245 520 l 1,26,-1
 247 460 l 1,27,-1
 249 460 l 1,28,29
 284 497 284 497 322 513.5 c 128,-1,30
 360 530 360 530 409 530 c 0,31,0
 498 530 498 530 538.5 480 c 128,-1,1
EndSplineSet
EndChar

StartChar: o
Encoding: 111 111 307
Width: 610
GlyphClass: 2
Flags: W
AnchorPoint: "Anchor-7" 485 480 basechar 0
AnchorPoint: "Anchor-6" 304 520 basechar 0
AnchorPoint: "Anchor-5" 389 0 basechar 0
AnchorPoint: "Anchor-4" 304 0 basechar 0
LayerCount: 2
Fore
SplineSet
100 59 m 128,-1,1
 30 128 30 128 30 260 c 256,2,3
 30 392 30 392 100 461 c 128,-1,4
 170 530 170 530 305 530 c 0,5,6
 439 530 439 530 509.5 461 c 128,-1,7
 580 392 580 392 580 260 c 256,8,9
 580 128 580 128 509.5 59 c 128,-1,10
 439 -10 439 -10 305 -10 c 0,11,0
 170 -10 170 -10 100 59 c 128,-1,1
365 161.5 m 128,-1,13
 384 193 384 193 384 260 c 256,14,15
 384 327 384 327 365 358.5 c 128,-1,16
 346 390 346 390 305 390 c 256,17,18
 264 390 264 390 245 358.5 c 128,-1,19
 226 327 226 327 226 260 c 256,20,21
 226 193 226 193 245 161.5 c 128,-1,22
 264 130 264 130 305 130 c 256,23,12
 346 130 346 130 365 161.5 c 128,-1,13
EndSplineSet
Substitution2: "Single Substitution lookup 21 subtable" ordmasculine
Substitution2: "'aalt' Access All Alternates in Latin lookup 0 subtable" ordmasculine
EndChar

StartChar: uni1ED1
Encoding: 7889 7889 311
Width: 610
GlyphClass: 2
Flags: W
AnchorPoint: "Anchor-7" 485 480 basechar 0
AnchorPoint: "Anchor-6" 304 520 basechar 0
AnchorPoint: "Anchor-5" 389 0 basechar 0
AnchorPoint: "Anchor-4" 304 0 basechar 0
LayerCount: 2
Fore
SplineSet
484 950 m 1,0,-1
 714 950 l 1,1,-1
 594 740 l 1,2,-1
 471 740 l 1,3,-1
 574 560 l 1,4,-1
 364 560 l 1,5,-1
 305 700 l 1,6,-1
 303 700 l 1,7,-1
 244 560 l 1,8,-1
 34 560 l 1,9,-1
 154 770 l 1,10,-1
 433 770 l 1,11,-1
 484 950 l 1,0,-1
509.5 461 m 128,-1,13
 580 392 580 392 580 260 c 256,14,15
 580 128 580 128 509.5 59 c 128,-1,16
 439 -10 439 -10 305 -10 c 0,17,18
 170 -10 170 -10 100 59 c 128,-1,19
 30 128 30 128 30 260 c 256,20,21
 30 392 30 392 100 461 c 128,-1,22
 170 530 170 530 305 530 c 0,23,12
 439 530 439 530 509.5 461 c 128,-1,13
365 161.5 m 128,-1,25
 384 193 384 193 384 260 c 256,26,27
 384 327 384 327 365 358.5 c 128,-1,28
 346 390 346 390 305 390 c 256,29,30
 264 390 264 390 245 358.5 c 128,-1,31
 226 327 226 327 226 260 c 256,32,33
 226 193 226 193 245 161.5 c 128,-1,34
 264 130 264 130 305 130 c 256,35,24
 346 130 346 130 365 161.5 c 128,-1,25
EndSplineSet
EndChar

StartChar: uni1ED3
Encoding: 7891 7891 313
Width: 610
GlyphClass: 2
Flags: W
AnchorPoint: "Anchor-7" 485 480 basechar 0
AnchorPoint: "Anchor-6" 304 520 basechar 0
AnchorPoint: "Anchor-5" 389 0 basechar 0
AnchorPoint: "Anchor-4" 304 0 basechar 0
LayerCount: 2
Fore
SplineSet
34 560 m 1,0,-1
 137 740 l 1,1,-1
 14 740 l 1,2,-1
 -106 950 l 1,3,-1
 124 950 l 1,4,-1
 175 770 l 1,5,-1
 454 770 l 1,6,-1
 574 560 l 1,7,-1
 364 560 l 1,8,-1
 305 700 l 1,9,-1
 303 700 l 1,10,-1
 244 560 l 1,11,-1
 34 560 l 1,0,-1
509.5 461 m 128,-1,13
 580 392 580 392 580 260 c 256,14,15
 580 128 580 128 509.5 59 c 128,-1,16
 439 -10 439 -10 305 -10 c 0,17,18
 170 -10 170 -10 100 59 c 128,-1,19
 30 128 30 128 30 260 c 256,20,21
 30 392 30 392 100 461 c 128,-1,22
 170 530 170 530 305 530 c 0,23,12
 439 530 439 530 509.5 461 c 128,-1,13
365 161.5 m 128,-1,25
 384 193 384 193 384 260 c 256,26,27
 384 327 384 327 365 358.5 c 128,-1,28
 346 390 346 390 305 390 c 256,29,30
 264 390 264 390 245 358.5 c 128,-1,31
 226 327 226 327 226 260 c 256,32,33
 226 193 226 193 245 161.5 c 128,-1,34
 264 130 264 130 305 130 c 256,35,24
 346 130 346 130 365 161.5 c 128,-1,25
EndSplineSet
EndChar

StartChar: uni1ED5
Encoding: 7893 7893 314
Width: 610
GlyphClass: 2
Flags: W
AnchorPoint: "Anchor-7" 485 480 basechar 0
AnchorPoint: "Anchor-6" 418 960 basechar 0
AnchorPoint: "Anchor-5" 389 0 basechar 0
AnchorPoint: "Anchor-4" 304 0 basechar 0
LayerCount: 2
Fore
SplineSet
537.5 951.5 m 128,-1,1
 579 943 579 943 596 923 c 128,-1,2
 613 903 613 903 613 865 c 0,3,4
 613 837 613 837 606 802 c 128,-1,5
 599 767 599 767 588 740 c 1,6,-1
 471 740 l 1,7,-1
 574 560 l 1,8,-1
 364 560 l 1,9,-1
 305 700 l 1,10,-1
 303 700 l 1,11,-1
 244 560 l 1,12,-1
 34 560 l 1,13,-1
 154 770 l 1,14,-1
 435 770 l 1,15,16
 438 787 438 787 438 800 c 0,17,18
 438 818 438 818 429 824 c 128,-1,19
 420 830 420 830 393 830 c 0,20,21
 359 830 359 830 317.5 823.5 c 128,-1,22
 276 817 276 817 238 805 c 1,23,-1
 223 940 l 1,24,25
 265 949 265 949 318.5 954.5 c 128,-1,26
 372 960 372 960 418 960 c 0,27,0
 496 960 496 960 537.5 951.5 c 128,-1,1
509.5 461 m 128,-1,29
 580 392 580 392 580 260 c 256,30,31
 580 128 580 128 509.5 59 c 128,-1,32
 439 -10 439 -10 305 -10 c 0,33,34
 170 -10 170 -10 100 59 c 128,-1,35
 30 128 30 128 30 260 c 256,36,37
 30 392 30 392 100 461 c 128,-1,38
 170 530 170 530 305 530 c 0,39,28
 439 530 439 530 509.5 461 c 128,-1,29
365 161.5 m 128,-1,41
 384 193 384 193 384 260 c 256,42,43
 384 327 384 327 365 358.5 c 128,-1,44
 346 390 346 390 305 390 c 256,45,46
 264 390 264 390 245 358.5 c 128,-1,47
 226 327 226 327 226 260 c 256,48,49
 226 193 226 193 245 161.5 c 128,-1,50
 264 130 264 130 305 130 c 256,51,40
 346 130 346 130 365 161.5 c 128,-1,41
EndSplineSet
EndChar

StartChar: ohorn
Encoding: 417 417 323
Width: 720
GlyphClass: 2
Flags: W
AnchorPoint: "Anchor-7" 745 625 basechar 0
AnchorPoint: "Anchor-6" 304 520 basechar 0
AnchorPoint: "Anchor-5" 389 0 basechar 0
AnchorPoint: "Anchor-4" 304 0 basechar 0
LayerCount: 2
Fore
SplineSet
747 487 m 0,1,2
 747 398 747 398 706.5 351.5 c 128,-1,3
 666 305 666 305 590 305 c 2,4,-1
 578 305 l 1,5,6
 580 277 580 277 580 260 c 0,7,8
 580 128 580 128 509.5 59 c 128,-1,9
 439 -10 439 -10 305 -10 c 0,10,11
 170 -10 170 -10 100 59 c 128,-1,12
 30 128 30 128 30 260 c 256,13,14
 30 392 30 392 100 461 c 128,-1,15
 170 530 170 530 305 530 c 0,16,17
 451 530 451 530 520 450 c 1,18,-1
 525 450 l 2,19,20
 546 450 546 450 558 464.5 c 128,-1,21
 570 479 570 479 570 505 c 0,22,23
 570 527 570 527 562.5 563.5 c 128,-1,24
 555 600 555 600 545 625 c 1,25,-1
 725 625 l 1,26,0
 747 562 747 562 747 487 c 0,1,2
365 161.5 m 128,-1,28
 384 193 384 193 384 260 c 256,29,30
 384 327 384 327 365 358.5 c 128,-1,31
 346 390 346 390 305 390 c 256,32,33
 264 390 264 390 245 358.5 c 128,-1,34
 226 327 226 327 226 260 c 256,35,36
 226 193 226 193 245 161.5 c 128,-1,37
 264 130 264 130 305 130 c 256,38,27
 346 130 346 130 365 161.5 c 128,-1,28
EndSplineSet
EndChar

StartChar: uni01EB
Encoding: 491 491 332
Width: 610
GlyphClass: 2
Flags: W
AnchorPoint: "Anchor-7" 485 480 basechar 0
AnchorPoint: "Anchor-6" 304 520 basechar 0
AnchorPoint: "Anchor-5" 389 0 basechar 0
AnchorPoint: "Anchor-4" 304 0 basechar 0
LayerCount: 2
Fore
SplineSet
317 -57 m 0,1,2
 317 -71 317 -71 330 -78 c 128,-1,3
 343 -85 343 -85 368 -85 c 0,4,5
 390 -85 390 -85 416.5 -79.5 c 128,-1,6
 443 -74 443 -74 466 -65 c 1,7,-1
 481 -200 l 1,8,9
 427 -220 427 -220 356 -220 c 0,10,11
 253 -220 253 -220 197 -184 c 128,-1,12
 141 -148 141 -148 141 -82 c 0,13,14
 141 -34 141 -34 177 11 c 1,15,16
 30 67 30 67 30 260 c 0,17,18
 30 392 30 392 100 461 c 128,-1,19
 170 530 170 530 305 530 c 0,20,21
 439 530 439 530 509.5 461 c 128,-1,22
 580 392 580 392 580 260 c 0,23,24
 580 148 580 148 529 81 c 128,-1,25
 478 14 478 14 380 -4 c 1,26,0
 317 -29 317 -29 317 -57 c 0,1,2
245 358.5 m 128,-1,28
 226 327 226 327 226 260 c 256,29,30
 226 193 226 193 245 161.5 c 128,-1,31
 264 130 264 130 305 130 c 256,32,33
 346 130 346 130 365 161.5 c 128,-1,34
 384 193 384 193 384 260 c 256,35,36
 384 327 384 327 365 358.5 c 128,-1,37
 346 390 346 390 305 390 c 256,38,27
 264 390 264 390 245 358.5 c 128,-1,28
EndSplineSet
EndChar

StartChar: oslash
Encoding: 248 248 333
Width: 610
GlyphClass: 2
Flags: W
AnchorPoint: "Anchor-7" 485 480 basechar 0
AnchorPoint: "Anchor-6" 305 520 basechar 0
AnchorPoint: "Anchor-5" 389 0 basechar 0
AnchorPoint: "Anchor-4" 304 0 basechar 0
LayerCount: 2
Fore
SplineSet
580 260 m 0,1,2
 580 128 580 128 509.5 59 c 128,-1,3
 439 -10 439 -10 305 -10 c 0,4,5
 234 -10 234 -10 181 9 c 1,6,-1
 145 -40 l 1,7,-1
 65 20 l 1,8,-1
 97 63 l 1,9,10
 30 132 30 132 30 260 c 0,11,12
 30 392 30 392 100 461 c 128,-1,13
 170 530 170 530 305 530 c 0,14,15
 376 530 376 530 429 511 c 1,16,-1
 465 560 l 1,17,-1
 545 500 l 1,18,-1
 513 457 l 1,19,0
 580 388 580 388 580 260 c 0,1,2
227 238 m 1,21,-1
 335 385 l 1,22,23
 320 390 320 390 305 390 c 0,24,25
 264 390 264 390 245 358.5 c 128,-1,26
 226 327 226 327 226 260 c 0,27,20
 226 245 226 245 227 238 c 1,21,-1
365 161.5 m 128,-1,29
 384 193 384 193 384 260 c 0,30,31
 384 275 384 275 383 282 c 1,32,-1
 275 135 l 1,33,34
 290 130 290 130 305 130 c 0,35,28
 346 130 346 130 365 161.5 c 128,-1,29
EndSplineSet
EndChar

StartChar: oe
Encoding: 339 339 337
Width: 942
Flags: W
LayerCount: 2
Fore
SplineSet
910 200 m 1,1,-1
 577 200 l 1,2,3
 582 160 582 160 612.5 142.5 c 128,-1,4
 643 125 643 125 706 125 c 0,5,6
 781 125 781 125 849 148 c 1,7,-1
 874 18 l 1,8,9
 840 5 840 5 791.5 -2.5 c 128,-1,10
 743 -10 743 -10 694 -10 c 0,11,12
 565 -10 565 -10 487 42 c 1,13,14
 418 -10 418 -10 305 -10 c 0,15,16
 170 -10 170 -10 100 59 c 128,-1,17
 30 128 30 128 30 260 c 256,18,19
 30 392 30 392 100 461 c 128,-1,20
 170 530 170 530 305 530 c 0,21,22
 416 530 416 530 483 481 c 1,23,24
 550 530 550 530 654 530 c 0,25,26
 777 530 777 530 845.5 461.5 c 128,-1,27
 914 393 914 393 914 270 c 0,28,0
 914 222 914 222 910 200 c 1,1,-1
600.5 383 m 128,-1,30
 582 361 582 361 578 315 c 1,31,-1
 730 315 l 1,32,33
 726 361 726 361 707.5 383 c 128,-1,34
 689 405 689 405 654 405 c 256,35,29
 619 405 619 405 600.5 383 c 128,-1,30
365 161.5 m 128,-1,37
 384 193 384 193 384 260 c 256,38,39
 384 327 384 327 365 358.5 c 128,-1,40
 346 390 346 390 305 390 c 256,41,42
 264 390 264 390 245 358.5 c 128,-1,43
 226 327 226 327 226 260 c 256,44,45
 226 193 226 193 245 161.5 c 128,-1,46
 264 130 264 130 305 130 c 256,47,36
 346 130 346 130 365 161.5 c 128,-1,37
EndSplineSet
EndChar

StartChar: p
Encoding: 112 112 338
Width: 635
Flags: W
LayerCount: 2
Fore
SplineSet
555 460.5 m 128,-1,1
 605 391 605 391 605 260 c 256,2,3
 605 129 605 129 555 59.5 c 128,-1,4
 505 -10 505 -10 410 -10 c 0,5,6
 364 -10 364 -10 327 7 c 128,-1,7
 290 24 290 24 257 60 c 1,8,-1
 255 60 l 1,9,-1
 255 -220 l 1,10,-1
 59 -220 l 1,11,-1
 59 520 l 1,12,-1
 245 520 l 1,13,-1
 247 460 l 1,14,-1
 249 460 l 1,15,16
 286 496 286 496 325 513 c 128,-1,17
 364 530 364 530 410 530 c 0,18,0
 505 530 505 530 555 460.5 c 128,-1,1
393 170.5 m 128,-1,20
 413 201 413 201 413 260 c 256,21,22
 413 319 413 319 393 349.5 c 128,-1,23
 373 380 373 380 334 380 c 0,24,25
 296 380 296 380 275.5 351 c 128,-1,26
 255 322 255 322 255 270 c 2,27,-1
 255 250 l 2,28,29
 255 198 255 198 275.5 169 c 128,-1,30
 296 140 296 140 334 140 c 0,31,19
 373 140 373 140 393 170.5 c 128,-1,20
EndSplineSet
EndChar

StartChar: thorn
Encoding: 254 254 339
Width: 638
Flags: W
LayerCount: 2
Fore
SplineSet
555 460.5 m 128,-1,1
 605 391 605 391 605 260 c 256,2,3
 605 129 605 129 555 59.5 c 128,-1,4
 505 -10 505 -10 410 -10 c 0,5,6
 364 -10 364 -10 327 7 c 128,-1,7
 290 24 290 24 257 60 c 1,8,-1
 255 60 l 1,9,-1
 255 -220 l 1,10,-1
 59 -220 l 1,11,-1
 59 750 l 1,12,-1
 255 750 l 1,13,-1
 255 460 l 1,14,-1
 257 460 l 1,15,16
 290 496 290 496 327 513 c 128,-1,17
 364 530 364 530 410 530 c 0,18,0
 505 530 505 530 555 460.5 c 128,-1,1
393 170.5 m 128,-1,20
 413 201 413 201 413 260 c 256,21,22
 413 319 413 319 393 349.5 c 128,-1,23
 373 380 373 380 334 380 c 0,24,25
 296 380 296 380 275.5 351 c 128,-1,26
 255 322 255 322 255 270 c 2,27,-1
 255 250 l 2,28,29
 255 198 255 198 275.5 169 c 128,-1,30
 296 140 296 140 334 140 c 0,31,19
 373 140 373 140 393 170.5 c 128,-1,20
EndSplineSet
EndChar

StartChar: q
Encoding: 113 113 340
Width: 635
Flags: W
LayerCount: 2
Fore
SplineSet
576 520 m 1,0,-1
 576 -220 l 1,1,-1
 380 -220 l 1,2,-1
 380 60 l 1,3,-1
 378 60 l 1,4,5
 345 24 345 24 308 7 c 128,-1,6
 271 -10 271 -10 225 -10 c 0,7,8
 130 -10 130 -10 80 59.5 c 128,-1,9
 30 129 30 129 30 260 c 256,10,11
 30 391 30 391 80 460.5 c 128,-1,12
 130 530 130 530 225 530 c 0,13,14
 271 530 271 530 310 513 c 128,-1,15
 349 496 349 496 386 460 c 1,16,-1
 388 460 l 1,17,-1
 390 520 l 1,18,-1
 576 520 l 1,0,-1
359.5 169 m 128,-1,20
 380 198 380 198 380 250 c 2,21,-1
 380 270 l 2,22,23
 380 322 380 322 359.5 351 c 128,-1,24
 339 380 339 380 301 380 c 0,25,26
 262 380 262 380 242 349.5 c 128,-1,27
 222 319 222 319 222 260 c 256,28,29
 222 201 222 201 242 170.5 c 128,-1,30
 262 140 262 140 301 140 c 0,31,19
 339 140 339 140 359.5 169 c 128,-1,20
EndSplineSet
EndChar

StartChar: r
Encoding: 114 114 341
Width: 497
GlyphClass: 2
Flags: W
AnchorPoint: "Anchor-6" 260 520 basechar 0
AnchorPoint: "Anchor-4" 260 0 basechar 0
LayerCount: 2
Fore
SplineSet
479 530 m 1,1,-1
 479 370 l 1,2,3
 419 370 419 370 368 350 c 128,-1,4
 317 330 317 330 287 295.5 c 128,-1,5
 257 261 257 261 257 220 c 2,6,-1
 257 0 l 1,7,-1
 59 0 l 1,8,-1
 59 520 l 1,9,-1
 247 520 l 1,10,-1
 249 430 l 1,11,-1
 251 430 l 1,12,0
 346 530 346 530 479 530 c 1,1,-1
EndSplineSet
EndChar

StartChar: s
Encoding: 115 115 347
Width: 540
GlyphClass: 2
Flags: W
AnchorPoint: "Anchor-6" 270 520 basechar 0
AnchorPoint: "Anchor-4" 270 0 basechar 0
LayerCount: 2
Fore
SplineSet
30 32 m 1,1,-1
 72 165 l 1,2,3
 168 130 168 130 248 130 c 0,4,5
 282 130 282 130 296 136.5 c 128,-1,6
 310 143 310 143 310 158 c 0,7,8
 310 170 310 170 299 176.5 c 128,-1,9
 288 183 288 183 253 191 c 0,10,11
 172 210 172 210 125 234 c 128,-1,12
 78 258 78 258 56.5 290.5 c 128,-1,13
 35 323 35 323 35 370 c 0,14,15
 35 449 35 449 94.5 489.5 c 128,-1,16
 154 530 154 530 270 530 c 0,17,18
 381 530 381 530 500 494 c 1,19,-1
 458 361 l 1,20,21
 406 378 406 378 370 385 c 128,-1,22
 334 392 334 392 297 392 c 0,23,24
 264 392 264 392 249.5 386 c 128,-1,25
 235 380 235 380 235 366 c 0,26,27
 235 353 235 353 246 346 c 128,-1,28
 257 339 257 339 292 331 c 0,29,30
 404 307 404 307 457 264.5 c 128,-1,31
 510 222 510 222 510 155 c 0,32,33
 510 79 510 79 446 34.5 c 128,-1,34
 382 -10 382 -10 275 -10 c 0,35,0
 138 -10 138 -10 30 32 c 1,1,-1
EndSplineSet
EndChar

StartChar: scedilla
Encoding: 351 351 350
Width: 540
GlyphClass: 2
Flags: W
AnchorPoint: "Anchor-6" 270 520 basechar 0
AnchorPoint: "Anchor-4" 270 0 basechar 0
LayerCount: 2
Fore
SplineSet
482 69 m 128,-1,1
 454 32 454 32 403 12 c 1,2,3
 440 -32 440 -32 440 -82 c 0,4,5
 440 -148 440 -148 384 -184 c 128,-1,6
 328 -220 328 -220 225 -220 c 0,7,8
 154 -220 154 -220 100 -200 c 1,9,-1
 115 -65 l 1,10,11
 138 -74 138 -74 164.5 -79.5 c 128,-1,12
 191 -85 191 -85 213 -85 c 0,13,14
 238 -85 238 -85 251 -78 c 128,-1,15
 264 -71 264 -71 264 -57 c 0,16,17
 264 -32 264 -32 210 -7 c 1,18,19
 111 1 111 1 30 32 c 1,20,-1
 72 165 l 1,21,22
 168 130 168 130 248 130 c 0,23,24
 282 130 282 130 296 136.5 c 128,-1,25
 310 143 310 143 310 158 c 0,26,27
 310 170 310 170 299 176.5 c 128,-1,28
 288 183 288 183 253 191 c 0,29,30
 172 210 172 210 125 234 c 128,-1,31
 78 258 78 258 56.5 290.5 c 128,-1,32
 35 323 35 323 35 370 c 0,33,34
 35 449 35 449 94.5 489.5 c 128,-1,35
 154 530 154 530 270 530 c 0,36,37
 381 530 381 530 500 494 c 1,38,-1
 458 361 l 1,39,40
 406 378 406 378 370 385 c 128,-1,41
 334 392 334 392 297 392 c 0,42,43
 264 392 264 392 249.5 386 c 128,-1,44
 235 380 235 380 235 366 c 0,45,46
 235 353 235 353 246 346 c 128,-1,47
 257 339 257 339 292 331 c 0,48,49
 404 307 404 307 457 264.5 c 128,-1,50
 510 222 510 222 510 155 c 0,51,0
 510 106 510 106 482 69 c 128,-1,1
EndSplineSet
Substitution2: "'locl' Localized Forms in Latin lookup 4 subtable" uni0219
Substitution2: "'aalt' Access All Alternates in Latin lookup 0 subtable" uni0219
EndChar

StartChar: germandbls
Encoding: 223 223 353
Width: 636
Flags: W
LayerCount: 2
Fore
SplineSet
295 0 m 1,1,-1
 305 155 l 1,2,3
 342 145 342 145 365 145 c 0,4,5
 408 145 408 145 408 177 c 0,6,7
 408 191 408 191 396.5 211.5 c 128,-1,8
 385 232 385 232 354 274 c 0,9,10
 322 317 322 317 311 337 c 128,-1,11
 300 357 300 357 300 375 c 0,12,13
 300 394 300 394 311.5 415.5 c 128,-1,14
 323 437 323 437 352 474 c 0,15,16
 374 501 374 501 387 526.5 c 128,-1,17
 400 552 400 552 400 568 c 256,18,19
 400 584 400 584 383 592 c 128,-1,20
 366 600 366 600 330 600 c 0,21,22
 297 600 297 600 281.5 593.5 c 128,-1,23
 266 587 266 587 260.5 569 c 128,-1,24
 255 551 255 551 255 513 c 2,25,-1
 255 0 l 1,26,-1
 59 0 l 1,27,-1
 59 520 l 2,28,29
 59 643 59 643 122.5 701.5 c 128,-1,30
 186 760 186 760 320 760 c 0,31,32
 400 760 400 760 461 738.5 c 128,-1,33
 522 717 522 717 556 678.5 c 128,-1,34
 590 640 590 640 590 590 c 0,35,36
 590 565 590 565 578.5 536 c 128,-1,37
 567 507 567 507 540 465 c 0,38,39
 511 421 511 421 500.5 402.5 c 128,-1,40
 490 384 490 384 490 377 c 0,41,42
 490 368 490 368 505.5 342.5 c 128,-1,43
 521 317 521 317 544 288 c 0,44,45
 576 246 576 246 590 213 c 128,-1,46
 604 180 604 180 604 145 c 0,47,48
 604 71 604 71 550.5 30.5 c 128,-1,49
 497 -10 497 -10 400 -10 c 0,50,0
 358 -10 358 -10 295 0 c 1,1,-1
EndSplineSet
EndChar

StartChar: t
Encoding: 116 116 354
Width: 529
GlyphClass: 2
Flags: W
AnchorPoint: "Anchor-8" 235 0 basechar 0
AnchorPoint: "Anchor-7" 520 520 basechar 0
AnchorPoint: "Anchor-6" 268 520 basechar 0
AnchorPoint: "Anchor-4" 268 0 basechar 0
LayerCount: 2
Fore
SplineSet
169.5 34 m 128,-1,1
 124 78 124 78 124 180 c 2,2,-1
 124 380 l 1,3,-1
 14 380 l 1,4,-1
 14 520 l 1,5,-1
 124 520 l 1,6,-1
 124 710 l 1,7,-1
 322 710 l 1,8,-1
 322 520 l 1,9,-1
 477 520 l 1,10,-1
 477 380 l 1,11,-1
 322 380 l 1,12,-1
 322 205 l 2,13,14
 322 163 322 163 332.5 149 c 128,-1,15
 343 135 343 135 374 135 c 0,16,17
 416 135 416 135 459 150 c 1,18,-1
 479 10 l 1,19,20
 393 -10 393 -10 319 -10 c 0,21,0
 215 -10 215 -10 169.5 34 c 128,-1,1
EndSplineSet
EndChar

StartChar: tbar
Encoding: 359 359 355
Width: 525
GlyphClass: 2
Flags: W
AnchorPoint: "Anchor-8" 235 0 basechar 0
AnchorPoint: "Anchor-7" 520 520 basechar 0
AnchorPoint: "Anchor-6" 268 520 basechar 0
AnchorPoint: "Anchor-4" 268 0 basechar 0
LayerCount: 2
Fore
SplineSet
479 10 m 1,0,1
 393 -10 393 -10 319 -10 c 0,2,3
 215 -10 215 -10 169.5 34 c 128,-1,4
 124 78 124 78 124 180 c 1,5,-1
 14 180 l 1,6,-1
 14 320 l 1,7,-1
 124 320 l 1,8,-1
 124 380 l 1,9,-1
 14 380 l 1,10,-1
 14 520 l 1,11,-1
 124 520 l 1,12,-1
 124 710 l 1,13,-1
 322 710 l 1,14,-1
 322 520 l 1,15,-1
 477 520 l 1,16,-1
 477 380 l 1,17,-1
 322 380 l 1,18,-1
 322 320 l 1,19,-1
 474 320 l 1,20,-1
 474 180 l 1,21,-1
 323 180 l 1,22,23
 325 154 325 154 336 144.5 c 128,-1,24
 347 135 347 135 374 135 c 0,25,26
 416 135 416 135 459 150 c 1,27,-1
 479 10 l 1,0,1
EndSplineSet
EndChar

StartChar: uni0163
Encoding: 355 355 357
Width: 529
GlyphClass: 2
Flags: W
AnchorPoint: "Anchor-8" 235 0 basechar 0
AnchorPoint: "Anchor-7" 520 520 basechar 0
AnchorPoint: "Anchor-6" 268 520 basechar 0
AnchorPoint: "Anchor-4" 268 0 basechar 0
LayerCount: 2
Fore
SplineSet
483 -82 m 0,1,2
 483 -148 483 -148 427 -184 c 128,-1,3
 371 -220 371 -220 268 -220 c 0,4,5
 197 -220 197 -220 143 -200 c 1,6,-1
 158 -65 l 1,7,8
 181 -74 181 -74 207.5 -79.5 c 128,-1,9
 234 -85 234 -85 256 -85 c 0,10,11
 281 -85 281 -85 294 -78 c 128,-1,12
 307 -71 307 -71 307 -57 c 0,13,14
 307 -28 307 -28 241 -2 c 1,15,16
 180 12 180 12 152 55.5 c 128,-1,17
 124 99 124 99 124 180 c 2,18,-1
 124 380 l 1,19,-1
 14 380 l 1,20,-1
 14 520 l 1,21,-1
 124 520 l 1,22,-1
 124 710 l 1,23,-1
 322 710 l 1,24,-1
 322 520 l 1,25,-1
 477 520 l 1,26,-1
 477 380 l 1,27,-1
 322 380 l 1,28,-1
 322 205 l 2,29,30
 322 163 322 163 332.5 149 c 128,-1,31
 343 135 343 135 374 135 c 0,32,33
 416 135 416 135 459 150 c 1,34,-1
 479 10 l 1,35,-1
 452 4 l 1,36,0
 483 -37 483 -37 483 -82 c 0,1,2
EndSplineSet
Substitution2: "'locl' Localized Forms in Latin lookup 4 subtable" uni021B
Substitution2: "'aalt' Access All Alternates in Latin lookup 0 subtable" uni021B
EndChar

StartChar: u
Encoding: 117 117 359
Width: 622
GlyphClass: 2
Flags: W
AnchorPoint: "Anchor-7" 533 480 basechar 0
AnchorPoint: "Anchor-6" 311 520 basechar 0
AnchorPoint: "Anchor-5" 563 0 basechar 0
AnchorPoint: "Anchor-4" 311 0 basechar 0
LayerCount: 2
Fore
SplineSet
563 520 m 1,0,-1
 563 0 l 1,1,-1
 377 0 l 1,2,-1
 375 60 l 1,3,-1
 373 60 l 1,4,5
 341 23 341 23 306 6.5 c 128,-1,6
 271 -10 271 -10 223 -10 c 0,7,8
 134 -10 134 -10 93.5 40 c 128,-1,9
 53 90 53 90 53 200 c 2,10,-1
 53 520 l 1,11,-1
 249 520 l 1,12,-1
 249 240 l 2,13,14
 249 190 249 190 260 170 c 128,-1,15
 271 150 271 150 298 150 c 0,16,17
 328 150 328 150 347.5 170 c 128,-1,18
 367 190 367 190 367 220 c 2,19,-1
 367 520 l 1,20,-1
 563 520 l 1,0,-1
EndSplineSet
EndChar

StartChar: uhorn
Encoding: 432 432 368
Width: 772
GlyphClass: 2
Flags: W
AnchorPoint: "Anchor-7" 793 625 basechar 0
AnchorPoint: "Anchor-6" 311 520 basechar 0
AnchorPoint: "Anchor-5" 563 0 basechar 0
AnchorPoint: "Anchor-4" 311 0 basechar 0
LayerCount: 2
Fore
SplineSet
795 487 m 0,1,2
 795 398 795 398 754.5 351.5 c 128,-1,3
 714 305 714 305 638 305 c 0,4,5
 602 305 602 305 563 317 c 1,6,-1
 563 0 l 1,7,-1
 377 0 l 1,8,-1
 375 60 l 1,9,-1
 373 60 l 1,10,11
 341 23 341 23 306 6.5 c 128,-1,12
 271 -10 271 -10 223 -10 c 0,13,14
 134 -10 134 -10 93.5 40 c 128,-1,15
 53 90 53 90 53 200 c 2,16,-1
 53 520 l 1,17,-1
 249 520 l 1,18,-1
 249 240 l 2,19,20
 249 190 249 190 260 170 c 128,-1,21
 271 150 271 150 298 150 c 0,22,23
 328 150 328 150 347.5 170 c 128,-1,24
 367 190 367 190 367 220 c 2,25,-1
 367 520 l 1,26,-1
 563 520 l 1,27,-1
 563 451 l 2,28,29
 566 450 566 450 573 450 c 0,30,31
 594 450 594 450 606 464.5 c 128,-1,32
 618 479 618 479 618 505 c 0,33,34
 618 527 618 527 610.5 563.5 c 128,-1,35
 603 600 603 600 593 625 c 1,36,-1
 773 625 l 1,37,0
 795 562 795 562 795 487 c 0,1,2
EndSplineSet
EndChar

StartChar: uogonek
Encoding: 371 371 377
Width: 622
GlyphClass: 2
Flags: W
AnchorPoint: "Anchor-7" 533 480 basechar 0
AnchorPoint: "Anchor-6" 311 520 basechar 0
AnchorPoint: "Anchor-5" 563 0 basechar 0
AnchorPoint: "Anchor-4" 311 0 basechar 0
LayerCount: 2
Fore
SplineSet
655 -200 m 1,0,1
 601 -220 601 -220 530 -220 c 0,2,3
 427 -220 427 -220 371 -184 c 128,-1,4
 315 -148 315 -148 315 -82 c 0,5,6
 315 -50 315 -50 329.5 -21.5 c 128,-1,7
 344 7 344 7 376 38 c 1,8,-1
 375 60 l 1,9,-1
 373 60 l 1,10,11
 341 23 341 23 306 6.5 c 128,-1,12
 271 -10 271 -10 223 -10 c 0,13,14
 134 -10 134 -10 93.5 40 c 128,-1,15
 53 90 53 90 53 200 c 2,16,-1
 53 520 l 1,17,-1
 249 520 l 1,18,-1
 249 240 l 2,19,20
 249 190 249 190 260 170 c 128,-1,21
 271 150 271 150 298 150 c 0,22,23
 328 150 328 150 347.5 170 c 128,-1,24
 367 190 367 190 367 220 c 2,25,-1
 367 520 l 1,26,-1
 563 520 l 1,27,-1
 563 0 l 1,28,29
 491 -28 491 -28 491 -57 c 0,30,31
 491 -71 491 -71 504 -78 c 128,-1,32
 517 -85 517 -85 542 -85 c 0,33,34
 564 -85 564 -85 590.5 -79.5 c 128,-1,35
 617 -74 617 -74 640 -65 c 1,36,-1
 655 -200 l 1,0,1
EndSplineSet
EndChar

StartChar: uring
Encoding: 367 367 378
Width: 622
GlyphClass: 2
Flags: W
AnchorPoint: "Anchor-7" 533 480 basechar 0
AnchorPoint: "Anchor-6" 311 750 basechar 0
AnchorPoint: "Anchor-5" 563 0 basechar 0
AnchorPoint: "Anchor-4" 311 0 basechar 0
LayerCount: 2
Fore
SplineSet
563 520 m 1,0,-1
 563 0 l 1,1,-1
 377 0 l 1,2,-1
 375 60 l 1,3,-1
 373 60 l 1,4,5
 341 23 341 23 306 6.5 c 128,-1,6
 271 -10 271 -10 223 -10 c 0,7,8
 134 -10 134 -10 93.5 40 c 128,-1,9
 53 90 53 90 53 200 c 2,10,-1
 53 520 l 1,11,-1
 222 520 l 1,12,13
 185 543 185 543 163 581.5 c 128,-1,14
 141 620 141 620 141 665 c 0,15,16
 141 711 141 711 164 750 c 128,-1,17
 187 789 187 789 226 812 c 128,-1,18
 265 835 265 835 311 835 c 256,19,20
 357 835 357 835 396 812 c 128,-1,21
 435 789 435 789 458 750 c 128,-1,22
 481 711 481 711 481 665 c 0,23,24
 481 620 481 620 459 581.5 c 128,-1,25
 437 543 437 543 400 520 c 1,26,-1
 563 520 l 1,0,-1
272 704 m 128,-1,28
 256 688 256 688 256 665 c 256,29,30
 256 642 256 642 272 626 c 128,-1,31
 288 610 288 610 311 610 c 256,32,33
 334 610 334 610 350 626 c 128,-1,34
 366 642 366 642 366 665 c 256,35,36
 366 688 366 688 350 704 c 128,-1,37
 334 720 334 720 311 720 c 256,38,27
 288 720 288 720 272 704 c 128,-1,28
347.5 170 m 128,-1,40
 367 190 367 190 367 220 c 2,41,-1
 367 504 l 1,42,43
 340 495 340 495 311 495 c 0,44,45
 278 495 278 495 249 507 c 1,46,-1
 249 240 l 2,47,48
 249 190 249 190 260 170 c 128,-1,49
 271 150 271 150 298 150 c 0,50,39
 328 150 328 150 347.5 170 c 128,-1,40
EndSplineSet
EndChar

StartChar: v
Encoding: 118 118 380
Width: 588
Flags: W
LayerCount: 2
Fore
SplineSet
5 520 m 1,0,-1
 207 520 l 1,1,-1
 293 120 l 1,2,-1
 295 120 l 1,3,-1
 381 520 l 1,4,-1
 583 520 l 1,5,-1
 431 0 l 1,6,-1
 157 0 l 1,7,-1
 5 520 l 1,0,-1
EndSplineSet
EndChar

StartChar: w
Encoding: 119 119 381
Width: 832
GlyphClass: 2
Flags: W
AnchorPoint: "Anchor-6" 416 520 basechar 0
AnchorPoint: "Anchor-4" 416 0 basechar 0
LayerCount: 2
Fore
SplineSet
14 520 m 1,0,-1
 208 520 l 1,1,-1
 250 170 l 1,2,-1
 252 170 l 1,3,-1
 298 520 l 1,4,-1
 534 520 l 1,5,-1
 580 170 l 1,6,-1
 582 170 l 1,7,-1
 624 520 l 1,8,-1
 818 520 l 1,9,-1
 696 0 l 1,10,-1
 461 0 l 1,11,-1
 417 350 l 1,12,-1
 415 350 l 1,13,-1
 371 0 l 1,14,-1
 136 0 l 1,15,-1
 14 520 l 1,0,-1
EndSplineSet
EndChar

StartChar: x
Encoding: 120 120 386
Width: 590
Flags: W
LayerCount: 2
Fore
SplineSet
160 260 m 1,0,-1
 24 520 l 1,1,-1
 226 520 l 1,2,-1
 294 360 l 1,3,-1
 296 360 l 1,4,-1
 364 520 l 1,5,-1
 566 520 l 1,6,-1
 430 260 l 1,7,-1
 568 0 l 1,8,-1
 366 0 l 1,9,-1
 296 160 l 1,10,-1
 294 160 l 1,11,-1
 224 0 l 1,12,-1
 22 0 l 1,13,-1
 160 260 l 1,0,-1
EndSplineSet
EndChar

StartChar: y
Encoding: 121 121 387
Width: 592
GlyphClass: 2
Flags: W
AnchorPoint: "Anchor-6" 296 520 basechar 0
AnchorPoint: "Anchor-4" 296 0 basechar 0
LayerCount: 2
Fore
SplineSet
27 -88 m 1,0,1
 112 -88 112 -88 151 -68 c 128,-1,2
 190 -48 190 -48 202 0 c 1,3,-1
 2 520 l 1,4,-1
 212 520 l 1,5,-1
 286 170 l 1,6,-1
 288 170 l 1,7,-1
 382 520 l 1,8,-1
 582 520 l 1,9,-1
 387 -10 l 2,10,11
 343 -128 343 -128 263.5 -179 c 128,-1,12
 184 -230 184 -230 42 -230 c 1,13,-1
 27 -88 l 1,0,1
EndSplineSet
EndChar

StartChar: z
Encoding: 122 122 396
Width: 576
GlyphClass: 2
Flags: W
AnchorPoint: "Anchor-6" 288 520 basechar 0
AnchorPoint: "Anchor-4" 288 0 basechar 0
LayerCount: 2
Fore
SplineSet
53 140 m 1,0,-1
 276 378 l 1,1,-1
 276 380 l 1,2,-1
 53 380 l 1,3,-1
 53 520 l 1,4,-1
 523 520 l 1,5,-1
 523 380 l 1,6,-1
 300 142 l 1,7,-1
 300 140 l 1,8,-1
 523 140 l 1,9,-1
 523 0 l 1,10,-1
 53 0 l 1,11,-1
 53 140 l 1,0,-1
EndSplineSet
EndChar

StartChar: f_f
Encoding: 1114114 -1 400
Width: 928
GlyphClass: 3
Flags: W
LayerCount: 2
Fore
SplineSet
755 520 m 1,0,-1
 900 520 l 1,1,-1
 900 380 l 1,2,-1
 755 380 l 1,3,-1
 755 0 l 1,4,-1
 557 0 l 1,5,-1
 557 380 l 1,6,-1
 336 380 l 1,7,-1
 336 0 l 1,8,-1
 138 0 l 1,9,-1
 138 380 l 1,10,-1
 18 380 l 1,11,-1
 18 520 l 1,12,-1
 138 520 l 1,13,-1
 138 540 l 2,14,15
 138 647 138 647 194 703.5 c 128,-1,16
 250 760 250 760 356 760 c 0,17,18
 416 760 416 760 491 745 c 1,19,-1
 466 605 l 1,20,21
 426 620 426 620 391 620 c 0,22,23
 359 620 359 620 347.5 603.5 c 128,-1,24
 336 587 336 587 336 540 c 2,25,-1
 336 520 l 1,26,-1
 557 520 l 1,27,-1
 557 540 l 2,28,29
 557 647 557 647 613 703.5 c 128,-1,30
 669 760 669 760 775 760 c 0,31,32
 835 760 835 760 910 745 c 1,33,-1
 885 605 l 1,34,35
 845 620 845 620 810 620 c 0,36,37
 778 620 778 620 766.5 603.5 c 128,-1,38
 755 587 755 587 755 540 c 2,39,-1
 755 520 l 1,0,-1
EndSplineSet
Ligature2: "'liga' Standard Ligatures in Latin lookup 14 subtable" f f
EndChar

StartChar: f_f_l
Encoding: 1114116 -1 402
Width: 1374
GlyphClass: 3
Flags: W
LayerCount: 2
Fore
SplineSet
755 520 m 1,0,-1
 900 520 l 1,1,-1
 900 380 l 1,2,-1
 755 380 l 1,3,-1
 755 0 l 1,4,-1
 557 0 l 1,5,-1
 557 380 l 1,6,-1
 336 380 l 1,7,-1
 336 0 l 1,8,-1
 138 0 l 1,9,-1
 138 380 l 1,10,-1
 18 380 l 1,11,-1
 18 520 l 1,12,-1
 138 520 l 1,13,-1
 138 540 l 2,14,15
 138 646 138 646 194 704 c 0,16,17
 250 760 250 760 356 760 c 0,18,19
 416 760 416 760 491 745 c 1,20,-1
 466 605 l 1,21,22
 425.5 620 425.5 620 391 620 c 0,23,24
 359 620 359 620 348 604 c 0,25,26
 336 586 336 586 336 540 c 2,27,-1
 336 520 l 1,28,-1
 557 520 l 1,29,-1
 557 540 l 2,30,31
 557 646 557 646 613 704 c 0,32,33
 669 760 669 760 775 760 c 0,34,35
 835 760 835 760 910 745 c 1,36,-1
 885 605 l 1,37,38
 844.5 620 844.5 620 810 620 c 0,39,40
 779 620 779 620 766 604 c 0,41,42
 755 585 755 585 755 540 c 2,43,-1
 755 520 l 1,0,-1
1194 750 m 1,44,-1
 1194 210 l 2,45,46
 1194 164 1194 164 1204 146 c 0,47,48
 1216 130 1216 130 1244 130 c 0,49,50
 1287.5 130 1287.5 130 1334 145 c 1,51,-1
 1354 10 l 1,52,53
 1279 -10 1279 -10 1194 -10 c 0,54,55
 1091 -10 1091 -10 1042 36 c 0,56,57
 994 81 994 81 994 180 c 2,58,-1
 994 750 l 1,59,-1
 1194 750 l 1,44,-1
EndSplineSet
Ligature2: "'liga' Standard Ligatures in Latin lookup 14 subtable" f f l
EndChar

StartChar: fl
Encoding: 64258 64258 404
Width: 949
GlyphClass: 3
Flags: W
LayerCount: 2
Fore
SplineSet
18 380 m 1,0,-1
 18 520 l 1,1,-1
 138 520 l 1,2,-1
 138 540 l 2,3,4
 138 646 138 646 194 704 c 0,5,6
 250 760 250 760 356 760 c 0,7,8
 416 760 416 760 491 745 c 1,9,-1
 466 605 l 1,10,11
 425.5 620 425.5 620 391 620 c 0,12,13
 359 620 359 620 348 604 c 0,14,15
 336 586 336 586 336 540 c 2,16,-1
 336 520 l 1,17,-1
 481 520 l 1,18,-1
 481 380 l 1,19,-1
 336 380 l 1,20,-1
 336 0 l 1,21,-1
 138 0 l 1,22,-1
 138 380 l 1,23,-1
 18 380 l 1,0,-1
775 750 m 1,24,-1
 775 210 l 2,25,26
 775 161 775 161 786 146 c 0,27,28
 795 130 795 130 825 130 c 0,29,30
 868.5 130 868.5 130 915 145 c 1,31,-1
 935 10 l 1,32,33
 860 -10 860 -10 775 -10 c 0,34,35
 671 -10 671 -10 624 36 c 0,36,37
 575 81 575 81 575 180 c 2,38,-1
 575 750 l 1,39,-1
 775 750 l 1,24,-1
EndSplineSet
Ligature2: "'liga' Standard Ligatures in Latin lookup 14 subtable" f l
EndChar

StartChar: ordfeminine
Encoding: 170 170 405
Width: 474
Flags: W
LayerCount: 2
Fore
SplineSet
380.5 698.5 m 128,-1,1
 426 659 426 659 426 570 c 2,2,-1
 426 314 l 1,3,-1
 267 314 l 1,4,-1
 266 353 l 1,5,-1
 264 353 l 1,6,7
 243 330 243 330 214.5 318 c 128,-1,8
 186 306 186 306 154 306 c 0,9,10
 96 306 96 306 59 343 c 128,-1,11
 22 380 22 380 22 439 c 0,12,13
 22 510 22 510 81.5 549 c 128,-1,14
 141 588 141 588 250 588 c 2,15,-1
 259 588 l 1,16,17
 258 611 258 611 248.5 618.5 c 128,-1,18
 239 626 239 626 213 626 c 0,19,20
 178 626 178 626 138.5 616.5 c 128,-1,21
 99 607 99 607 62 590 c 1,22,-1
 42 702 l 1,23,24
 129 738 129 738 234 738 c 0,25,0
 335 738 335 738 380.5 698.5 c 128,-1,1
244 437 m 128,-1,27
 259 450 259 450 259 473 c 2,28,-1
 259 494 l 1,29,-1
 241 494 l 2,30,31
 199 494 199 494 181 485 c 128,-1,32
 163 476 163 476 163 455 c 0,33,34
 163 424 163 424 202 424 c 0,35,26
 229 424 229 424 244 437 c 128,-1,27
EndSplineSet
EndChar

StartChar: ordmasculine
Encoding: 186 186 406
Width: 494
Flags: W
LayerCount: 2
Fore
SplineSet
83 361 m 128,-1,1
 27 416 27 416 27 522 c 256,2,3
 27 628 27 628 83 683 c 128,-1,4
 139 738 139 738 247 738 c 0,5,6
 354 738 354 738 410.5 683 c 128,-1,7
 467 628 467 628 467 522 c 256,8,9
 467 416 467 416 410.5 361 c 128,-1,10
 354 306 354 306 247 306 c 0,11,0
 139 306 139 306 83 361 c 128,-1,1
287 450.5 m 128,-1,13
 300 473 300 473 300 522 c 256,14,15
 300 571 300 571 287 593.5 c 128,-1,16
 274 616 274 616 247 616 c 256,17,18
 220 616 220 616 207 593.5 c 128,-1,19
 194 571 194 571 194 522 c 256,20,21
 194 473 194 473 207 450.5 c 128,-1,22
 220 428 220 428 247 428 c 256,23,12
 274 428 274 428 287 450.5 c 128,-1,13
EndSplineSet
EndChar

StartChar: zero.lf
Encoding: 1114117 -1 417
Width: 660
Flags: W
LayerCount: 2
Fore
SplineSet
102 80 m 128,-1,1
 30 170 30 170 30 365 c 256,2,3
 30 560 30 560 102 650 c 128,-1,4
 174 740 174 740 330 740 c 256,5,6
 486 740 486 740 558 650 c 128,-1,7
 630 560 630 560 630 365 c 256,8,9
 630 170 630 170 558 80 c 128,-1,10
 486 -10 486 -10 330 -10 c 256,11,0
 174 -10 174 -10 102 80 c 128,-1,1
403.5 207 m 128,-1,13
 425 254 425 254 425 365 c 256,14,15
 425 476 425 476 403.5 523 c 128,-1,16
 382 570 382 570 330 570 c 256,17,18
 278 570 278 570 256.5 523 c 128,-1,19
 235 476 235 476 235 365 c 256,20,21
 235 254 235 254 256.5 207 c 128,-1,22
 278 160 278 160 330 160 c 256,23,12
 382 160 382 160 403.5 207 c 128,-1,13
EndSplineSet
Substitution2: "'tnum' Tabular Numbers in Latin lookup 11 subtable" zero
AlternateSubs2: "'aalt' Access All Alternates in Latin lookup 1 subtable" zero
EndChar

StartChar: one.lf
Encoding: 1114118 -1 418
Width: 660
Flags: W
LayerCount: 2
Fore
SplineSet
295 484 m 1,0,-1
 293 484 l 1,1,-1
 115 323 l 1,2,-1
 30 483 l 1,3,-1
 290 730 l 1,4,-1
 500 730 l 1,5,-1
 500 0 l 1,6,-1
 295 0 l 1,7,-1
 295 484 l 1,0,-1
EndSplineSet
Substitution2: "'tnum' Tabular Numbers in Latin lookup 11 subtable" one
AlternateSubs2: "'aalt' Access All Alternates in Latin lookup 1 subtable" one
EndChar

StartChar: two.lf
Encoding: 1114119 -1 419
Width: 660
Flags: W
LayerCount: 2
Fore
SplineSet
308 364 m 128,-1,1
 380 442 380 442 380 500 c 0,2,3
 380 534 380 534 358 552 c 128,-1,4
 336 570 336 570 295 570 c 0,5,6
 256 570 256 570 210 552.5 c 128,-1,7
 164 535 164 535 100 495 c 1,8,-1
 50 660 l 1,9,10
 101 696 101 696 176 718 c 128,-1,11
 251 740 251 740 325 740 c 0,12,13
 445 740 445 740 515 681 c 128,-1,14
 585 622 585 622 585 520 c 0,15,16
 585 332 585 332 340 167 c 1,17,-1
 340 165 l 1,18,-1
 590 165 l 1,19,-1
 590 0 l 1,20,-1
 70 0 l 1,21,-1
 70 165 l 1,22,0
 236 286 236 286 308 364 c 128,-1,1
EndSplineSet
Substitution2: "'tnum' Tabular Numbers in Latin lookup 11 subtable" two
AlternateSubs2: "'aalt' Access All Alternates in Latin lookup 1 subtable" two
EndChar

StartChar: three.lf
Encoding: 1114120 -1 420
Width: 660
Flags: W
LayerCount: 2
Fore
SplineSet
55 50 m 1,1,-1
 104 207 l 1,2,3
 160 179 160 179 202 167 c 128,-1,4
 244 155 244 155 285 155 c 0,5,6
 334 155 334 155 357 172 c 128,-1,7
 380 189 380 189 380 225 c 0,8,9
 380 253 380 253 364.5 267.5 c 128,-1,10
 349 282 349 282 313 288.5 c 128,-1,11
 277 295 277 295 210 295 c 2,12,-1
 170 295 l 1,13,-1
 170 440 l 1,14,-1
 341 563 l 1,15,-1
 341 565 l 1,16,-1
 70 565 l 1,17,-1
 70 730 l 1,18,-1
 575 730 l 1,19,-1
 575 565 l 1,20,-1
 390 432 l 1,21,-1
 390 430 l 1,22,-1
 400 430 l 2,23,24
 487 430 487 430 536 377 c 128,-1,25
 585 324 585 324 585 230 c 0,26,27
 585 115 585 115 512 52.5 c 128,-1,28
 439 -10 439 -10 305 -10 c 0,29,0
 173 -10 173 -10 55 50 c 1,1,-1
EndSplineSet
Substitution2: "'tnum' Tabular Numbers in Latin lookup 11 subtable" three
AlternateSubs2: "'aalt' Access All Alternates in Latin lookup 1 subtable" three
EndChar

StartChar: four.lf
Encoding: 1114121 -1 421
Width: 660
Flags: W
LayerCount: 2
Fore
SplineSet
335 120 m 1,0,-1
 15 120 l 1,1,-1
 15 285 l 1,2,-1
 335 730 l 1,3,-1
 535 730 l 1,4,-1
 535 285 l 1,5,-1
 625 285 l 1,6,-1
 625 120 l 1,7,-1
 535 120 l 1,8,-1
 535 0 l 1,9,-1
 335 0 l 1,10,-1
 335 120 l 1,0,-1
345 275 m 1,11,-1
 345 483 l 1,12,-1
 343 483 l 1,13,-1
 196 277 l 1,14,-1
 196 275 l 1,15,-1
 345 275 l 1,11,-1
EndSplineSet
Substitution2: "'tnum' Tabular Numbers in Latin lookup 11 subtable" four
AlternateSubs2: "'aalt' Access All Alternates in Latin lookup 1 subtable" four
EndChar

StartChar: five.lf
Encoding: 1114122 -1 422
Width: 660
Flags: W
LayerCount: 2
Fore
SplineSet
63 30 m 1,1,-1
 103 194 l 1,2,3
 154 174 154 174 194 164.5 c 128,-1,4
 234 155 234 155 273 155 c 0,5,6
 337 155 337 155 367.5 179.5 c 128,-1,7
 398 204 398 204 398 255 c 0,8,9
 398 325 398 325 338 325 c 0,10,11
 318 325 318 325 301.5 317 c 128,-1,12
 285 309 285 309 263 290 c 1,13,-1
 83 290 l 1,14,-1
 103 730 l 1,15,-1
 568 730 l 1,16,-1
 568 565 l 1,17,-1
 283 565 l 1,18,-1
 280 465 l 1,19,-1
 282 465 l 1,20,21
 302 473 302 473 320 476.5 c 128,-1,22
 338 480 338 480 363 480 c 0,23,24
 479 480 479 480 541 419.5 c 128,-1,25
 603 359 603 359 603 245 c 0,26,27
 603 117 603 117 523.5 53.5 c 128,-1,28
 444 -10 444 -10 283 -10 c 0,29,0
 168 -10 168 -10 63 30 c 1,1,-1
EndSplineSet
Substitution2: "'tnum' Tabular Numbers in Latin lookup 11 subtable" five
AlternateSubs2: "'aalt' Access All Alternates in Latin lookup 1 subtable" five
EndChar

StartChar: six.lf
Encoding: 1114123 -1 423
Width: 660
Flags: W
LayerCount: 2
Fore
SplineSet
111.5 61.5 m 128,-1,1
 40 133 40 133 40 280 c 0,2,3
 40 412 40 412 93 513 c 128,-1,4
 146 614 146 614 243.5 672.5 c 128,-1,5
 341 731 341 731 470 738 c 1,6,-1
 506 578 l 1,7,8
 406 574 406 574 349 547.5 c 128,-1,9
 292 521 292 521 263 466 c 1,10,-1
 265 464 l 1,11,12
 295 478 295 478 321.5 484 c 128,-1,13
 348 490 348 490 380 490 c 0,14,15
 492 490 492 490 556 426 c 128,-1,16
 620 362 620 362 620 250 c 0,17,18
 620 170 620 170 585 111.5 c 128,-1,19
 550 53 550 53 484.5 21.5 c 128,-1,20
 419 -10 419 -10 330 -10 c 0,21,0
 183 -10 183 -10 111.5 61.5 c 128,-1,1
396.5 171 m 128,-1,23
 420 197 420 197 420 245 c 256,24,25
 420 293 420 293 396.5 319 c 128,-1,26
 373 345 373 345 330 345 c 256,27,28
 287 345 287 345 263.5 319 c 128,-1,29
 240 293 240 293 240 245 c 256,30,31
 240 197 240 197 263.5 171 c 128,-1,32
 287 145 287 145 330 145 c 256,33,22
 373 145 373 145 396.5 171 c 128,-1,23
EndSplineSet
Substitution2: "'tnum' Tabular Numbers in Latin lookup 11 subtable" six
AlternateSubs2: "'aalt' Access All Alternates in Latin lookup 1 subtable" six
EndChar

StartChar: seven.lf
Encoding: 1114124 -1 424
Width: 660
Flags: W
LayerCount: 2
Fore
SplineSet
364 555 m 1,1,-1
 364 560 l 1,2,-1
 70 560 l 1,3,-1
 70 730 l 1,4,-1
 600 730 l 1,5,-1
 600 570 l 1,6,7
 518 430 518 430 460.5 300.5 c 128,-1,8
 403 171 403 171 349 0 c 1,9,-1
 129 0 l 1,10,0
 221 298 221 298 364 555 c 1,1,-1
EndSplineSet
Substitution2: "'tnum' Tabular Numbers in Latin lookup 11 subtable" seven
AlternateSubs2: "'aalt' Access All Alternates in Latin lookup 1 subtable" seven
EndChar

StartChar: eight.lf
Encoding: 1114125 -1 425
Width: 660
Flags: W
LayerCount: 2
Fore
SplineSet
170 15.5 m 128,-1,1
 102 41 102 41 66 88 c 128,-1,2
 30 135 30 135 30 200 c 0,3,4
 30 253 30 253 58 292.5 c 128,-1,5
 86 332 86 332 149 366 c 1,6,-1
 149 368 l 1,7,8
 102 403 102 403 76 451.5 c 128,-1,9
 50 500 50 500 50 550 c 0,10,11
 50 608 50 608 84.5 650.5 c 128,-1,12
 119 693 119 693 182 716.5 c 128,-1,13
 245 740 245 740 330 740 c 0,14,15
 413 740 413 740 476.5 716.5 c 128,-1,16
 540 693 540 693 575 649.5 c 128,-1,17
 610 606 610 606 610 550 c 0,18,19
 610 504 610 504 584 466 c 128,-1,20
 558 428 558 428 503 392 c 1,21,-1
 503 390 l 1,22,23
 630 325 630 325 630 200 c 0,24,25
 630 100 630 100 551 45 c 128,-1,26
 472 -10 472 -10 330 -10 c 0,27,0
 238 -10 238 -10 170 15.5 c 128,-1,1
393.5 485.5 m 128,-1,29
 410 505 410 505 410 530 c 0,30,31
 410 559 410 559 389 574.5 c 128,-1,32
 368 590 368 590 330 590 c 256,33,34
 292 590 292 590 271 574.5 c 128,-1,35
 250 559 250 559 250 530 c 0,36,37
 250 503 250 503 271 484 c 128,-1,38
 292 465 292 465 340 447 c 1,39,28
 377 466 377 466 393.5 485.5 c 128,-1,29
399 159.5 m 128,-1,41
 425 179 425 179 425 210 c 0,42,43
 425 239 425 239 398.5 260.5 c 128,-1,44
 372 282 372 282 307 306 c 1,45,46
 273 287 273 287 254 261.5 c 128,-1,47
 235 236 235 236 235 210 c 0,48,49
 235 178 235 178 261 159 c 128,-1,50
 287 140 287 140 330 140 c 256,51,40
 373 140 373 140 399 159.5 c 128,-1,41
EndSplineSet
Substitution2: "'tnum' Tabular Numbers in Latin lookup 11 subtable" eight
AlternateSubs2: "'aalt' Access All Alternates in Latin lookup 1 subtable" eight
EndChar

StartChar: nine.lf
Encoding: 1114126 -1 426
Width: 660
Flags: W
LayerCount: 2
Fore
SplineSet
548.5 668.5 m 128,-1,1
 620 597 620 597 620 450 c 0,2,3
 620 318 620 318 567 217 c 128,-1,4
 514 116 514 116 416.5 57.5 c 128,-1,5
 319 -1 319 -1 190 -8 c 1,6,-1
 154 152 l 1,7,8
 254 156 254 156 311 182.5 c 128,-1,9
 368 209 368 209 397 264 c 1,10,-1
 395 266 l 1,11,12
 365 252 365 252 338.5 246 c 128,-1,13
 312 240 312 240 280 240 c 0,14,15
 168 240 168 240 104 304 c 128,-1,16
 40 368 40 368 40 480 c 0,17,18
 40 560 40 560 75 618.5 c 128,-1,19
 110 677 110 677 175.5 708.5 c 128,-1,20
 241 740 241 740 330 740 c 0,21,0
 477 740 477 740 548.5 668.5 c 128,-1,1
263.5 559 m 128,-1,23
 240 533 240 533 240 485 c 256,24,25
 240 437 240 437 263.5 411 c 128,-1,26
 287 385 287 385 330 385 c 256,27,28
 373 385 373 385 396.5 411 c 128,-1,29
 420 437 420 437 420 485 c 256,30,31
 420 533 420 533 396.5 559 c 128,-1,32
 373 585 373 585 330 585 c 256,33,22
 287 585 287 585 263.5 559 c 128,-1,23
EndSplineSet
Substitution2: "'tnum' Tabular Numbers in Latin lookup 11 subtable" nine
AlternateSubs2: "'aalt' Access All Alternates in Latin lookup 1 subtable" nine
EndChar

StartChar: uni2070
Encoding: 8304 8304 427
Width: 400
Flags: W
LayerCount: 2
Fore
SplineSet
63 340 m 128,-1,1
 20 394 20 394 20 511 c 256,2,3
 20 628 20 628 63 682 c 128,-1,4
 106 736 106 736 200 736 c 256,5,6
 294 736 294 736 337 682 c 128,-1,7
 380 628 380 628 380 511 c 256,8,9
 380 394 380 394 337 340 c 128,-1,10
 294 286 294 286 200 286 c 256,11,0
 106 286 106 286 63 340 c 128,-1,1
228.5 430.5 m 128,-1,13
 237 453 237 453 237 511 c 256,14,15
 237 569 237 569 228.5 591.5 c 128,-1,16
 220 614 220 614 200 614 c 256,17,18
 180 614 180 614 171.5 591.5 c 128,-1,19
 163 569 163 569 163 511 c 256,20,21
 163 453 163 453 171.5 430.5 c 128,-1,22
 180 408 180 408 200 408 c 256,23,12
 220 408 220 408 228.5 430.5 c 128,-1,13
EndSplineSet
EndChar

StartChar: uni00B9
Encoding: 185 185 428
Width: 400
Flags: W
LayerCount: 2
Fore
SplineSet
170 555 m 1,0,-1
 168 555 l 1,1,-1
 75 467 l 1,2,-1
 14 582 l 1,3,-1
 170 730 l 1,4,-1
 316 730 l 1,5,-1
 316 292 l 1,6,-1
 170 292 l 1,7,-1
 170 555 l 1,0,-1
EndSplineSet
EndChar

StartChar: uni00B2
Encoding: 178 178 429
Width: 400
Flags: W
LayerCount: 2
Fore
SplineSet
173 508.5 m 128,-1,1
 210 545 210 545 210 575 c 0,2,3
 210 594 210 594 198 604 c 128,-1,4
 186 614 186 614 165 614 c 0,5,6
 126 614 126 614 62 573 c 1,7,-1
 32 688 l 1,8,9
 63 710 63 710 108 723 c 128,-1,10
 153 736 153 736 197 736 c 0,11,12
 269 736 269 736 311 700.5 c 128,-1,13
 353 665 353 665 353 604 c 0,14,15
 353 504 353 504 232 413 c 1,16,-1
 232 411 l 1,17,-1
 356 411 l 1,18,-1
 356 292 l 1,19,-1
 44 292 l 1,20,-1
 44 411 l 1,21,0
 136 472 136 472 173 508.5 c 128,-1,1
EndSplineSet
EndChar

StartChar: uni00B3
Encoding: 179 179 430
Width: 400
Flags: W
LayerCount: 2
Fore
SplineSet
32 322 m 1,1,-1
 61 429 l 1,2,3
 116 405 116 405 157 405 c 0,4,5
 207 405 207 405 207 437 c 0,6,7
 207 455 207 455 189 462 c 128,-1,8
 171 469 171 469 121 469 c 2,9,-1
 101 469 l 1,10,-1
 101 556 l 1,11,-1
 178 609 l 1,12,-1
 178 611 l 1,13,-1
 41 611 l 1,14,-1
 41 730 l 1,15,-1
 344 730 l 1,16,-1
 344 611 l 1,17,-1
 260 551 l 1,18,-1
 260 549 l 1,19,20
 300 549 300 549 325 516 c 128,-1,21
 350 483 350 483 350 430 c 0,22,23
 350 362 350 362 306 324 c 128,-1,24
 262 286 262 286 182 286 c 0,25,0
 103 286 103 286 32 322 c 1,1,-1
EndSplineSet
EndChar

StartChar: uni2074
Encoding: 8308 8308 431
Width: 400
Flags: W
LayerCount: 2
Fore
SplineSet
188 354 m 1,0,-1
 6 354 l 1,1,-1
 6 473 l 1,2,-1
 198 730 l 1,3,-1
 328 730 l 1,4,-1
 328 473 l 1,5,-1
 372 473 l 1,6,-1
 372 354 l 1,7,-1
 328 354 l 1,8,-1
 328 292 l 1,9,-1
 188 292 l 1,10,-1
 188 354 l 1,0,-1
198 463 m 1,11,-1
 198 566 l 1,12,-1
 196 566 l 1,13,-1
 121 465 l 1,14,-1
 121 463 l 1,15,-1
 198 463 l 1,11,-1
EndSplineSet
EndChar

StartChar: fraction
Encoding: 8260 8260 432
Width: 544
Flags: W
LayerCount: 2
Fore
SplineSet
387 730 m 1,0,-1
 537 730 l 1,1,-1
 157 0 l 1,2,-1
 7 0 l 1,3,-1
 387 730 l 1,0,-1
EndSplineSet
EndChar

StartChar: onehalf
Encoding: 189 189 433
Width: 943
Flags: W
LayerCount: 2
Fore
SplineSet
167 555 m 1,0,-1
 74 467 l 1,1,-1
 13 582 l 1,2,-1
 169 730 l 1,3,-1
 315 730 l 1,4,-1
 315 292 l 1,5,-1
 169 292 l 1,6,-1
 169 555 l 1,7,-1
 167 555 l 1,0,-1
582 730 m 1,8,-1
 732 730 l 1,9,-1
 352 0 l 1,10,-1
 202 0 l 1,11,-1
 582 730 l 1,8,-1
714 216.5 m 128,-1,13
 751 253 751 253 751 283 c 0,14,15
 751 302 751 302 739 312 c 128,-1,16
 727 322 727 322 706 322 c 0,17,18
 667 322 667 322 603 281 c 1,19,-1
 573 396 l 1,20,21
 604 418 604 418 649 431 c 128,-1,22
 694 444 694 444 738 444 c 0,23,24
 810 444 810 444 852 408.5 c 128,-1,25
 894 373 894 373 894 312 c 0,26,27
 894 212 894 212 773 121 c 1,28,-1
 773 119 l 1,29,-1
 897 119 l 1,30,-1
 897 0 l 1,31,-1
 585 0 l 1,32,-1
 585 119 l 1,33,12
 677 180 677 180 714 216.5 c 128,-1,13
EndSplineSet
Ligature2: "'frac' Diagonal Fractions in Latin lookup 7 subtable" one slash two
EndChar

StartChar: onequarter
Encoding: 188 188 434
Width: 910
Flags: W
LayerCount: 2
Fore
SplineSet
167 555 m 1,0,-1
 74 467 l 1,1,-1
 13 582 l 1,2,-1
 169 730 l 1,3,-1
 315 730 l 1,4,-1
 315 292 l 1,5,-1
 169 292 l 1,6,-1
 169 555 l 1,7,-1
 167 555 l 1,0,-1
582 730 m 1,8,-1
 732 730 l 1,9,-1
 352 0 l 1,10,-1
 202 0 l 1,11,-1
 582 730 l 1,8,-1
511 62 m 1,12,-1
 511 181 l 1,13,-1
 703 438 l 1,14,-1
 833 438 l 1,15,-1
 833 181 l 1,16,-1
 877 181 l 1,17,-1
 877 62 l 1,18,-1
 833 62 l 1,19,-1
 833 0 l 1,20,-1
 693 0 l 1,21,-1
 693 62 l 1,22,-1
 511 62 l 1,12,-1
703 274 m 1,23,-1
 701 274 l 1,24,-1
 626 173 l 1,25,-1
 626 171 l 1,26,-1
 703 171 l 1,27,-1
 703 274 l 1,23,-1
EndSplineSet
Ligature2: "'frac' Diagonal Fractions in Latin lookup 7 subtable" one slash four
EndChar

StartChar: threequarters
Encoding: 190 190 435
Width: 889
Flags: W
LayerCount: 2
Fore
SplineSet
33 322 m 1,1,-1
 62 429 l 1,2,3
 117 405 117 405 158 405 c 0,4,5
 208 405 208 405 208 437 c 0,6,7
 208 455 208 455 190 462 c 128,-1,8
 172 469 172 469 122 469 c 2,9,-1
 102 469 l 1,10,-1
 102 556 l 1,11,-1
 179 609 l 1,12,-1
 179 611 l 1,13,-1
 42 611 l 1,14,-1
 42 730 l 1,15,-1
 345 730 l 1,16,-1
 345 611 l 1,17,-1
 261 551 l 1,18,-1
 261 549 l 1,19,20
 301 549 301 549 326 516 c 128,-1,21
 351 483 351 483 351 430 c 0,22,23
 351 362 351 362 307 324 c 128,-1,24
 263 286 263 286 183 286 c 256,25,0
 103 286 103 286 33 322 c 1,1,-1
561 730 m 1,26,-1
 711 730 l 1,27,-1
 331 0 l 1,28,-1
 181 0 l 1,29,-1
 561 730 l 1,26,-1
490 62 m 1,30,-1
 490 181 l 1,31,-1
 682 438 l 1,32,-1
 812 438 l 1,33,-1
 812 181 l 1,34,-1
 856 181 l 1,35,-1
 856 62 l 1,36,-1
 812 62 l 1,37,-1
 812 0 l 1,38,-1
 672 0 l 1,39,-1
 672 62 l 1,40,-1
 490 62 l 1,30,-1
682 274 m 1,41,-1
 680 274 l 1,42,-1
 605 173 l 1,43,-1
 605 171 l 1,44,-1
 682 171 l 1,45,-1
 682 274 l 1,41,-1
EndSplineSet
Ligature2: "'frac' Diagonal Fractions in Latin lookup 7 subtable" three slash four
EndChar

StartChar: period
Encoding: 46 46 436
Width: 317
Flags: W
LayerCount: 2
Fore
SplineSet
65 200 m 1,0,-1
 265 200 l 1,1,-1
 265 0 l 1,2,-1
 65 0 l 1,3,-1
 65 200 l 1,0,-1
EndSplineSet
EndChar

StartChar: comma
Encoding: 44 44 437
Width: 317
Flags: W
LayerCount: 2
Fore
SplineSet
75 200 m 1,0,-1
 285 200 l 1,1,-1
 165 -100 l 1,2,-1
 15 -100 l 1,3,-1
 75 200 l 1,0,-1
EndSplineSet
EndChar

StartChar: colon
Encoding: 58 58 438
Width: 317
Flags: W
LayerCount: 2
Fore
SplineSet
65 520 m 1,0,-1
 265 520 l 1,1,-1
 265 320 l 1,2,-1
 65 320 l 1,3,-1
 65 520 l 1,0,-1
65 200 m 1,4,-1
 265 200 l 1,5,-1
 265 0 l 1,6,-1
 65 0 l 1,7,-1
 65 200 l 1,4,-1
EndSplineSet
Substitution2: "'aalt' Access All Alternates in Latin lookup 0 subtable" uniFF1A
EndChar

StartChar: semicolon
Encoding: 59 59 439
Width: 317
Flags: W
LayerCount: 2
Fore
SplineSet
75 520 m 1,0,-1
 275 520 l 1,1,-1
 275 320 l 1,2,-1
 75 320 l 1,3,-1
 75 520 l 1,0,-1
75 200 m 1,4,-1
 285 200 l 1,5,-1
 165 -100 l 1,6,-1
 15 -100 l 1,7,-1
 75 200 l 1,4,-1
EndSplineSet
EndChar

StartChar: exclam
Encoding: 33 33 441
Width: 384
Flags: W
LayerCount: 2
Fore
SplineSet
72 730 m 1,0,-1
 312 730 l 1,1,-1
 282 240 l 1,2,-1
 102 240 l 1,3,-1
 72 730 l 1,0,-1
92 170 m 1,4,-1
 292 170 l 1,5,-1
 292 0 l 1,6,-1
 92 0 l 1,7,-1
 92 170 l 1,4,-1
EndSplineSet
Substitution2: "'aalt' Access All Alternates in Latin lookup 0 subtable" uniFF01
EndChar

StartChar: exclamdown
Encoding: 161 161 442
Width: 384
Flags: W
LayerCount: 2
Fore
SplineSet
92 520 m 1,0,-1
 292 520 l 1,1,-1
 292 350 l 1,2,-1
 92 350 l 1,3,-1
 92 520 l 1,0,-1
102 280 m 1,4,-1
 282 280 l 1,5,-1
 312 -210 l 1,6,-1
 72 -210 l 1,7,-1
 102 280 l 1,4,-1
EndSplineSet
EndChar

StartChar: question
Encoding: 63 63 443
Width: 597
Flags: W
LayerCount: 2
Fore
SplineSet
183.5 342 m 128,-1,1
 216 391 216 391 288 446 c 0,2,3
 333 479 333 479 347 495 c 128,-1,4
 361 511 361 511 361 530 c 0,5,6
 361 555 361 555 341 565 c 128,-1,7
 321 575 321 575 271 575 c 0,8,9
 184 575 184 575 56 535 c 1,10,-1
 21 700 l 1,11,12
 84 719 84 719 157.5 729.5 c 128,-1,13
 231 740 231 740 301 740 c 0,14,15
 571 740 571 740 571 560 c 0,16,17
 571 502 571 502 543 457.5 c 128,-1,18
 515 413 515 413 448 365 c 0,19,20
 406 335 406 335 380.5 302 c 128,-1,21
 355 269 355 269 351 240 c 1,22,-1
 151 240 l 1,23,0
 151 293 151 293 183.5 342 c 128,-1,1
151 170 m 1,24,-1
 351 170 l 1,25,-1
 351 0 l 1,26,-1
 151 0 l 1,27,-1
 151 170 l 1,24,-1
EndSplineSet
Substitution2: "'aalt' Access All Alternates in Latin lookup 0 subtable" uniFF1F
EndChar

StartChar: questiondown
Encoding: 191 191 444
Width: 597
Flags: W
LayerCount: 2
Fore
SplineSet
246 350 m 1,0,-1
 246 520 l 1,1,-1
 446 520 l 1,2,-1
 446 350 l 1,3,-1
 246 350 l 1,0,-1
413.5 178 m 128,-1,5
 381 129 381 129 309 74 c 0,6,7
 264 41 264 41 250 25 c 128,-1,8
 236 9 236 9 236 -10 c 0,9,10
 236 -35 236 -35 256.5 -45 c 128,-1,11
 277 -55 277 -55 326 -55 c 0,12,13
 413 -55 413 -55 541 -15 c 1,14,-1
 576 -180 l 1,15,16
 513 -199 513 -199 439.5 -209.5 c 128,-1,17
 366 -220 366 -220 296 -220 c 0,18,19
 26 -220 26 -220 26 -40 c 0,20,21
 26 18 26 18 54 62.5 c 128,-1,22
 82 107 82 107 149 155 c 0,23,24
 191 185 191 185 216.5 218 c 128,-1,25
 242 251 242 251 246 280 c 1,26,-1
 446 280 l 1,27,4
 446 227 446 227 413.5 178 c 128,-1,5
EndSplineSet
EndChar

StartChar: bullet
Encoding: 8226 8226 446
Width: 436
Flags: W
LayerCount: 2
Fore
SplineSet
138 151.5 m 128,-1,1
 101 173 101 173 79.5 210 c 128,-1,2
 58 247 58 247 58 290 c 256,3,4
 58 333 58 333 79.5 370 c 128,-1,5
 101 407 101 407 138 428.5 c 128,-1,6
 175 450 175 450 218 450 c 256,7,8
 261 450 261 450 298 428.5 c 128,-1,9
 335 407 335 407 356.5 370 c 128,-1,10
 378 333 378 333 378 290 c 256,11,12
 378 247 378 247 356.5 210 c 128,-1,13
 335 173 335 173 298 151.5 c 128,-1,14
 261 130 261 130 218 130 c 256,15,0
 175 130 175 130 138 151.5 c 128,-1,1
EndSplineSet
EndChar

StartChar: asterisk
Encoding: 42 42 447
Width: 536
Flags: W
LayerCount: 2
Fore
SplineSet
72 388 m 1,0,-1
 154 493 l 1,1,-1
 26 529 l 1,2,-1
 73 673 l 1,3,-1
 197 627 l 1,4,-1
 193 760 l 1,5,-1
 343 760 l 1,6,-1
 339 627 l 1,7,-1
 463 673 l 1,8,-1
 510 529 l 1,9,-1
 382 493 l 1,10,-1
 464 388 l 1,11,-1
 342 300 l 1,12,-1
 268 410 l 1,13,-1
 194 300 l 1,14,-1
 72 388 l 1,0,-1
EndSplineSet
EndChar

StartChar: numbersign
Encoding: 35 35 448
Width: 699
Flags: W
LayerCount: 2
Fore
SplineSet
666 445 m 1,0,-1
 572 445 l 1,1,-1
 547 305 l 1,2,-1
 613 305 l 1,3,-1
 613 155 l 1,4,-1
 520 155 l 1,5,-1
 493 0 l 1,6,-1
 313 0 l 1,7,-1
 340 155 l 1,8,-1
 280 155 l 1,9,-1
 253 0 l 1,10,-1
 73 0 l 1,11,-1
 100 155 l 1,12,-1
 33 155 l 1,13,-1
 33 305 l 1,14,-1
 127 305 l 1,15,-1
 152 445 l 1,16,-1
 86 445 l 1,17,-1
 86 595 l 1,18,-1
 178 595 l 1,19,-1
 202 730 l 1,20,-1
 382 730 l 1,21,-1
 358 595 l 1,22,-1
 418 595 l 1,23,-1
 442 730 l 1,24,-1
 622 730 l 1,25,-1
 598 595 l 1,26,-1
 666 595 l 1,27,-1
 666 445 l 1,0,-1
301 300 m 1,28,-1
 371 300 l 1,29,-1
 398 450 l 1,30,-1
 328 450 l 1,31,-1
 301 300 l 1,28,-1
EndSplineSet
EndChar

StartChar: slash
Encoding: 47 47 449
Width: 544
Flags: W
LayerCount: 2
Fore
SplineSet
357 750 m 1,0,-1
 537 750 l 1,1,-1
 187 -40 l 1,2,-1
 7 -40 l 1,3,-1
 357 750 l 1,0,-1
EndSplineSet
EndChar

StartChar: backslash
Encoding: 92 92 450
Width: 544
Flags: W
LayerCount: 2
Fore
SplineSet
537 -40 m 1,0,-1
 357 -40 l 1,1,-1
 7 750 l 1,2,-1
 187 750 l 1,3,-1
 537 -40 l 1,0,-1
EndSplineSet
EndChar

StartChar: parenleft
Encoding: 40 40 451
Width: 409
Flags: W
LayerCount: 2
Fore
SplineSet
105.5 89 m 128,-1,1
 65 205 65 205 65 330 c 256,2,3
 65 455 65 455 105.5 571 c 128,-1,4
 146 687 146 687 219 770 c 1,5,-1
 383 770 l 1,6,7
 312 671 312 671 278.5 563.5 c 128,-1,8
 245 456 245 456 245 330 c 256,9,10
 245 204 245 204 278.5 96.5 c 128,-1,11
 312 -11 312 -11 383 -110 c 1,12,-1
 219 -110 l 1,13,0
 146 -27 146 -27 105.5 89 c 128,-1,1
EndSplineSet
Substitution2: "'aalt' Access All Alternates in Latin lookup 0 subtable" uniFF08
EndChar

StartChar: parenright
Encoding: 41 41 452
Width: 409
Flags: W
LayerCount: 2
Fore
SplineSet
26 -110 m 1,0,1
 97 -11 97 -11 130.5 96.5 c 128,-1,2
 164 204 164 204 164 330 c 256,3,4
 164 456 164 456 130.5 563.5 c 128,-1,5
 97 671 97 671 26 770 c 1,6,-1
 190 770 l 1,7,8
 263 687 263 687 303.5 571 c 128,-1,9
 344 455 344 455 344 330 c 256,10,11
 344 205 344 205 303.5 89 c 128,-1,12
 263 -27 263 -27 190 -110 c 1,13,-1
 26 -110 l 1,0,1
EndSplineSet
Substitution2: "'aalt' Access All Alternates in Latin lookup 0 subtable" uniFF09
EndChar

StartChar: braceleft
Encoding: 123 123 453
Width: 525
Flags: W
LayerCount: 2
Fore
SplineSet
221.5 -70.5 m 128,-1,1
 182 -31 182 -31 182 60 c 2,2,-1
 182 140 l 2,3,4
 182 201 182 201 162 225.5 c 128,-1,5
 142 250 142 250 92 250 c 2,6,-1
 52 250 l 1,7,-1
 52 410 l 1,8,-1
 92 410 l 2,9,10
 142 410 142 410 162 434.5 c 128,-1,11
 182 459 182 459 182 520 c 2,12,-1
 182 600 l 2,13,14
 182 691 182 691 221.5 730.5 c 128,-1,15
 261 770 261 770 352 770 c 2,16,-1
 482 770 l 1,17,-1
 482 640 l 1,18,-1
 442 640 l 2,19,20
 397 640 397 640 379.5 635 c 128,-1,21
 362 630 362 630 357 612.5 c 128,-1,22
 352 595 352 595 352 550 c 2,23,-1
 352 505 l 2,24,25
 352 431 352 431 324.5 391.5 c 128,-1,26
 297 352 297 352 232 331 c 1,27,-1
 232 329 l 1,28,29
 297 308 297 308 324.5 268.5 c 128,-1,30
 352 229 352 229 352 155 c 2,31,-1
 352 110 l 2,32,33
 352 65 352 65 357 47.5 c 128,-1,34
 362 30 362 30 379.5 25 c 128,-1,35
 397 20 397 20 442 20 c 2,36,-1
 482 20 l 1,37,-1
 482 -110 l 1,38,-1
 352 -110 l 2,39,0
 261 -110 261 -110 221.5 -70.5 c 128,-1,1
EndSplineSet
EndChar

StartChar: braceright
Encoding: 125 125 454
Width: 525
Flags: W
LayerCount: 2
Fore
SplineSet
43 -110 m 1,0,-1
 43 20 l 1,1,-1
 83 20 l 2,2,3
 128 20 128 20 145.5 25 c 128,-1,4
 163 30 163 30 168 47.5 c 128,-1,5
 173 65 173 65 173 110 c 2,6,-1
 173 155 l 2,7,8
 173 229 173 229 200.5 268.5 c 128,-1,9
 228 308 228 308 293 329 c 1,10,-1
 293 331 l 1,11,12
 228 352 228 352 200.5 391.5 c 128,-1,13
 173 431 173 431 173 505 c 2,14,-1
 173 550 l 2,15,16
 173 595 173 595 168 612.5 c 128,-1,17
 163 630 163 630 145.5 635 c 128,-1,18
 128 640 128 640 83 640 c 2,19,-1
 43 640 l 1,20,-1
 43 770 l 1,21,-1
 173 770 l 2,22,23
 264 770 264 770 303.5 730.5 c 128,-1,24
 343 691 343 691 343 600 c 2,25,-1
 343 520 l 2,26,27
 343 459 343 459 363 434.5 c 128,-1,28
 383 410 383 410 433 410 c 2,29,-1
 473 410 l 1,30,-1
 473 250 l 1,31,-1
 433 250 l 2,32,33
 383 250 383 250 363 225.5 c 128,-1,34
 343 201 343 201 343 140 c 2,35,-1
 343 60 l 2,36,37
 343 -31 343 -31 303.5 -70.5 c 128,-1,38
 264 -110 264 -110 173 -110 c 2,39,-1
 43 -110 l 1,0,-1
EndSplineSet
EndChar

StartChar: bracketleft
Encoding: 91 91 455
Width: 468
Flags: W
LayerCount: 2
Fore
SplineSet
72 770 m 1,0,-1
 432 770 l 1,1,-1
 432 640 l 1,2,-1
 242 640 l 1,3,-1
 242 20 l 1,4,-1
 432 20 l 1,5,-1
 432 -110 l 1,6,-1
 72 -110 l 1,7,-1
 72 770 l 1,0,-1
EndSplineSet
EndChar

StartChar: bracketright
Encoding: 93 93 456
Width: 468
Flags: W
LayerCount: 2
Fore
SplineSet
396 -110 m 1,0,-1
 36 -110 l 1,1,-1
 36 20 l 1,2,-1
 226 20 l 1,3,-1
 226 640 l 1,4,-1
 36 640 l 1,5,-1
 36 770 l 1,6,-1
 396 770 l 1,7,-1
 396 -110 l 1,0,-1
EndSplineSet
EndChar

StartChar: hyphen
Encoding: 45 45 457
Width: 454
Flags: W
LayerCount: 2
Fore
SplineSet
52 375 m 1,0,-1
 402 375 l 1,1,-1
 402 205 l 1,2,-1
 52 205 l 1,3,-1
 52 375 l 1,0,-1
EndSplineSet
EndChar

StartChar: endash
Encoding: 8211 8211 459
Width: 500
Flags: W
LayerCount: 2
Fore
SplineSet
0 375 m 1,0,-1
 500 375 l 1,1,-1
 500 205 l 1,2,-1
 0 205 l 1,3,-1
 0 375 l 1,0,-1
EndSplineSet
EndChar

StartChar: emdash
Encoding: 8212 8212 460
Width: 1000
Flags: W
LayerCount: 2
Fore
SplineSet
0 375 m 1,0,-1
 1000 375 l 1,1,-1
 1000 205 l 1,2,-1
 0 205 l 1,3,-1
 0 375 l 1,0,-1
EndSplineSet
EndChar

StartChar: uni2015
Encoding: 8213 8213 461
Width: 1000
Flags: W
LayerCount: 2
Fore
SplineSet
50 445 m 1,0,-1
 950 445 l 1,1,-1
 950 275 l 1,2,-1
 50 275 l 1,3,-1
 50 445 l 1,0,-1
EndSplineSet
EndChar

StartChar: underscore
Encoding: 95 95 462
Width: 640
Flags: W
LayerCount: 2
Fore
SplineSet
0 -70 m 1,0,-1
 640 -70 l 1,1,-1
 640 -200 l 1,2,-1
 0 -200 l 1,3,-1
 0 -70 l 1,0,-1
EndSplineSet
EndChar

StartChar: quoteleft
Encoding: 8216 8216 467
Width: 342
Flags: W
LayerCount: 2
Fore
SplineSet
236 470 m 1,0,-1
 26 470 l 1,1,-1
 146 770 l 1,2,-1
 296 770 l 1,3,-1
 236 470 l 1,0,-1
EndSplineSet
EndChar

StartChar: quoteright
Encoding: 8217 8217 468
Width: 342
Flags: W
LayerCount: 2
Fore
SplineSet
106 770 m 1,0,-1
 316 770 l 1,1,-1
 196 470 l 1,2,-1
 46 470 l 1,3,-1
 106 770 l 1,0,-1
EndSplineSet
EndChar

StartChar: guillemotleft
Encoding: 171 171 469
Width: 603
Flags: W
LayerCount: 2
Fore
SplineSet
5 290 m 1,0,-1
 158 520 l 1,1,-1
 331 520 l 1,2,-1
 173 290 l 1,3,-1
 331 60 l 1,4,-1
 158 60 l 1,5,-1
 5 290 l 1,0,-1
255 290 m 1,6,-1
 408 520 l 1,7,-1
 581 520 l 1,8,-1
 423 290 l 1,9,-1
 581 60 l 1,10,-1
 408 60 l 1,11,-1
 255 290 l 1,6,-1
EndSplineSet
EndChar

StartChar: guillemotright
Encoding: 187 187 470
Width: 603
Flags: W
LayerCount: 2
Fore
SplineSet
195 60 m 1,0,-1
 22 60 l 1,1,-1
 180 290 l 1,2,-1
 22 520 l 1,3,-1
 195 520 l 1,4,-1
 348 290 l 1,5,-1
 195 60 l 1,0,-1
445 60 m 1,6,-1
 272 60 l 1,7,-1
 430 290 l 1,8,-1
 272 520 l 1,9,-1
 445 520 l 1,10,-1
 598 290 l 1,11,-1
 445 60 l 1,6,-1
EndSplineSet
EndChar

StartChar: guilsinglleft
Encoding: 8249 8249 471
Width: 367
Flags: W
LayerCount: 2
Fore
SplineSet
5 290 m 1,0,-1
 165 520 l 1,1,-1
 345 520 l 1,2,-1
 180 290 l 1,3,-1
 345 60 l 1,4,-1
 165 60 l 1,5,-1
 5 290 l 1,0,-1
EndSplineSet
EndChar

StartChar: guilsinglright
Encoding: 8250 8250 472
Width: 367
Flags: W
LayerCount: 2
Fore
SplineSet
202 60 m 1,0,-1
 22 60 l 1,1,-1
 187 290 l 1,2,-1
 22 520 l 1,3,-1
 202 520 l 1,4,-1
 362 290 l 1,5,-1
 202 60 l 1,0,-1
EndSplineSet
EndChar

StartChar: quotesingle
Encoding: 39 39 474
Width: 340
Flags: W
LayerCount: 2
Fore
SplineSet
65 770 m 1,0,-1
 275 770 l 1,1,-1
 245 470 l 1,2,-1
 95 470 l 1,3,-1
 65 770 l 1,0,-1
EndSplineSet
EndChar

StartChar: uni20B5
Encoding: 8373 8373 476
Width: 726
Flags: W
LayerCount: 2
Fore
SplineSet
687 56 m 1,0,1
 602 8 602 8 495 -6 c 1,2,-1
 495 -105 l 1,3,-1
 345 -105 l 1,4,-1
 345 -6 l 1,5,6
 193 13 193 13 112.5 108 c 128,-1,7
 32 203 32 203 32 365 c 256,8,9
 32 527 32 527 112.5 622 c 128,-1,10
 193 717 193 717 345 736 c 1,11,-1
 345 835 l 1,12,-1
 495 835 l 1,13,-1
 495 736 l 1,14,15
 602 722 602 722 687 674 c 1,16,-1
 607 519 l 1,17,18
 548 550 548 550 495 562 c 1,19,-1
 495 168 l 1,20,21
 548 180 548 180 607 211 c 1,22,-1
 687 56 l 1,0,1
257 240 m 128,-1,24
 287 191 287 191 345 171 c 1,25,-1
 345 559 l 1,26,27
 287 539 287 539 257 490 c 128,-1,28
 227 441 227 441 227 365 c 256,29,23
 227 289 227 289 257 240 c 128,-1,24
EndSplineSet
EndChar

StartChar: cent
Encoding: 162 162 477
Width: 582
Flags: W
LayerCount: 2
Fore
SplineSet
540 30 m 1,0,1
 488 7 488 7 439 -2 c 1,2,-1
 439 -105 l 1,3,-1
 299 -105 l 1,4,-1
 299 -8 l 1,5,6
 169 3 169 3 99.5 72.5 c 128,-1,7
 30 142 30 142 30 260 c 256,8,9
 30 378 30 378 99.5 447.5 c 128,-1,10
 169 517 169 517 299 528 c 1,11,-1
 299 625 l 1,12,-1
 439 625 l 1,13,-1
 439 522 l 1,14,15
 488 513 488 513 540 490 c 1,16,-1
 500 355 l 1,17,18
 462 371 462 371 439 377 c 1,19,-1
 439 143 l 1,20,21
 462 149 462 149 500 165 c 1,22,-1
 540 30 l 1,0,1
299 137 m 1,24,-1
 299 383 l 1,25,26
 220 359 220 359 220 260 c 256,27,23
 220 161 220 161 299 137 c 1,24,-1
EndSplineSet
EndChar

StartChar: colonmonetary
Encoding: 8353 8353 478
Width: 726
Flags: W
LayerCount: 2
Fore
SplineSet
687 56 m 1,0,1
 612 13 612 13 519 -2 c 1,2,-1
 510 -105 l 1,3,-1
 390 -105 l 1,4,-1
 398 -10 l 1,5,-1
 358 -7 l 1,6,-1
 350 -105 l 1,7,-1
 230 -105 l 1,8,-1
 241 19 l 1,9,10
 139 58 139 58 85.5 146 c 128,-1,11
 32 234 32 234 32 365 c 0,12,13
 32 514 32 514 101 607 c 128,-1,14
 170 700 170 700 301 728 c 1,15,-1
 310 835 l 1,16,-1
 430 835 l 1,17,-1
 422 740 l 1,18,19
 449 740 449 740 462 739 c 1,20,-1
 470 835 l 1,21,-1
 590 835 l 1,22,-1
 580 719 l 1,23,24
 635 703 635 703 687 674 c 1,25,-1
 607 519 l 1,26,-1
 565 539 l 1,27,-1
 534 179 l 1,28,29
 564 189 564 189 607 211 c 1,30,-1
 687 56 l 1,0,1
413 160 m 1,32,-1
 447 569 l 1,33,34
 439 570 439 570 423 570 c 2,35,-1
 407 570 l 1,36,-1
 373 164 l 1,37,31
 385 162 385 162 413 160 c 1,32,-1
259 236 m 1,39,-1
 283 523 l 1,40,41
 227 470 227 470 227 365 c 0,42,38
 227 286 227 286 259 236 c 1,39,-1
EndSplineSet
EndChar

StartChar: currency
Encoding: 164 164 479
Width: 700
Flags: W
LayerCount: 2
Fore
SplineSet
572 249 m 1,1,-1
 658 163 l 1,2,-1
 552 57 l 1,3,-1
 466 143 l 1,4,5
 412 115 412 115 350 115 c 256,6,7
 288 115 288 115 234 143 c 1,8,-1
 148 57 l 1,9,-1
 42 163 l 1,10,-1
 128 249 l 1,11,12
 100 303 100 303 100 365 c 256,13,14
 100 427 100 427 128 481 c 1,15,-1
 42 567 l 1,16,-1
 148 673 l 1,17,-1
 234 587 l 1,18,19
 288 615 288 615 350 615 c 256,20,21
 412 615 412 615 466 587 c 1,22,-1
 552 673 l 1,23,-1
 658 567 l 1,24,-1
 572 481 l 1,25,26
 600 427 600 427 600 365 c 256,27,0
 600 303 600 303 572 249 c 1,1,-1
410 305 m 128,-1,29
 435 330 435 330 435 365 c 256,30,31
 435 400 435 400 410 425 c 128,-1,32
 385 450 385 450 350 450 c 256,33,34
 315 450 315 450 290 425 c 128,-1,35
 265 400 265 400 265 365 c 256,36,37
 265 330 265 330 290 305 c 128,-1,38
 315 280 315 280 350 280 c 256,39,28
 385 280 385 280 410 305 c 128,-1,29
EndSplineSet
EndChar

StartChar: dollar
Encoding: 36 36 480
Width: 663
Flags: W
LayerCount: 2
Fore
SplineSet
588.5 95.5 m 128,-1,1
 553 45 553 45 487 17.5 c 128,-1,2
 421 -10 421 -10 331 -10 c 1,3,-1
 331 -105 l 1,4,-1
 181 -105 l 1,5,-1
 181 6 l 1,6,7
 98 26 98 26 46 64 c 1,8,-1
 96 229 l 1,9,10
 131 206 131 206 181 186 c 1,11,-1
 181 329 l 1,12,13
 105 368 105 368 72 414 c 128,-1,14
 39 460 39 460 39 525 c 0,15,16
 39 627 39 627 114 682.5 c 128,-1,17
 189 738 189 738 331 740 c 1,18,-1
 331 835 l 1,19,-1
 481 835 l 1,20,-1
 481 726 l 1,21,22
 544 714 544 714 594 690 c 1,23,-1
 544 525 l 1,24,25
 513 541 513 541 481 552 c 1,26,-1
 481 404 l 1,27,28
 558 366 558 366 591 321.5 c 128,-1,29
 624 277 624 277 624 215 c 0,30,0
 624 146 624 146 588.5 95.5 c 128,-1,1
239 525 m 0,32,33
 239 506 239 506 259.5 492 c 128,-1,34
 280 478 280 478 331 463 c 1,35,-1
 331 574 l 1,36,31
 239 569 239 569 239 525 c 0,32,33
400 169 m 128,-1,38
 424 183 424 183 424 210 c 0,39,40
 424 230 424 230 404 243.5 c 128,-1,41
 384 257 384 257 331 272 c 1,42,-1
 331 155 l 1,43,37
 376 155 376 155 400 169 c 128,-1,38
EndSplineSet
EndChar

StartChar: dong
Encoding: 8363 8363 481
Width: 745
Flags: W
LayerCount: 2
Fore
SplineSet
695 706 m 1,0,-1
 695 594 l 1,1,-1
 595 594 l 1,2,-1
 595 150 l 1,3,-1
 409 150 l 1,4,-1
 407 186 l 1,5,-1
 405 186 l 1,6,7
 334 142 334 142 244 142 c 0,8,9
 151 142 151 142 100 198.5 c 128,-1,10
 49 255 49 255 49 358 c 256,11,12
 49 461 49 461 100 517.5 c 128,-1,13
 151 574 151 574 244 574 c 0,14,15
 333 574 333 574 397 530 c 1,16,-1
 399 530 l 1,17,-1
 399 594 l 1,18,-1
 275 594 l 1,19,-1
 275 706 l 1,20,-1
 399 706 l 1,21,-1
 399 750 l 1,22,-1
 595 750 l 1,23,-1
 595 706 l 1,24,-1
 695 706 l 1,0,-1
378.5 289.5 m 128,-1,26
 399 311 399 311 399 351 c 2,27,-1
 399 366 l 2,28,29
 399 405 399 405 378.5 426.5 c 128,-1,30
 358 448 358 448 320 448 c 256,31,32
 282 448 282 448 261.5 425 c 128,-1,33
 241 402 241 402 241 358 c 256,34,35
 241 314 241 314 261.5 291 c 128,-1,36
 282 268 282 268 320 268 c 256,37,25
 358 268 358 268 378.5 289.5 c 128,-1,26
54 0 m 1,38,-1
 54 112 l 1,39,-1
 695 112 l 1,40,-1
 695 0 l 1,41,-1
 54 0 l 1,38,-1
EndSplineSet
EndChar

StartChar: Euro
Encoding: 8364 8364 482
Width: 793
GlyphClass: 2
Flags: W
AnchorPoint: "Anchor-1" 477 730 basechar 0
AnchorPoint: "Anchor-0" 477 0 basechar 0
LayerCount: 2
Fore
SplineSet
588.5 172.5 m 128,-1,1
 628 185 628 185 674 211 c 1,2,-1
 754 56 l 1,3,4
 643 -10 643 -10 499 -10 c 0,5,6
 361 -10 361 -10 271.5 49 c 128,-1,7
 182 108 182 108 148 220 c 1,8,-1
 26 220 l 1,9,-1
 26 340 l 1,10,-1
 129 340 l 1,11,-1
 129 365 l 1,12,-1
 129 390 l 1,13,-1
 26 390 l 1,14,-1
 26 510 l 1,15,-1
 148 510 l 1,16,17
 182 622 182 622 271.5 681 c 128,-1,18
 361 740 361 740 499 740 c 0,19,20
 643 740 643 740 754 674 c 1,21,-1
 674 519 l 1,22,23
 628 545 628 545 588.5 557.5 c 128,-1,24
 549 570 549 570 509 570 c 0,25,26
 419 570 419 570 374 510 c 1,27,-1
 626 510 l 1,28,-1
 626 390 l 1,29,-1
 335 390 l 1,30,31
 334 382 334 382 334 365 c 256,32,33
 334 348 334 348 335 340 c 1,34,-1
 626 340 l 1,35,-1
 626 220 l 1,36,-1
 374 220 l 1,37,38
 419 160 419 160 509 160 c 0,39,0
 549 160 549 160 588.5 172.5 c 128,-1,1
EndSplineSet
EndChar

StartChar: florin
Encoding: 402 402 483
Width: 544
Flags: W
LayerCount: 2
Fore
SplineSet
18 -105 m 1,1,-1
 43 35 l 1,2,3
 84 20 84 20 118 20 c 0,4,5
 150 20 150 20 161.5 36.5 c 128,-1,6
 173 53 173 53 173 100 c 2,7,-1
 173 280 l 1,8,-1
 56 280 l 1,9,-1
 56 420 l 1,10,-1
 173 420 l 1,11,-1
 173 520 l 2,12,13
 173 627 173 627 229 683.5 c 128,-1,14
 285 740 285 740 391 740 c 0,15,16
 451 740 451 740 526 725 c 1,17,-1
 501 585 l 1,18,19
 461 600 461 600 426 600 c 0,20,21
 394 600 394 600 382.5 583.5 c 128,-1,22
 371 567 371 567 371 520 c 2,23,-1
 371 420 l 1,24,-1
 516 420 l 1,25,-1
 516 280 l 1,26,-1
 371 280 l 1,27,-1
 371 100 l 2,28,29
 371 -7 371 -7 315 -63.5 c 128,-1,30
 259 -120 259 -120 153 -120 c 0,31,0
 93 -120 93 -120 18 -105 c 1,1,-1
EndSplineSet
EndChar

StartChar: franc
Encoding: 8355 8355 484
Width: 666
Flags: W
LayerCount: 2
Fore
SplineSet
617 565 m 1,0,-1
 327 565 l 1,1,-1
 327 460 l 1,2,-1
 597 460 l 1,3,-1
 597 300 l 1,4,-1
 327 300 l 1,5,-1
 327 215 l 1,6,-1
 522 215 l 1,7,-1
 522 75 l 1,8,-1
 327 75 l 1,9,-1
 327 0 l 1,10,-1
 127 0 l 1,11,-1
 127 75 l 1,12,-1
 22 75 l 1,13,-1
 22 215 l 1,14,-1
 127 215 l 1,15,-1
 127 730 l 1,16,-1
 617 730 l 1,17,-1
 617 565 l 1,0,-1
EndSplineSet
EndChar

StartChar: uni20B2
Encoding: 8370 8370 485
Width: 797
Flags: W
LayerCount: 2
Fore
SplineSet
742 50 m 1,0,1
 684 22 684 22 612 6.5 c 128,-1,2
 540 -9 540 -9 460 -10 c 1,3,-1
 460 -105 l 1,4,-1
 310 -105 l 1,5,-1
 310 5 l 1,6,7
 177 37 177 37 104.5 130 c 128,-1,8
 32 223 32 223 32 365 c 256,9,10
 32 507 32 507 104.5 600 c 128,-1,11
 177 693 177 693 310 725 c 1,12,-1
 310 835 l 1,13,-1
 460 835 l 1,14,-1
 460 740 l 1,15,16
 615 738 615 738 716 674 c 1,17,-1
 642 524 l 1,18,19
 555 570 555 570 460 575 c 1,20,-1
 460 452 l 1,21,-1
 742 452 l 1,22,-1
 742 50 l 1,0,1
310 186 m 1,24,-1
 310 544 l 1,25,26
 227 494 227 494 227 365 c 256,27,23
 227 236 227 236 310 186 c 1,24,-1
460 155 m 1,28,29
 505 158 505 158 542 169 c 1,30,-1
 542 287 l 1,31,-1
 460 287 l 1,32,-1
 460 155 l 1,28,29
EndSplineSet
EndChar

StartChar: uni20AD
Encoding: 8365 8365 486
Width: 809
GlyphClass: 2
Flags: W
AnchorPoint: "Anchor-1" 402 730 basechar 0
AnchorPoint: "Anchor-0" 402 0 basechar 0
LayerCount: 2
Fore
SplineSet
757 450 m 1,0,-1
 757 310 l 1,1,-1
 561 310 l 1,2,-1
 757 0 l 1,3,-1
 527 0 l 1,4,-1
 346 310 l 1,5,-1
 327 310 l 1,6,-1
 327 0 l 1,7,-1
 127 0 l 1,8,-1
 127 310 l 1,9,-1
 22 310 l 1,10,-1
 22 450 l 1,11,-1
 127 450 l 1,12,-1
 127 730 l 1,13,-1
 327 730 l 1,14,-1
 327 450 l 1,15,-1
 347 450 l 1,16,-1
 517 730 l 1,17,-1
 747 730 l 1,18,-1
 563 450 l 1,19,-1
 757 450 l 1,0,-1
EndSplineSet
EndChar

StartChar: lira
Encoding: 8356 8356 487
Width: 667
Flags: W
LayerCount: 2
Fore
SplineSet
612 160 m 1,0,-1
 612 0 l 1,1,-1
 72 0 l 1,2,-1
 72 160 l 1,3,4
 133 165 133 165 153 231 c 1,5,-1
 72 231 l 1,6,-1
 72 351 l 1,7,-1
 162 351 l 1,8,-1
 162 401 l 1,9,-1
 72 401 l 1,10,-1
 72 521 l 1,11,-1
 162 521 l 1,12,13
 162 628 162 628 230 684 c 128,-1,14
 298 740 298 740 427 740 c 0,15,16
 507 740 507 740 592 715 c 1,17,-1
 567 555 l 1,18,19
 536 569 536 569 510 574.5 c 128,-1,20
 484 580 484 580 452 580 c 0,21,22
 407 580 407 580 387 567 c 128,-1,23
 367 554 367 554 363 521 c 1,24,-1
 547 521 l 1,25,-1
 547 401 l 1,26,-1
 362 401 l 1,27,-1
 362 351 l 1,28,-1
 547 351 l 1,29,-1
 547 231 l 1,30,-1
 353 231 l 1,31,32
 345 205 345 205 330.5 187 c 128,-1,33
 316 169 316 169 297 162 c 1,34,-1
 297 160 l 1,35,-1
 612 160 l 1,0,-1
EndSplineSet
EndChar

StartChar: uni20BA
Encoding: 8378 8378 488
Width: 697
Flags: W
LayerCount: 2
Fore
SplineSet
667 340 m 1,0,1
 667 217 667 217 615 140 c 128,-1,2
 563 63 563 63 453 26.5 c 128,-1,3
 343 -10 343 -10 167 -10 c 2,4,-1
 127 -10 l 1,5,-1
 127 309 l 1,6,-1
 22 291 l 1,7,-1
 22 411 l 1,8,-1
 127 429 l 1,9,-1
 127 479 l 1,10,-1
 22 461 l 1,11,-1
 22 581 l 1,12,-1
 127 599 l 1,13,-1
 127 730 l 1,14,-1
 332 730 l 1,15,-1
 332 633 l 1,16,-1
 497 661 l 1,17,-1
 497 541 l 1,18,-1
 332 513 l 1,19,-1
 332 463 l 1,20,-1
 497 491 l 1,21,-1
 497 371 l 1,22,-1
 332 343 l 1,23,-1
 332 172 l 1,24,25
 414 172 414 172 455.5 214.5 c 128,-1,26
 497 257 497 257 497 340 c 1,27,-1
 667 340 l 1,0,1
EndSplineSet
EndChar

StartChar: uni20BC
Encoding: 8380 8380 489
Width: 808
Flags: W
LayerCount: 2
Fore
SplineSet
680 660 m 128,-1,1
 749 589 749 589 749 460 c 2,2,-1
 749 0 l 1,3,-1
 559 0 l 1,4,-1
 559 435 l 2,5,6
 559 504 559 504 541.5 534.5 c 128,-1,7
 524 565 524 565 479 569 c 1,8,-1
 479 0 l 1,9,-1
 329 0 l 1,10,-1
 329 569 l 1,11,12
 284 565 284 565 266.5 534.5 c 128,-1,13
 249 504 249 504 249 435 c 2,14,-1
 249 0 l 1,15,-1
 59 0 l 1,16,-1
 59 460 l 2,17,18
 59 589 59 589 128 660 c 128,-1,19
 197 731 197 731 329 739 c 1,20,-1
 329 835 l 1,21,-1
 479 835 l 1,22,-1
 479 739 l 1,23,0
 611 731 611 731 680 660 c 128,-1,1
EndSplineSet
EndChar

StartChar: uni20A6
Encoding: 8358 8358 490
Width: 864
GlyphClass: 2
Flags: W
AnchorPoint: "Anchor-1" 432 730 basechar 0
AnchorPoint: "Anchor-0" 432 0 basechar 0
LayerCount: 2
Fore
SplineSet
842 390 m 1,0,-1
 737 390 l 1,1,-1
 737 340 l 1,2,-1
 842 340 l 1,3,-1
 842 220 l 1,4,-1
 737 220 l 1,5,-1
 737 0 l 1,6,-1
 537 0 l 1,7,-1
 329 400 l 1,8,-1
 327 400 l 1,9,-1
 327 0 l 1,10,-1
 127 0 l 1,11,-1
 127 220 l 1,12,-1
 22 220 l 1,13,-1
 22 340 l 1,14,-1
 127 340 l 1,15,-1
 127 390 l 1,16,-1
 22 390 l 1,17,-1
 22 510 l 1,18,-1
 127 510 l 1,19,-1
 127 730 l 1,20,-1
 327 730 l 1,21,-1
 535 330 l 1,22,-1
 537 330 l 1,23,-1
 537 730 l 1,24,-1
 737 730 l 1,25,-1
 737 510 l 1,26,-1
 842 510 l 1,27,-1
 842 390 l 1,0,-1
EndSplineSet
EndChar

StartChar: peseta
Encoding: 8359 8359 491
Width: 792
Flags: W
LayerCount: 2
Fore
SplineSet
782 390 m 1,0,-1
 691 390 l 1,1,2
 671 292 671 292 596.5 241 c 128,-1,3
 522 190 522 190 397 190 c 2,4,-1
 327 190 l 1,5,-1
 327 0 l 1,6,-1
 127 0 l 1,7,-1
 127 390 l 1,8,-1
 22 390 l 1,9,-1
 22 530 l 1,10,-1
 127 530 l 1,11,-1
 127 730 l 1,12,-1
 357 730 l 2,13,14
 505 730 505 730 588 680.5 c 128,-1,15
 671 631 671 631 691 530 c 1,16,-1
 782 530 l 1,17,-1
 782 390 l 1,0,-1
327 530 m 1,18,-1
 477 530 l 1,19,20
 451 580 451 580 367 580 c 2,21,-1
 327 580 l 1,22,-1
 327 530 l 1,18,-1
477 390 m 1,24,-1
 327 390 l 1,25,-1
 327 340 l 1,26,-1
 367 340 l 2,27,23
 451 340 451 340 477 390 c 1,24,-1
EndSplineSet
EndChar

StartChar: uni20B1
Encoding: 8369 8369 492
Width: 792
Flags: W
LayerCount: 2
Fore
SplineSet
782 485 m 1,0,-1
 696 485 l 1,1,2
 697 477 697 477 697 460 c 256,3,4
 697 443 697 443 696 435 c 1,5,-1
 782 435 l 1,6,-1
 782 315 l 1,7,-1
 664 315 l 1,8,9
 630 253 630 253 563 221.5 c 128,-1,10
 496 190 496 190 397 190 c 2,11,-1
 327 190 l 1,12,-1
 327 0 l 1,13,-1
 127 0 l 1,14,-1
 127 315 l 1,15,-1
 22 315 l 1,16,-1
 22 435 l 1,17,-1
 127 435 l 1,18,-1
 127 485 l 1,19,-1
 22 485 l 1,20,-1
 22 605 l 1,21,-1
 127 605 l 1,22,-1
 127 730 l 1,23,-1
 357 730 l 2,24,25
 592 730 592 730 663 605 c 1,26,-1
 782 605 l 1,27,-1
 782 485 l 1,0,-1
461.5 369 m 128,-1,29
 492 398 492 398 492 460 c 256,30,31
 492 522 492 522 461.5 551 c 128,-1,32
 431 580 431 580 367 580 c 2,33,-1
 327 580 l 1,34,-1
 327 340 l 1,35,-1
 367 340 l 2,36,28
 431 340 431 340 461.5 369 c 128,-1,29
EndSplineSet
EndChar

StartChar: uni20BD
Encoding: 8381 8381 493
Width: 723
Flags: W
LayerCount: 2
Fore
SplineSet
327 260 m 1,0,-1
 327 210 l 1,1,-1
 522 210 l 1,2,-1
 522 90 l 1,3,-1
 327 90 l 1,4,-1
 327 0 l 1,5,-1
 127 0 l 1,6,-1
 127 90 l 1,7,-1
 22 90 l 1,8,-1
 22 210 l 1,9,-1
 127 210 l 1,10,-1
 127 260 l 1,11,-1
 22 260 l 1,12,-1
 22 380 l 1,13,-1
 127 380 l 1,14,-1
 127 730 l 1,15,-1
 357 730 l 2,16,17
 529 730 529 730 613 667 c 128,-1,18
 697 604 697 604 697 475 c 0,19,20
 697 370 697 370 620 315 c 128,-1,21
 543 260 543 260 397 260 c 2,22,-1
 327 260 l 1,0,-1
327 380 m 1,23,-1
 367 380 l 2,24,25
 431 380 431 380 461.5 403 c 128,-1,26
 492 426 492 426 492 475 c 256,27,28
 492 524 492 524 461.5 547 c 128,-1,29
 431 570 431 570 367 570 c 2,30,-1
 327 570 l 1,31,-1
 327 380 l 1,23,-1
EndSplineSet
EndChar

StartChar: uni20B9
Encoding: 8377 8377 494
Width: 633
Flags: W
LayerCount: 2
Fore
SplineSet
492 610 m 1,0,1
 509 580 509 580 515 545 c 1,2,-1
 604 545 l 1,3,-1
 604 425 l 1,4,-1
 511 425 l 1,5,6
 482 312 482 312 358 274 c 1,7,-1
 549 0 l 1,8,-1
 329 0 l 1,9,-1
 151 255 l 1,10,-1
 49 255 l 1,11,-1
 49 390 l 1,12,-1
 219 390 l 2,13,14
 280 390 280 390 300 425 c 1,15,-1
 49 425 l 1,16,-1
 49 545 l 1,17,-1
 300 545 l 1,18,19
 280 580 280 580 219 580 c 2,20,-1
 49 580 l 1,21,-1
 49 730 l 1,22,-1
 604 730 l 1,23,-1
 604 610 l 1,24,-1
 492 610 l 1,0,1
EndSplineSet
EndChar

StartChar: sterling
Encoding: 163 163 495
Width: 667
Flags: W
LayerCount: 2
Fore
SplineSet
612 160 m 1,0,-1
 612 0 l 1,1,-1
 72 0 l 1,2,-1
 72 160 l 1,3,4
 116 163 116 163 139 198.5 c 128,-1,5
 162 234 162 234 162 298 c 2,6,-1
 162 306 l 1,7,-1
 72 306 l 1,8,-1
 72 446 l 1,9,-1
 162 446 l 1,10,-1
 162 520 l 2,11,12
 162 627 162 627 230 683.5 c 128,-1,13
 298 740 298 740 427 740 c 0,14,15
 507 740 507 740 592 715 c 1,16,-1
 567 555 l 1,17,18
 536 569 536 569 510 574.5 c 128,-1,19
 484 580 484 580 452 580 c 0,20,21
 401 580 401 580 381.5 562.5 c 128,-1,22
 362 545 362 545 362 500 c 2,23,-1
 362 446 l 1,24,-1
 547 446 l 1,25,-1
 547 306 l 1,26,-1
 362 306 l 1,27,-1
 362 298 l 2,28,29
 362 247 362 247 344.5 210.5 c 128,-1,30
 327 174 327 174 297 162 c 1,31,-1
 297 160 l 1,32,-1
 612 160 l 1,0,-1
EndSplineSet
EndChar

StartChar: uni20A9
Encoding: 8361 8361 496
Width: 1064
GlyphClass: 2
Flags: W
AnchorPoint: "Anchor-1" 532 730 basechar 0
AnchorPoint: "Anchor-0" 532 0 basechar 0
LayerCount: 2
Fore
SplineSet
1042 390 m 1,0,-1
 922 390 l 1,1,-1
 912 340 l 1,2,-1
 1042 340 l 1,3,-1
 1042 220 l 1,4,-1
 887 220 l 1,5,-1
 842 0 l 1,6,-1
 602 0 l 1,7,-1
 533 420 l 1,8,-1
 531 420 l 1,9,-1
 462 0 l 1,10,-1
 222 0 l 1,11,-1
 177 220 l 1,12,-1
 22 220 l 1,13,-1
 22 340 l 1,14,-1
 152 340 l 1,15,-1
 142 390 l 1,16,-1
 22 390 l 1,17,-1
 22 510 l 1,18,-1
 117 510 l 1,19,-1
 72 730 l 1,20,-1
 277 730 l 1,21,-1
 306 510 l 1,22,-1
 394 510 l 1,23,-1
 412 630 l 1,24,-1
 652 630 l 1,25,-1
 670 510 l 1,26,-1
 758 510 l 1,27,-1
 787 730 l 1,28,-1
 992 730 l 1,29,-1
 947 510 l 1,30,-1
 1042 510 l 1,31,-1
 1042 390 l 1,0,-1
346 210 m 1,32,-1
 348 210 l 1,33,-1
 375 390 l 1,34,-1
 322 390 l 1,35,-1
 346 210 l 1,32,-1
718 210 m 1,36,-1
 742 390 l 1,37,-1
 689 390 l 1,38,-1
 716 210 l 1,39,-1
 718 210 l 1,36,-1
EndSplineSet
EndChar

StartChar: yen
Encoding: 165 165 497
Width: 688
Flags: W
LayerCount: 2
Fore
SplineSet
684 730 m 1,0,-1
 515 400 l 1,1,-1
 634 400 l 1,2,-1
 634 280 l 1,3,-1
 454 280 l 1,4,-1
 449 270 l 1,5,-1
 449 230 l 1,6,-1
 634 230 l 1,7,-1
 634 110 l 1,8,-1
 449 110 l 1,9,-1
 449 0 l 1,10,-1
 239 0 l 1,11,-1
 239 110 l 1,12,-1
 54 110 l 1,13,-1
 54 230 l 1,14,-1
 239 230 l 1,15,-1
 239 270 l 1,16,-1
 234 280 l 1,17,-1
 54 280 l 1,18,-1
 54 400 l 1,19,-1
 173 400 l 1,20,-1
 4 730 l 1,21,-1
 224 730 l 1,22,-1
 343 440 l 1,23,-1
 345 440 l 1,24,-1
 464 730 l 1,25,-1
 684 730 l 1,0,-1
EndSplineSet
EndChar

StartChar: uni2215
Encoding: 8725 8725 499
Width: 517
Flags: W
LayerCount: 2
Fore
SplineSet
330 730 m 1,0,-1
 510 730 l 1,1,-1
 187 0 l 1,2,-1
 7 0 l 1,3,-1
 330 730 l 1,0,-1
EndSplineSet
EndChar

StartChar: plus
Encoding: 43 43 500
Width: 684
Flags: W
LayerCount: 2
Fore
SplineSet
257 205 m 1,0,-1
 52 205 l 1,1,-1
 52 375 l 1,2,-1
 257 375 l 1,3,-1
 257 580 l 1,4,-1
 427 580 l 1,5,-1
 427 375 l 1,6,-1
 632 375 l 1,7,-1
 632 205 l 1,8,-1
 427 205 l 1,9,-1
 427 0 l 1,10,-1
 257 0 l 1,11,-1
 257 205 l 1,0,-1
EndSplineSet
EndChar

StartChar: minus
Encoding: 8722 8722 501
Width: 684
Flags: W
LayerCount: 2
Fore
SplineSet
52 375 m 1,0,-1
 632 375 l 1,1,-1
 632 205 l 1,2,-1
 52 205 l 1,3,-1
 52 375 l 1,0,-1
EndSplineSet
EndChar

StartChar: multiply
Encoding: 215 215 502
Width: 630
Flags: W
LayerCount: 2
Fore
SplineSet
22 117 m 1,0,-1
 195 290 l 1,1,-1
 22 463 l 1,2,-1
 142 583 l 1,3,-1
 315 410 l 1,4,-1
 488 583 l 1,5,-1
 608 463 l 1,6,-1
 435 290 l 1,7,-1
 608 117 l 1,8,-1
 488 -3 l 1,9,-1
 315 170 l 1,10,-1
 142 -3 l 1,11,-1
 22 117 l 1,0,-1
EndSplineSet
EndChar

StartChar: divide
Encoding: 247 247 503
Width: 684
Flags: W
LayerCount: 2
Fore
SplineSet
271.5 429.5 m 128,-1,1
 242 459 242 459 242 500 c 256,2,3
 242 541 242 541 271.5 570.5 c 128,-1,4
 301 600 301 600 342 600 c 256,5,6
 383 600 383 600 412.5 570.5 c 128,-1,7
 442 541 442 541 442 500 c 256,8,9
 442 459 442 459 412.5 429.5 c 128,-1,10
 383 400 383 400 342 400 c 256,11,0
 301 400 301 400 271.5 429.5 c 128,-1,1
52 375 m 1,12,-1
 632 375 l 1,13,-1
 632 205 l 1,14,-1
 52 205 l 1,15,-1
 52 375 l 1,12,-1
271.5 9.5 m 128,-1,17
 242 39 242 39 242 80 c 256,18,19
 242 121 242 121 271.5 150.5 c 128,-1,20
 301 180 301 180 342 180 c 256,21,22
 383 180 383 180 412.5 150.5 c 128,-1,23
 442 121 442 121 442 80 c 256,24,25
 442 39 442 39 412.5 9.5 c 128,-1,26
 383 -20 383 -20 342 -20 c 256,27,16
 301 -20 301 -20 271.5 9.5 c 128,-1,17
EndSplineSet
EndChar

StartChar: equal
Encoding: 61 61 504
Width: 724
Flags: W
LayerCount: 2
Fore
SplineSet
72 500 m 1,0,-1
 652 500 l 1,1,-1
 652 335 l 1,2,-1
 72 335 l 1,3,-1
 72 500 l 1,0,-1
72 245 m 1,4,-1
 652 245 l 1,5,-1
 652 80 l 1,6,-1
 72 80 l 1,7,-1
 72 245 l 1,4,-1
EndSplineSet
EndChar

StartChar: notequal
Encoding: 8800 8800 505
Width: 724
Flags: W
LayerCount: 2
Fore
SplineSet
652 335 m 1,0,-1
 465 335 l 1,1,-1
 437 245 l 1,2,-1
 652 245 l 1,3,-1
 652 80 l 1,4,-1
 385 80 l 1,5,-1
 343 -56 l 1,6,-1
 181 -5 l 1,7,-1
 208 80 l 1,8,-1
 72 80 l 1,9,-1
 72 245 l 1,10,-1
 259 245 l 1,11,-1
 287 335 l 1,12,-1
 72 335 l 1,13,-1
 72 500 l 1,14,-1
 339 500 l 1,15,-1
 381 636 l 1,16,-1
 543 585 l 1,17,-1
 516 500 l 1,18,-1
 652 500 l 1,19,-1
 652 335 l 1,0,-1
EndSplineSet
EndChar

StartChar: greater
Encoding: 62 62 506
Width: 697
Flags: W
LayerCount: 2
Fore
SplineSet
65 170 m 1,0,-1
 494 289 l 1,1,-1
 494 291 l 1,2,-1
 65 410 l 1,3,-1
 65 590 l 1,4,-1
 645 400 l 1,5,-1
 645 180 l 1,6,-1
 65 -10 l 1,7,-1
 65 170 l 1,0,-1
EndSplineSet
EndChar

StartChar: less
Encoding: 60 60 507
Width: 697
Flags: W
LayerCount: 2
Fore
SplineSet
52 180 m 1,0,-1
 52 400 l 1,1,-1
 632 590 l 1,2,-1
 632 410 l 1,3,-1
 203 291 l 1,4,-1
 203 289 l 1,5,-1
 632 170 l 1,6,-1
 632 -10 l 1,7,-1
 52 180 l 1,0,-1
EndSplineSet
EndChar

StartChar: greaterequal
Encoding: 8805 8805 508
Width: 692
Flags: W
LayerCount: 2
Fore
SplineSet
59 172 m 1,0,-1
 59 352 l 1,1,-1
 488 471 l 1,2,-1
 488 473 l 1,3,-1
 59 592 l 1,4,-1
 59 772 l 1,5,-1
 639 582 l 1,6,-1
 639 362 l 1,7,-1
 59 172 l 1,0,-1
59 0 m 1,8,-1
 59 165 l 1,9,-1
 639 165 l 1,10,-1
 639 0 l 1,11,-1
 59 0 l 1,8,-1
EndSplineSet
EndChar

StartChar: lessequal
Encoding: 8804 8804 509
Width: 692
Flags: W
LayerCount: 2
Fore
SplineSet
53 582 m 1,0,-1
 633 772 l 1,1,-1
 633 592 l 1,2,-1
 204 473 l 1,3,-1
 204 471 l 1,4,-1
 633 352 l 1,5,-1
 633 172 l 1,6,-1
 53 362 l 1,7,-1
 53 582 l 1,0,-1
53 165 m 1,8,-1
 633 165 l 1,9,-1
 633 0 l 1,10,-1
 53 0 l 1,11,-1
 53 165 l 1,8,-1
EndSplineSet
EndChar

StartChar: plusminus
Encoding: 177 177 510
Width: 724
Flags: W
LayerCount: 2
Fore
SplineSet
277 390 m 1,0,-1
 72 390 l 1,1,-1
 72 555 l 1,2,-1
 277 555 l 1,3,-1
 277 730 l 1,4,-1
 447 730 l 1,5,-1
 447 555 l 1,6,-1
 652 555 l 1,7,-1
 652 390 l 1,8,-1
 447 390 l 1,9,-1
 447 215 l 1,10,-1
 277 215 l 1,11,-1
 277 390 l 1,0,-1
72 165 m 1,12,-1
 652 165 l 1,13,-1
 652 0 l 1,14,-1
 72 0 l 1,15,-1
 72 165 l 1,12,-1
EndSplineSet
EndChar

StartChar: approxequal
Encoding: 8776 8776 511
Width: 756
Flags: W
LayerCount: 2
Fore
SplineSet
98 486 m 128,-1,1
 138 541 138 541 218 541 c 0,2,3
 264 541 264 541 314.5 528.5 c 128,-1,4
 365 516 365 516 428 488 c 0,5,6
 483 464 483 464 508 464 c 0,7,8
 525 464 525 464 531.5 477.5 c 128,-1,9
 538 491 538 491 538 531 c 1,10,-1
 698 531 l 1,11,12
 698 417 698 417 657.5 363.5 c 128,-1,13
 617 310 617 310 538 310 c 0,14,15
 492 310 492 310 441.5 322.5 c 128,-1,16
 391 335 391 335 328 363 c 0,17,18
 273 387 273 387 248 387 c 0,19,20
 231 387 231 387 224.5 372 c 128,-1,21
 218 357 218 357 218 310 c 1,22,-1
 58 310 l 1,23,0
 58 431 58 431 98 486 c 128,-1,1
98 216 m 128,-1,25
 138 271 138 271 218 271 c 0,26,27
 264 271 264 271 314.5 258.5 c 128,-1,28
 365 246 365 246 428 218 c 0,29,30
 483 194 483 194 508 194 c 0,31,32
 525 194 525 194 531.5 207.5 c 128,-1,33
 538 221 538 221 538 261 c 1,34,-1
 698 261 l 1,35,36
 698 147 698 147 657.5 93.5 c 128,-1,37
 617 40 617 40 538 40 c 0,38,39
 492 40 492 40 441.5 52.5 c 128,-1,40
 391 65 391 65 328 93 c 0,41,42
 273 117 273 117 248 117 c 0,43,44
 231 117 231 117 224.5 102 c 128,-1,45
 218 87 218 87 218 40 c 1,46,-1
 58 40 l 1,47,24
 58 161 58 161 98 216 c 128,-1,25
EndSplineSet
EndChar

StartChar: asciitilde
Encoding: 126 126 512
Width: 744
Flags: W
LayerCount: 2
Fore
SplineSet
92 373 m 128,-1,1
 132 430 132 430 212 430 c 0,2,3
 259 430 259 430 309.5 417 c 128,-1,4
 360 404 360 404 422 375 c 0,5,6
 476 350 476 350 502 350 c 0,7,8
 518 350 518 350 525 364.5 c 128,-1,9
 532 379 532 379 532 420 c 1,10,-1
 692 420 l 1,11,12
 692 301 692 301 651.5 245.5 c 128,-1,13
 611 190 611 190 532 190 c 0,14,15
 485 190 485 190 434.5 203 c 128,-1,16
 384 216 384 216 322 245 c 0,17,18
 268 270 268 270 242 270 c 0,19,20
 225 270 225 270 218.5 254 c 128,-1,21
 212 238 212 238 212 190 c 1,22,-1
 52 190 l 1,23,0
 52 316 52 316 92 373 c 128,-1,1
EndSplineSet
EndChar

StartChar: logicalnot
Encoding: 172 172 513
Width: 724
Flags: W
LayerCount: 2
Fore
SplineSet
482 330 m 1,0,-1
 52 330 l 1,1,-1
 52 500 l 1,2,-1
 652 500 l 1,3,-1
 652 80 l 1,4,-1
 482 80 l 1,5,-1
 482 330 l 1,0,-1
EndSplineSet
EndChar

StartChar: asciicircum
Encoding: 94 94 514
Width: 694
Flags: W
LayerCount: 2
Fore
SplineSet
217 730 m 1,0,-1
 477 730 l 1,1,-1
 687 280 l 1,2,-1
 467 280 l 1,3,-1
 348 590 l 1,4,-1
 346 590 l 1,5,-1
 227 280 l 1,6,-1
 7 280 l 1,7,-1
 217 730 l 1,0,-1
EndSplineSet
EndChar

StartChar: uni00B5
Encoding: 181 181 515
Width: 622
GlyphClass: 2
Flags: W
AnchorPoint: "Anchor-3" 533 480 basechar 0
AnchorPoint: "Anchor-2" 563 0 basechar 0
AnchorPoint: "Anchor-1" 311 520 basechar 0
AnchorPoint: "Anchor-0" 311 0 basechar 0
LayerCount: 2
Fore
SplineSet
563 520 m 1,0,-1
 563 0 l 1,1,-1
 377 0 l 1,2,-1
 375 60 l 1,3,-1
 373 60 l 1,4,5
 345 28 345 28 315.5 11.5 c 128,-1,6
 286 -5 286 -5 249 -9 c 1,7,-1
 249 -220 l 1,8,-1
 53 -220 l 1,9,-1
 53 520 l 1,10,-1
 249 520 l 1,11,-1
 249 240 l 2,12,13
 249 190 249 190 260 170 c 128,-1,14
 271 150 271 150 298 150 c 0,15,16
 328 150 328 150 347.5 170 c 128,-1,17
 367 190 367 190 367 220 c 2,18,-1
 367 520 l 1,19,-1
 563 520 l 1,0,-1
EndSplineSet
EndChar

StartChar: percent
Encoding: 37 37 516
Width: 946
Flags: W
LayerCount: 2
Fore
SplineSet
76 340 m 128,-1,1
 33 394 33 394 33 511 c 256,2,3
 33 628 33 628 76 682 c 128,-1,4
 119 736 119 736 213 736 c 256,5,6
 307 736 307 736 350 682 c 128,-1,7
 393 628 393 628 393 511 c 256,8,9
 393 394 393 394 350 340 c 128,-1,10
 307 286 307 286 213 286 c 256,11,0
 119 286 119 286 76 340 c 128,-1,1
588 730 m 1,12,-1
 738 730 l 1,13,-1
 358 0 l 1,14,-1
 208 0 l 1,15,-1
 588 730 l 1,12,-1
241.5 430.5 m 128,-1,17
 250 453 250 453 250 511 c 256,18,19
 250 569 250 569 241.5 591.5 c 128,-1,20
 233 614 233 614 213 614 c 256,21,22
 193 614 193 614 184.5 591.5 c 128,-1,23
 176 569 176 569 176 511 c 256,24,25
 176 453 176 453 184.5 430.5 c 128,-1,26
 193 408 193 408 213 408 c 256,27,16
 233 408 233 408 241.5 430.5 c 128,-1,17
596 48 m 128,-1,29
 553 102 553 102 553 219 c 256,30,31
 553 336 553 336 596 390 c 128,-1,32
 639 444 639 444 733 444 c 256,33,34
 827 444 827 444 870 390 c 128,-1,35
 913 336 913 336 913 219 c 256,36,37
 913 102 913 102 870 48 c 128,-1,38
 827 -6 827 -6 733 -6 c 256,39,28
 639 -6 639 -6 596 48 c 128,-1,29
761.5 138.5 m 128,-1,41
 770 161 770 161 770 219 c 256,42,43
 770 277 770 277 761.5 299.5 c 128,-1,44
 753 322 753 322 733 322 c 256,45,46
 713 322 713 322 704.5 299.5 c 128,-1,47
 696 277 696 277 696 219 c 256,48,49
 696 161 696 161 704.5 138.5 c 128,-1,50
 713 116 713 116 733 116 c 256,51,40
 753 116 753 116 761.5 138.5 c 128,-1,41
EndSplineSet
EndChar

StartChar: at
Encoding: 64 64 518
Width: 814
Flags: W
LayerCount: 2
Fore
SplineSet
597 453 m 1,0,-1
 597 167 l 1,1,-1
 668 167 l 1,2,3
 682 211 682 211 682 260 c 0,4,5
 682 340 682 340 647 402.5 c 128,-1,6
 612 465 612 465 549.5 500 c 128,-1,7
 487 535 487 535 407 535 c 256,8,9
 327 535 327 535 264.5 500 c 128,-1,10
 202 465 202 465 167 402.5 c 128,-1,11
 132 340 132 340 132 260 c 256,12,13
 132 180 132 180 167 117.5 c 128,-1,14
 202 55 202 55 264.5 20 c 128,-1,15
 327 -15 327 -15 407 -15 c 0,16,17
 514 -15 514 -15 588 46 c 1,18,-1
 648 -34 l 1,19,20
 599 -73 599 -73 537.5 -94 c 128,-1,21
 476 -115 476 -115 407 -115 c 0,22,23
 300 -115 300 -115 214.5 -66.5 c 128,-1,24
 129 -18 129 -18 80.5 67.5 c 128,-1,25
 32 153 32 153 32 260 c 256,26,27
 32 367 32 367 80.5 452.5 c 128,-1,28
 129 538 129 538 214.5 586.5 c 128,-1,29
 300 635 300 635 407 635 c 256,30,31
 514 635 514 635 599.5 586.5 c 128,-1,32
 685 538 685 538 733.5 452.5 c 128,-1,33
 782 367 782 367 782 260 c 0,34,35
 782 151 782 151 733 67 c 1,36,-1
 466 67 l 1,37,-1
 464 119 l 1,38,-1
 462 119 l 1,39,40
 415 60 415 60 349 60 c 0,41,42
 282 60 282 60 239.5 113 c 128,-1,43
 197 166 197 166 197 260 c 256,44,45
 197 354 197 354 239 407 c 128,-1,46
 281 460 281 460 349 460 c 0,47,48
 383 460 383 460 410.5 445.5 c 128,-1,49
 438 431 438 431 462 401 c 1,50,-1
 464 401 l 1,51,-1
 466 453 l 1,52,-1
 597 453 l 1,0,-1
460 264 m 2,53,54
 460 307 460 307 443 330 c 128,-1,55
 426 353 426 353 397 353 c 256,56,57
 368 353 368 353 351 329 c 128,-1,58
 334 305 334 305 334 260 c 256,59,60
 334 215 334 215 351 191 c 128,-1,61
 368 167 368 167 397 167 c 256,62,63
 426 167 426 167 443 190 c 128,-1,64
 460 213 460 213 460 256 c 2,65,-1
 460 264 l 2,53,54
EndSplineSet
EndChar

StartChar: ampersand
Encoding: 38 38 519
Width: 745
Flags: W
LayerCount: 2
Fore
SplineSet
613 -18 m 1,0,-1
 549 39 l 1,1,2
 485 13 485 13 430.5 1.5 c 128,-1,3
 376 -10 376 -10 318 -10 c 0,4,5
 231 -10 231 -10 166.5 13 c 128,-1,6
 102 36 102 36 67.5 79 c 128,-1,7
 33 122 33 122 33 180 c 0,8,9
 33 235 33 235 65 278.5 c 128,-1,10
 97 322 97 322 176 372 c 1,11,12
 115 427 115 427 91.5 467.5 c 128,-1,13
 68 508 68 508 68 555 c 0,14,15
 68 643 68 643 136 691.5 c 128,-1,16
 204 740 204 740 328 740 c 0,17,18
 408 740 408 740 468 717.5 c 128,-1,19
 528 695 528 695 560.5 653 c 128,-1,20
 593 611 593 611 593 555 c 0,21,22
 593 498 593 498 555 450.5 c 128,-1,23
 517 403 517 403 429 350 c 1,24,-1
 508 278 l 1,25,-1
 508 380 l 1,26,-1
 688 380 l 1,27,-1
 688 116 l 1,28,-1
 743 67 l 1,29,-1
 613 -18 l 1,0,-1
278 590.5 m 128,-1,31
 258 576 258 576 258 550 c 0,32,33
 258 531 258 531 271.5 509 c 128,-1,34
 285 487 285 487 317 454 c 1,35,36
 366 483 366 483 384.5 504 c 128,-1,37
 403 525 403 525 403 550 c 0,38,39
 403 605 403 605 333 605 c 0,40,30
 298 605 298 605 278 590.5 c 128,-1,31
415 159 m 1,42,-1
 291 270 l 1,43,44
 238 232 238 232 238 195 c 0,45,46
 238 169 238 169 261.5 154.5 c 128,-1,47
 285 140 285 140 328 140 c 0,48,41
 373 140 373 140 415 159 c 1,42,-1
EndSplineSet
EndChar

StartChar: paragraph
Encoding: 182 182 520
Width: 705
Flags: W
LayerCount: 2
Fore
SplineSet
125 301 m 128,-1,1
 72 332 72 332 41 385 c 128,-1,2
 10 438 10 438 10 500 c 256,3,4
 10 562 10 562 41 615 c 128,-1,5
 72 668 72 668 125 699 c 128,-1,6
 178 730 178 730 240 730 c 2,7,-1
 640 730 l 1,8,-1
 640 -110 l 1,9,-1
 480 -110 l 1,10,-1
 480 590 l 1,11,-1
 400 590 l 1,12,-1
 400 -110 l 1,13,-1
 240 -110 l 1,14,-1
 240 270 l 1,15,0
 178 270 178 270 125 301 c 128,-1,1
EndSplineSet
EndChar

StartChar: section
Encoding: 167 167 521
Width: 604
Flags: W
LayerCount: 2
Fore
SplineSet
541 140 m 128,-1,1
 552 111 552 111 552 70 c 0,2,3
 552 -16 552 -16 486 -68 c 128,-1,4
 420 -120 420 -120 302 -120 c 0,5,6
 181 -120 181 -120 67 -80 c 1,7,-1
 102 70 l 1,8,9
 200 30 200 30 282 30 c 0,10,11
 325 30 325 30 346 41 c 128,-1,12
 367 52 367 52 367 70 c 0,13,14
 367 87 367 87 351 98 c 128,-1,15
 335 109 335 109 297 115 c 0,16,17
 170 134 170 134 113.5 181.5 c 128,-1,18
 57 229 57 229 57 310 c 0,19,20
 57 382 57 382 101 429 c 1,21,22
 74 450 74 450 63 479 c 128,-1,23
 52 508 52 508 52 550 c 0,24,25
 52 636 52 636 118 688 c 128,-1,26
 184 740 184 740 302 740 c 0,27,28
 423 740 423 740 537 700 c 1,29,-1
 502 550 l 1,30,31
 404 590 404 590 322 590 c 0,32,33
 279 590 279 590 258 579 c 128,-1,34
 237 568 237 568 237 550 c 0,35,36
 237 533 237 533 253 522 c 128,-1,37
 269 511 269 511 307 505 c 0,38,39
 434 487 434 487 490.5 439.5 c 128,-1,40
 547 392 547 392 547 310 c 0,41,42
 547 238 547 238 503 191 c 1,43,0
 530 169 530 169 541 140 c 128,-1,1
224.5 300 m 128,-1,45
 232 287 232 287 253.5 278 c 128,-1,46
 275 269 275 269 317 260 c 0,47,48
 345 255 345 255 377 246 c 1,49,50
 387 264 387 264 387 285 c 0,51,52
 387 307 387 307 379 320 c 128,-1,53
 371 333 371 333 350 342.5 c 128,-1,54
 329 352 329 352 287 360 c 0,55,56
 279 362 279 362 227 373 c 1,57,58
 217 355 217 355 217 335 c 0,59,44
 217 313 217 313 224.5 300 c 128,-1,45
EndSplineSet
EndChar

StartChar: copyright
Encoding: 169 169 522
Width: 814
Flags: W
LayerCount: 2
Fore
SplineSet
219 40.5 m 128,-1,1
 133 91 133 91 82.5 177 c 128,-1,2
 32 263 32 263 32 365 c 256,3,4
 32 467 32 467 82.5 553 c 128,-1,5
 133 639 133 639 219 689.5 c 128,-1,6
 305 740 305 740 407 740 c 256,7,8
 509 740 509 740 595 689.5 c 128,-1,9
 681 639 681 639 731.5 553 c 128,-1,10
 782 467 782 467 782 365 c 256,11,12
 782 263 782 263 731.5 177 c 128,-1,13
 681 91 681 91 595 40.5 c 128,-1,14
 509 -10 509 -10 407 -10 c 256,15,0
 305 -10 305 -10 219 40.5 c 128,-1,1
552.5 114 m 128,-1,17
 619 153 619 153 658 219.5 c 128,-1,18
 697 286 697 286 697 365 c 256,19,20
 697 444 697 444 658 510.5 c 128,-1,21
 619 577 619 577 552.5 616 c 128,-1,22
 486 655 486 655 407 655 c 256,23,24
 328 655 328 655 261.5 616 c 128,-1,25
 195 577 195 577 156 510.5 c 128,-1,26
 117 444 117 444 117 365 c 256,27,28
 117 286 117 286 156 219.5 c 128,-1,29
 195 153 195 153 261.5 114 c 128,-1,30
 328 75 328 75 407 75 c 256,31,16
 486 75 486 75 552.5 114 c 128,-1,17
257.5 198 m 128,-1,33
 200 256 200 256 200 365 c 0,34,35
 200 473 200 473 257.5 531.5 c 128,-1,36
 315 590 315 590 422 590 c 0,37,38
 510 590 510 590 575 550 c 1,39,-1
 517 440 l 1,40,41
 467 468 467 468 428 468 c 0,42,43
 387 468 387 468 365 442 c 128,-1,44
 343 416 343 416 343 365 c 256,45,46
 343 314 343 314 365 288 c 128,-1,47
 387 262 387 262 428 262 c 0,48,49
 470 262 470 262 517 289 c 1,50,-1
 575 179 l 1,51,52
 509 140 509 140 422 140 c 0,53,32
 315 140 315 140 257.5 198 c 128,-1,33
EndSplineSet
EndChar

StartChar: registered
Encoding: 174 174 523
Width: 814
Flags: W
LayerCount: 2
Fore
SplineSet
595 689.5 m 128,-1,1
 681 639 681 639 731.5 553 c 128,-1,2
 782 467 782 467 782 365 c 256,3,4
 782 263 782 263 731.5 177 c 128,-1,5
 681 91 681 91 595 40.5 c 128,-1,6
 509 -10 509 -10 407 -10 c 256,7,8
 305 -10 305 -10 219 40.5 c 128,-1,9
 133 91 133 91 82.5 177 c 128,-1,10
 32 263 32 263 32 365 c 256,11,12
 32 467 32 467 82.5 553 c 128,-1,13
 133 639 133 639 219 689.5 c 128,-1,14
 305 740 305 740 407 740 c 256,15,0
 509 740 509 740 595 689.5 c 128,-1,1
672 247.5 m 128,-1,17
 697 303 697 303 697 365 c 0,18,19
 697 444 697 444 658 510.5 c 128,-1,20
 619 577 619 577 552.5 616 c 128,-1,21
 486 655 486 655 407 655 c 256,22,23
 328 655 328 655 261.5 616 c 128,-1,24
 195 577 195 577 156 510.5 c 128,-1,25
 117 444 117 444 117 365 c 256,26,27
 117 286 117 286 156 219.5 c 128,-1,28
 195 153 195 153 261.5 114 c 128,-1,29
 328 75 328 75 407 75 c 0,30,31
 461 75 461 75 509.5 93.5 c 128,-1,32
 558 112 558 112 597 146 c 1,33,-1
 449 146 l 1,34,-1
 385 288 l 1,35,-1
 385 146 l 1,36,-1
 245 146 l 1,37,-1
 245 584 l 1,38,-1
 393 584 l 2,39,40
 496 584 496 584 546.5 548 c 128,-1,41
 597 512 597 512 597 438 c 0,42,43
 597 390 597 390 576.5 357 c 128,-1,44
 556 324 556 324 517 307 c 1,45,-1
 602 151 l 1,46,16
 647 192 647 192 672 247.5 c 128,-1,17
454 432 m 256,48,49
 454 473 454 473 399 473 c 2,50,-1
 385 473 l 1,51,-1
 385 391 l 1,52,-1
 399 391 l 2,53,47
 454 391 454 391 454 432 c 256,48,49
EndSplineSet
EndChar

StartChar: trademark
Encoding: 8482 8482 524
Width: 783
Flags: W
LayerCount: 2
Fore
SplineSet
124 635 m 1,0,-1
 26 635 l 1,1,-1
 26 730 l 1,2,-1
 325 730 l 1,3,-1
 325 635 l 1,4,-1
 227 635 l 1,5,-1
 227 365 l 1,6,-1
 124 365 l 1,7,-1
 124 635 l 1,0,-1
371 730 m 1,8,-1
 505 730 l 1,9,-1
 561 572 l 1,10,-1
 562 572 l 1,11,-1
 618 730 l 1,12,-1
 752 730 l 1,13,-1
 752 365 l 1,14,-1
 652 365 l 1,15,-1
 652 565 l 1,16,-1
 651 565 l 1,17,-1
 607 443 l 1,18,-1
 516 443 l 1,19,-1
 472 565 l 1,20,-1
 471 565 l 1,21,-1
 471 365 l 1,22,-1
 371 365 l 1,23,-1
 371 730 l 1,8,-1
EndSplineSet
EndChar

StartChar: degree
Encoding: 176 176 525
Width: 435
Flags: W
LayerCount: 2
Fore
SplineSet
124 385.5 m 128,-1,1
 81 411 81 411 55.5 454 c 128,-1,2
 30 497 30 497 30 548 c 256,3,4
 30 599 30 599 55.5 642 c 128,-1,5
 81 685 81 685 124 710 c 128,-1,6
 167 735 167 735 218 735 c 256,7,8
 269 735 269 735 312 710 c 128,-1,9
 355 685 355 685 380 642 c 128,-1,10
 405 599 405 599 405 548 c 256,11,12
 405 497 405 497 380 454 c 128,-1,13
 355 411 355 411 312 385.5 c 128,-1,14
 269 360 269 360 218 360 c 256,15,0
 167 360 167 360 124 385.5 c 128,-1,1
269 496 m 128,-1,17
 290 517 290 517 290 548 c 0,18,19
 290 578 290 578 269 599 c 128,-1,20
 248 620 248 620 218 620 c 0,21,22
 187 620 187 620 166 599 c 128,-1,23
 145 578 145 578 145 548 c 0,24,25
 145 517 145 517 166 496 c 128,-1,26
 187 475 187 475 218 475 c 0,27,16
 248 475 248 475 269 496 c 128,-1,17
EndSplineSet
EndChar

StartChar: bar
Encoding: 124 124 526
Width: 314
Flags: W
LayerCount: 2
Fore
SplineSet
72 810 m 1,0,-1
 242 810 l 1,1,-1
 242 -220 l 1,2,-1
 72 -220 l 1,3,-1
 72 810 l 1,0,-1
EndSplineSet
EndChar

StartChar: brokenbar
Encoding: 166 166 527
Width: 314
Flags: W
LayerCount: 2
Fore
SplineSet
72 810 m 1,0,-1
 242 810 l 1,1,-1
 242 370 l 1,2,-1
 72 370 l 1,3,-1
 72 810 l 1,0,-1
72 220 m 1,4,-1
 242 220 l 1,5,-1
 242 -220 l 1,6,-1
 72 -220 l 1,7,-1
 72 220 l 1,4,-1
EndSplineSet
EndChar

StartChar: dagger
Encoding: 8224 8224 528
Width: 552
Flags: W
LayerCount: 2
Fore
SplineSet
191 380 m 1,0,-1
 26 380 l 1,1,-1
 26 520 l 1,2,-1
 191 520 l 1,3,-1
 191 730 l 1,4,-1
 361 730 l 1,5,-1
 361 520 l 1,6,-1
 526 520 l 1,7,-1
 526 380 l 1,8,-1
 361 380 l 1,9,-1
 361 -110 l 1,10,-1
 191 -110 l 1,11,-1
 191 380 l 1,0,-1
EndSplineSet
EndChar

StartChar: daggerdbl
Encoding: 8225 8225 529
Width: 572
Flags: W
LayerCount: 2
Fore
SplineSet
201 100 m 1,0,-1
 36 100 l 1,1,-1
 36 240 l 1,2,-1
 201 240 l 1,3,-1
 201 380 l 1,4,-1
 36 380 l 1,5,-1
 36 520 l 1,6,-1
 201 520 l 1,7,-1
 201 730 l 1,8,-1
 371 730 l 1,9,-1
 371 520 l 1,10,-1
 536 520 l 1,11,-1
 536 380 l 1,12,-1
 371 380 l 1,13,-1
 371 240 l 1,14,-1
 536 240 l 1,15,-1
 536 100 l 1,16,-1
 371 100 l 1,17,-1
 371 -110 l 1,18,-1
 201 -110 l 1,19,-1
 201 100 l 1,0,-1
EndSplineSet
EndChar

StartChar: uni2116
Encoding: 8470 8470 530
Width: 1230
GlyphClass: 2
Flags: W
AnchorPoint: "Anchor-1" 370 730 basechar 0
AnchorPoint: "Anchor-0" 370 0 basechar 0
LayerCount: 2
Fore
SplineSet
800 363 m 128,-1,1
 744 418 744 418 744 524 c 256,2,3
 744 630 744 630 800 685 c 128,-1,4
 856 740 856 740 964 740 c 0,5,6
 1071 740 1071 740 1127.5 685 c 128,-1,7
 1184 630 1184 630 1184 524 c 256,8,9
 1184 418 1184 418 1127.5 363 c 128,-1,10
 1071 308 1071 308 964 308 c 0,11,0
 856 308 856 308 800 363 c 128,-1,1
265 730 m 1,12,-1
 473 330 l 1,13,-1
 475 330 l 1,14,-1
 475 730 l 1,15,-1
 675 730 l 1,16,-1
 675 0 l 1,17,-1
 475 0 l 1,18,-1
 267 400 l 1,19,-1
 265 400 l 1,20,-1
 265 0 l 1,21,-1
 65 0 l 1,22,-1
 65 730 l 1,23,-1
 265 730 l 1,12,-1
1004.5 453 m 128,-1,25
 1017 476 1017 476 1017 524 c 256,26,27
 1017 572 1017 572 1004.5 595 c 128,-1,28
 992 618 992 618 964 618 c 256,29,30
 936 618 936 618 923.5 595 c 128,-1,31
 911 572 911 572 911 524 c 256,32,33
 911 476 911 476 923.5 453 c 128,-1,34
 936 430 936 430 964 430 c 256,35,24
 992 430 992 430 1004.5 453 c 128,-1,25
754 270 m 1,36,-1
 1174 270 l 1,37,-1
 1174 140 l 1,38,-1
 754 140 l 1,39,-1
 754 270 l 1,36,-1
EndSplineSet
Ligature2: "'ordn' Ordinals in Latin lookup 9 subtable" N o period
EndChar

StartChar: uni0308
Encoding: 776 776 533
Width: 0
GlyphClass: 4
Flags: W
AnchorPoint: "Anchor-10" -256 760 basemark 0
AnchorPoint: "Anchor-10" -256 520 mark 0
AnchorPoint: "Anchor-6" -256 520 mark 0
AnchorPoint: "Anchor-1" -256 520 mark 0
LayerCount: 2
Fore
SplineSet
-486 760 m 1,0,-1
 -296 760 l 1,1,-1
 -296 570 l 1,2,-1
 -486 570 l 1,3,-1
 -486 760 l 1,0,-1
-216 760 m 1,4,-1
 -26 760 l 1,5,-1
 -26 570 l 1,6,-1
 -216 570 l 1,7,-1
 -216 760 l 1,4,-1
EndSplineSet
EndChar

StartChar: uni0307
Encoding: 775 775 534
Width: 0
GlyphClass: 4
Flags: W
AnchorPoint: "Anchor-10" -121 760 basemark 0
AnchorPoint: "Anchor-10" -121 520 mark 0
AnchorPoint: "Anchor-6" -121 520 mark 0
AnchorPoint: "Anchor-1" -121 520 mark 0
LayerCount: 2
Fore
SplineSet
-216 760 m 1,0,-1
 -26 760 l 1,1,-1
 -26 570 l 1,2,-1
 -216 570 l 1,3,-1
 -216 760 l 1,0,-1
EndSplineSet
EndChar

StartChar: gravecomb
Encoding: 768 768 535
Width: 0
GlyphClass: 4
Flags: W
AnchorPoint: "Anchor-10" -160 520 mark 0
AnchorPoint: "Anchor-6" -160 520 mark 0
AnchorPoint: "Anchor-1" -160 520 mark 0
LayerCount: 2
Fore
SplineSet
-336 770 m 1,0,-1
 -106 770 l 1,1,-1
 -46 560 l 1,2,-1
 -216 560 l 1,3,-1
 -336 770 l 1,0,-1
EndSplineSet
EndChar

StartChar: acutecomb
Encoding: 769 769 536
Width: 0
GlyphClass: 4
Flags: W
AnchorPoint: "Anchor-10" -202 520 mark 0
AnchorPoint: "Anchor-6" -202 520 mark 0
AnchorPoint: "Anchor-1" -202 520 mark 0
LayerCount: 2
Fore
SplineSet
-146 560 m 1,0,-1
 -316 560 l 1,1,-1
 -256 770 l 1,2,-1
 -26 770 l 1,3,-1
 -146 560 l 1,0,-1
EndSplineSet
EndChar

StartChar: uni0302
Encoding: 770 770 538
Width: 0
GlyphClass: 4
Flags: W
AnchorPoint: "Anchor-10" -296 520 mark 0
AnchorPoint: "Anchor-6" -296 520 mark 0
AnchorPoint: "Anchor-1" -296 520 mark 0
LayerCount: 2
Fore
SplineSet
-446 770 m 1,0,-1
 -146 770 l 1,1,-1
 -26 560 l 1,2,-1
 -236 560 l 1,3,-1
 -295 700 l 1,4,-1
 -297 700 l 1,5,-1
 -356 560 l 1,6,-1
 -566 560 l 1,7,-1
 -446 770 l 1,0,-1
EndSplineSet
EndChar

StartChar: uni030C
Encoding: 780 780 539
Width: 0
GlyphClass: 4
Flags: W
AnchorPoint: "Anchor-10" -296 770 basemark 0
AnchorPoint: "Anchor-10" -296 520 mark 0
AnchorPoint: "Anchor-6" -296 520 mark 0
AnchorPoint: "Anchor-1" -296 520 mark 0
LayerCount: 2
Fore
SplineSet
-566 770 m 1,0,-1
 -356 770 l 1,1,-1
 -297 630 l 1,2,-1
 -295 630 l 1,3,-1
 -236 770 l 1,4,-1
 -26 770 l 1,5,-1
 -146 560 l 1,6,-1
 -446 560 l 1,7,-1
 -566 770 l 1,0,-1
EndSplineSet
EndChar

StartChar: uni0306
Encoding: 774 774 540
Width: 0
GlyphClass: 4
Flags: W
AnchorPoint: "Anchor-10" -266 520 mark 0
AnchorPoint: "Anchor-6" -266 520 mark 0
AnchorPoint: "Anchor-1" -266 520 mark 0
LayerCount: 2
Fore
SplineSet
-395 578.5 m 128,-1,1
 -452 607 -452 607 -484 657 c 128,-1,2
 -516 707 -516 707 -516 770 c 1,3,-1
 -346 770 l 1,4,5
 -341 724 -341 724 -321.5 702 c 128,-1,6
 -302 680 -302 680 -266 680 c 0,7,8
 -231 680 -231 680 -211.5 702 c 128,-1,9
 -192 724 -192 724 -186 770 c 1,10,-1
 -16 770 l 1,11,12
 -16 707 -16 707 -48 657 c 128,-1,13
 -80 607 -80 607 -137 578.5 c 128,-1,14
 -194 550 -194 550 -266 550 c 256,15,0
 -338 550 -338 550 -395 578.5 c 128,-1,1
EndSplineSet
EndChar

StartChar: uni030A
Encoding: 778 778 541
Width: 0
GlyphClass: 4
Flags: W
AnchorPoint: "Anchor-10" -191 750 basemark 0
AnchorPoint: "Anchor-10" -191 520 mark 0
AnchorPoint: "Anchor-6" -191 520 mark 0
AnchorPoint: "Anchor-1" -191 520 mark 0
LayerCount: 2
Fore
SplineSet
-276 518 m 128,-1,1
 -315 541 -315 541 -338 580 c 128,-1,2
 -361 619 -361 619 -361 665 c 256,3,4
 -361 711 -361 711 -338 750 c 128,-1,5
 -315 789 -315 789 -276 812 c 128,-1,6
 -237 835 -237 835 -191 835 c 256,7,8
 -145 835 -145 835 -106 812 c 128,-1,9
 -67 789 -67 789 -44 750 c 128,-1,10
 -21 711 -21 711 -21 665 c 256,11,12
 -21 619 -21 619 -44 580 c 128,-1,13
 -67 541 -67 541 -106 518 c 128,-1,14
 -145 495 -145 495 -191 495 c 256,15,0
 -237 495 -237 495 -276 518 c 128,-1,1
-152 626 m 128,-1,17
 -136 642 -136 642 -136 665 c 256,18,19
 -136 688 -136 688 -152 704 c 128,-1,20
 -168 720 -168 720 -191 720 c 256,21,22
 -214 720 -214 720 -230 704 c 128,-1,23
 -246 688 -246 688 -246 665 c 256,24,25
 -246 642 -246 642 -230 626 c 128,-1,26
 -214 610 -214 610 -191 610 c 256,27,16
 -168 610 -168 610 -152 626 c 128,-1,17
EndSplineSet
EndChar

StartChar: tildecomb
Encoding: 771 771 542
Width: 0
GlyphClass: 4
Flags: W
AnchorPoint: "Anchor-10" -276 780 basemark 0
AnchorPoint: "Anchor-10" -276 520 mark 0
AnchorPoint: "Anchor-6" -276 520 mark 0
AnchorPoint: "Anchor-1" -276 520 mark 0
LayerCount: 2
Fore
SplineSet
-299 602 m 0,1,2
 -336 625 -336 625 -356 625 c 0,3,4
 -369 625 -369 625 -373.5 612.5 c 128,-1,5
 -378 600 -378 600 -378 560 c 1,6,-1
 -526 560 l 1,7,8
 -526 672 -526 672 -495.5 726 c 128,-1,9
 -465 780 -465 780 -401 780 c 256,10,11
 -337 780 -337 780 -253 728 c 0,12,13
 -216 705 -216 705 -196 705 c 0,14,15
 -183 705 -183 705 -178.5 717.5 c 128,-1,16
 -174 730 -174 730 -174 770 c 1,17,-1
 -26 770 l 1,18,19
 -26 658 -26 658 -56.5 604 c 128,-1,20
 -87 550 -87 550 -151 550 c 256,21,0
 -215 550 -215 550 -299 602 c 0,1,2
EndSplineSet
EndChar

StartChar: uni0304
Encoding: 772 772 543
Width: 0
GlyphClass: 4
Flags: W
AnchorPoint: "Anchor-10" -236 735 basemark 0
AnchorPoint: "Anchor-10" -236 520 mark 0
AnchorPoint: "Anchor-6" -236 520 mark 0
AnchorPoint: "Anchor-1" -236 520 mark 0
LayerCount: 2
Fore
SplineSet
-446 735 m 1,0,-1
 -26 735 l 1,1,-1
 -26 595 l 1,2,-1
 -446 595 l 1,3,-1
 -446 735 l 1,0,-1
EndSplineSet
EndChar

StartChar: uni0305
Encoding: 773 773 544
Width: 0
GlyphClass: 4
Flags: W
LayerCount: 2
Fore
SplineSet
-640 930 m 1,0,-1
 0 930 l 1,1,-1
 0 800 l 1,2,-1
 -640 800 l 1,3,-1
 -640 930 l 1,0,-1
EndSplineSet
EndChar

StartChar: hookabovecomb
Encoding: 777 777 545
Width: 0
GlyphClass: 4
Flags: W
AnchorPoint: "Anchor-10" -221 780 basemark 0
AnchorPoint: "Anchor-10" -221 520 mark 0
AnchorPoint: "Anchor-6" -221 520 mark 0
AnchorPoint: "Anchor-1" -221 520 mark 0
LayerCount: 2
Fore
SplineSet
-201 620 m 0,1,2
 -201 638 -201 638 -210 644 c 128,-1,3
 -219 650 -219 650 -246 650 c 0,4,5
 -280 650 -280 650 -321.5 643.5 c 128,-1,6
 -363 637 -363 637 -401 625 c 1,7,-1
 -416 760 l 1,8,9
 -374 769 -374 769 -320.5 774.5 c 128,-1,10
 -267 780 -267 780 -221 780 c 0,11,12
 -143 780 -143 780 -101.5 771.5 c 128,-1,13
 -60 763 -60 763 -43 743 c 128,-1,14
 -26 723 -26 723 -26 685 c 0,15,16
 -26 657 -26 657 -33 622 c 128,-1,17
 -40 587 -40 587 -51 560 c 1,18,-1
 -211 560 l 1,19,0
 -201 597 -201 597 -201 620 c 0,1,2
EndSplineSet
EndChar

StartChar: uni030F
Encoding: 783 783 546
Width: 0
GlyphClass: 4
Flags: W
AnchorPoint: "Anchor-10" -292 770 basemark 0
AnchorPoint: "Anchor-10" -292 520 mark 0
AnchorPoint: "Anchor-6" -292 520 mark 0
AnchorPoint: "Anchor-1" -292 520 mark 0
LayerCount: 2
Fore
SplineSet
-606 770 m 1,0,-1
 -376 770 l 1,1,-1
 -316 560 l 1,2,-1
 -486 560 l 1,3,-1
 -606 770 l 1,0,-1
-336 770 m 1,4,-1
 -106 770 l 1,5,-1
 -46 560 l 1,6,-1
 -216 560 l 1,7,-1
 -336 770 l 1,4,-1
EndSplineSet
EndChar

StartChar: uni0311
Encoding: 785 785 547
Width: 0
GlyphClass: 4
Flags: W
AnchorPoint: "Anchor-10" -266 780 basemark 0
AnchorPoint: "Anchor-10" -266 520 mark 0
AnchorPoint: "Anchor-6" -266 520 mark 0
AnchorPoint: "Anchor-1" -266 520 mark 0
LayerCount: 2
Fore
SplineSet
-137 751.5 m 128,-1,1
 -80 723 -80 723 -48 673 c 128,-1,2
 -16 623 -16 623 -16 560 c 1,3,-1
 -186 560 l 1,4,5
 -192 606 -192 606 -211.5 628 c 128,-1,6
 -231 650 -231 650 -266 650 c 0,7,8
 -302 650 -302 650 -321.5 628 c 128,-1,9
 -341 606 -341 606 -346 560 c 1,10,-1
 -516 560 l 1,11,12
 -516 623 -516 623 -484 673 c 128,-1,13
 -452 723 -452 723 -395 751.5 c 128,-1,14
 -338 780 -338 780 -266 780 c 256,15,0
 -194 780 -194 780 -137 751.5 c 128,-1,1
EndSplineSet
EndChar

StartChar: uni0312
Encoding: 786 786 548
Width: 0
GlyphClass: 4
Flags: W
AnchorPoint: "Anchor-10" -191 770 basemark 0
AnchorPoint: "Anchor-10" -191 520 mark 0
AnchorPoint: "Anchor-6" -191 520 mark 0
AnchorPoint: "Anchor-1" -191 520 mark 0
LayerCount: 2
Fore
SplineSet
-216 770 m 1,0,-1
 -46 770 l 1,1,-1
 -106 560 l 1,2,-1
 -336 560 l 1,3,-1
 -216 770 l 1,0,-1
EndSplineSet
EndChar

